G04*
G04 #@! TF.GenerationSoftware,Altium Limited,Altium NEXUS,5.8.2 (18)*
G04*
G04 Layer_Color=128*
%FSLAX44Y44*%
%MOMM*%
G71*
G04*
G04 #@! TF.SameCoordinates,3A1DB9EE-8D2C-4681-89B5-BFB965533D06*
G04*
G04*
G04 #@! TF.FilePolarity,Positive*
G04*
G01*
G75*
G36*
X17832Y82439D02*
X19239Y81032D01*
X20000Y79194D01*
Y77205D01*
X19239Y75368D01*
X17832Y73961D01*
X15994Y73200D01*
X0D01*
Y83200D01*
X15994D01*
X17832Y82439D01*
D02*
G37*
G36*
Y57039D02*
X19239Y55632D01*
X20000Y53794D01*
Y51805D01*
X19239Y49968D01*
X17832Y48561D01*
X15994Y47800D01*
X0D01*
Y57800D01*
X15994D01*
X17832Y57039D01*
D02*
G37*
G36*
Y31639D02*
X19239Y30232D01*
X20000Y28394D01*
Y26405D01*
X19239Y24568D01*
X17832Y23161D01*
X15994Y22400D01*
X0D01*
Y32400D01*
X15994D01*
X17832Y31639D01*
D02*
G37*
G36*
X143832Y19239D02*
X145239Y17832D01*
X146000Y15994D01*
Y15000D01*
Y0D01*
X136000D01*
Y15000D01*
Y15994D01*
X136761Y17832D01*
X138168Y19239D01*
X140005Y20000D01*
X141994D01*
X143832Y19239D01*
D02*
G37*
G36*
X17832Y107839D02*
X19239Y106432D01*
X20000Y104594D01*
Y102605D01*
X19239Y100768D01*
X17832Y99361D01*
X15994Y98600D01*
X0D01*
Y108600D01*
X15994D01*
X17832Y107839D01*
D02*
G37*
G36*
Y133239D02*
X19239Y131832D01*
X20000Y129994D01*
Y128005D01*
X19239Y126168D01*
X17832Y124761D01*
X15994Y124000D01*
X0D01*
Y134000D01*
X15994D01*
X17832Y133239D01*
D02*
G37*
G36*
Y271261D02*
X19239Y269854D01*
X20000Y268016D01*
Y266027D01*
X19239Y264189D01*
X17832Y262783D01*
X15994Y262022D01*
X0D01*
Y272022D01*
X15994D01*
X17832Y271261D01*
D02*
G37*
G36*
Y296661D02*
X19239Y295254D01*
X20000Y293416D01*
Y291427D01*
X19239Y289590D01*
X17832Y288183D01*
X15994Y287422D01*
X0D01*
Y297422D01*
X15994D01*
X17832Y296661D01*
D02*
G37*
G36*
X169232Y19239D02*
X170639Y17832D01*
X171400Y15994D01*
Y15000D01*
Y0D01*
X161400D01*
Y15000D01*
Y15994D01*
X162161Y17832D01*
X163568Y19239D01*
X165405Y20000D01*
X167395D01*
X169232Y19239D01*
D02*
G37*
G36*
X315000Y22400D02*
X299005D01*
X297168Y23161D01*
X295761Y24568D01*
X295000Y26405D01*
Y28394D01*
X295761Y30232D01*
X297168Y31639D01*
X299005Y32400D01*
X315000D01*
Y22400D01*
D02*
G37*
G36*
Y47800D02*
X299005D01*
X297168Y48561D01*
X295761Y49968D01*
X295000Y51805D01*
Y53794D01*
X295761Y55632D01*
X297168Y57039D01*
X299005Y57800D01*
X315000D01*
Y47800D01*
D02*
G37*
G36*
Y73200D02*
X299005D01*
X297168Y73961D01*
X295761Y75368D01*
X295000Y77205D01*
Y79194D01*
X295761Y81032D01*
X297168Y82439D01*
X299005Y83200D01*
X315000D01*
Y73200D01*
D02*
G37*
G36*
Y98600D02*
X299005D01*
X297168Y99361D01*
X295761Y100768D01*
X295000Y102605D01*
Y104594D01*
X295761Y106432D01*
X297168Y107839D01*
X299005Y108600D01*
X315000D01*
Y98600D01*
D02*
G37*
G36*
Y124000D02*
X299005D01*
X297168Y124761D01*
X295761Y126168D01*
X295000Y128005D01*
Y129994D01*
X295761Y131832D01*
X297168Y133239D01*
X299005Y134000D01*
X315000D01*
Y124000D01*
D02*
G37*
G36*
Y262000D02*
X299005D01*
X297168Y262761D01*
X295761Y264168D01*
X295000Y266005D01*
Y267994D01*
X295761Y269832D01*
X297168Y271239D01*
X299005Y272000D01*
X315000D01*
Y262000D01*
D02*
G37*
G36*
Y287400D02*
X299005D01*
X297168Y288161D01*
X295761Y289568D01*
X295000Y291405D01*
Y293395D01*
X295761Y295232D01*
X297168Y296639D01*
X299005Y297400D01*
X315000D01*
Y287400D01*
D02*
G37*
M02*
