G04*
G04 #@! TF.GenerationSoftware,Altium Limited,Altium NEXUS,5.8.2 (18)*
G04*
G04 Layer_Physical_Order=4*
G04 Layer_Color=16711680*
%FSLAX44Y44*%
%MOMM*%
G71*
G04*
G04 #@! TF.SameCoordinates,3A1DB9EE-8D2C-4681-89B5-BFB965533D06*
G04*
G04*
G04 #@! TF.FilePolarity,Positive*
G04*
G01*
G75*
%ADD15C,0.2000*%
%ADD23C,0.6000*%
%ADD59C,1.0000*%
%ADD60C,0.1700*%
%ADD63C,0.8000*%
G36*
X315000Y300005D02*
X313032Y299746D01*
X311288Y299024D01*
X308000D01*
Y297400D01*
X315000D01*
Y294025D01*
Y290775D01*
Y287400D01*
X308000D01*
Y285776D01*
X311288D01*
X313032Y285054D01*
X315000Y284795D01*
Y274605D01*
X313032Y274346D01*
X311288Y273624D01*
X308000D01*
Y272000D01*
X315000D01*
Y268625D01*
Y265375D01*
Y262000D01*
X308000D01*
Y260376D01*
X311288D01*
X313032Y259654D01*
X315000Y259395D01*
Y136605D01*
X313032Y136346D01*
X311288Y135624D01*
X308000D01*
Y134000D01*
X315000D01*
Y130625D01*
Y127375D01*
Y124000D01*
X308000D01*
Y122376D01*
X311288D01*
X313032Y121654D01*
X315000Y121395D01*
Y110224D01*
X299005D01*
X298707Y110100D01*
X298384D01*
X296546Y109339D01*
X296318Y109110D01*
X296020Y108987D01*
X294613Y107580D01*
X294490Y107282D01*
X294261Y107054D01*
X293500Y105216D01*
Y104893D01*
X293376Y104594D01*
Y102605D01*
X293500Y102307D01*
Y101984D01*
X294261Y100146D01*
X294490Y99918D01*
X294613Y99620D01*
X296020Y98213D01*
X296318Y98090D01*
X296546Y97861D01*
X298384Y97100D01*
X298707D01*
X299005Y96976D01*
X315000D01*
Y84824D01*
X299005D01*
X298707Y84700D01*
X298384D01*
X296546Y83939D01*
X296318Y83710D01*
X296020Y83587D01*
X294613Y82180D01*
X294490Y81882D01*
X294261Y81654D01*
X293500Y79816D01*
Y79493D01*
X293376Y79194D01*
Y77205D01*
X293500Y76907D01*
Y76584D01*
X294261Y74746D01*
X294490Y74518D01*
X294613Y74220D01*
X296020Y72813D01*
X296318Y72689D01*
X296546Y72461D01*
X298384Y71700D01*
X298707D01*
X299005Y71576D01*
X315000D01*
Y59424D01*
X299005D01*
X298707Y59300D01*
X298384D01*
X296546Y58539D01*
X296318Y58310D01*
X296020Y58187D01*
X294613Y56780D01*
X294490Y56482D01*
X294261Y56254D01*
X293500Y54416D01*
Y54093D01*
X293376Y53794D01*
Y51805D01*
X293500Y51507D01*
Y51184D01*
X294261Y49346D01*
X294490Y49118D01*
X294613Y48820D01*
X296020Y47413D01*
X296318Y47290D01*
X296546Y47061D01*
X298384Y46300D01*
X298707D01*
X299005Y46176D01*
X315000D01*
Y35005D01*
X313032Y34746D01*
X311288Y34024D01*
X308000D01*
Y32400D01*
X315000D01*
Y29025D01*
Y25775D01*
Y22400D01*
X308000D01*
Y20776D01*
X311288D01*
X313032Y20054D01*
X315000Y19795D01*
Y0D01*
X174005D01*
X173746Y1968D01*
X173024Y3712D01*
Y7000D01*
X171400D01*
Y0D01*
X161400D01*
Y7000D01*
X159776D01*
Y3712D01*
X159054Y1968D01*
X158795Y0D01*
X148605D01*
X148346Y1968D01*
X147624Y3712D01*
Y7000D01*
X146000D01*
Y0D01*
X136000D01*
Y7000D01*
X134376D01*
Y3712D01*
X133654Y1968D01*
X133395Y0D01*
X-0D01*
Y20776D01*
X0D01*
X15994D01*
X16293Y20900D01*
X16616D01*
X18454Y21661D01*
X18682Y21890D01*
X18980Y22013D01*
X20387Y23420D01*
X20510Y23718D01*
X20739Y23946D01*
X21247Y25172D01*
X21317Y25186D01*
X22094Y25706D01*
X34694Y38306D01*
X34694Y38306D01*
X35006Y38772D01*
X35214Y39083D01*
X35396Y40000D01*
Y173008D01*
X58993Y196604D01*
X135000D01*
X135917Y196786D01*
X136694Y197306D01*
X166694Y227306D01*
X166694Y227306D01*
X167006Y227772D01*
X167214Y228083D01*
X167396Y229000D01*
Y241189D01*
X168244Y241756D01*
X169239Y243244D01*
X169588Y245000D01*
X169239Y246756D01*
X168244Y248244D01*
X166756Y249239D01*
X165000Y249588D01*
X163244Y249239D01*
X161756Y248244D01*
X160761Y246756D01*
X160412Y245000D01*
X160761Y243244D01*
X161756Y241756D01*
X162604Y241189D01*
Y229993D01*
X134008Y201396D01*
X128785D01*
X149694Y222306D01*
X150214Y223083D01*
X150396Y224000D01*
Y230827D01*
X151244Y231394D01*
X152239Y232882D01*
X152588Y234638D01*
X152239Y236394D01*
X151244Y237882D01*
X149756Y238877D01*
X148000Y239226D01*
X146244Y238877D01*
X144756Y237882D01*
X143761Y236394D01*
X143412Y234638D01*
X143761Y232882D01*
X144756Y231394D01*
X145604Y230827D01*
Y224993D01*
X126007Y205396D01*
X124784D01*
X140895Y221507D01*
X141415Y222284D01*
X141597Y223201D01*
Y242824D01*
X142445Y243391D01*
X143440Y244879D01*
X143789Y246635D01*
X143440Y248391D01*
X142445Y249879D01*
X140957Y250874D01*
X139201Y251223D01*
X137445Y250874D01*
X135957Y249879D01*
X134962Y248391D01*
X134613Y246635D01*
X134962Y244879D01*
X135957Y243391D01*
X136805Y242824D01*
Y224193D01*
X122008Y209396D01*
X56000D01*
X55083Y209214D01*
X54772Y209006D01*
X54306Y208694D01*
X54306Y208694D01*
X23306Y177694D01*
X22786Y176917D01*
X22604Y176000D01*
Y84993D01*
X20089Y82478D01*
X18980Y83587D01*
X18682Y83710D01*
X18454Y83939D01*
X16616Y84700D01*
X16293D01*
X15994Y84824D01*
X0D01*
X-0D01*
Y96976D01*
X0D01*
X15994D01*
X16293Y97100D01*
X16616D01*
X18454Y97861D01*
X18682Y98090D01*
X18980Y98213D01*
X20387Y99620D01*
X20510Y99918D01*
X20739Y100146D01*
X21500Y101984D01*
Y102307D01*
X21624Y102605D01*
Y104594D01*
X21500Y104893D01*
Y105216D01*
X20739Y107054D01*
X20510Y107282D01*
X20387Y107580D01*
X18980Y108987D01*
X18682Y109110D01*
X18454Y109339D01*
X16616Y110100D01*
X16293D01*
X15994Y110224D01*
X0D01*
X-0D01*
Y121395D01*
X0D01*
X1968Y121654D01*
X3712Y122376D01*
X7000D01*
Y124000D01*
X0D01*
Y127375D01*
Y130625D01*
Y134000D01*
X7000D01*
Y135624D01*
X3712D01*
X1968Y136346D01*
X0Y136605D01*
X-0D01*
X0Y259417D01*
D01*
X1968Y259676D01*
X3712Y260398D01*
X7000D01*
Y262022D01*
X0D01*
Y265397D01*
Y268647D01*
Y272022D01*
X7000D01*
Y273645D01*
X3712D01*
X1968Y274368D01*
X0Y274627D01*
D01*
Y284817D01*
D01*
X1968Y285076D01*
X3712Y285798D01*
X7000D01*
Y287422D01*
X0D01*
Y290797D01*
Y294047D01*
Y297422D01*
X7000D01*
Y299045D01*
X3712D01*
X1968Y299768D01*
X0Y300027D01*
D01*
Y348000D01*
X315000D01*
Y300005D01*
D02*
G37*
G36*
Y98600D02*
X299005D01*
X297168Y99361D01*
X295761Y100768D01*
X295000Y102605D01*
Y104594D01*
X295761Y106432D01*
X297168Y107839D01*
X299005Y108600D01*
X315000D01*
Y98600D01*
D02*
G37*
G36*
X17832Y107839D02*
X19239Y106432D01*
X20000Y104594D01*
Y102605D01*
X19239Y100768D01*
X17832Y99361D01*
X15994Y98600D01*
X0D01*
Y108600D01*
X15994D01*
X17832Y107839D01*
D02*
G37*
G36*
X315000Y73200D02*
X299005D01*
X297168Y73961D01*
X295761Y75368D01*
X295000Y77205D01*
Y79194D01*
X295761Y81032D01*
X297168Y82439D01*
X299005Y83200D01*
X315000D01*
Y73200D01*
D02*
G37*
G36*
X17832Y82439D02*
X19239Y81032D01*
X20000Y79194D01*
Y77205D01*
X19239Y75368D01*
X17832Y73961D01*
X15994Y73200D01*
X0D01*
Y83200D01*
X15994D01*
X17832Y82439D01*
D02*
G37*
G36*
X26604Y62793D02*
X20447Y56635D01*
X20387Y56780D01*
X18980Y58187D01*
X18682Y58310D01*
X18454Y58539D01*
X16616Y59300D01*
X16293D01*
X15994Y59424D01*
X0D01*
X-0D01*
Y71576D01*
X0D01*
X15994D01*
X16293Y71700D01*
X16616D01*
X18454Y72461D01*
X18682Y72689D01*
X18980Y72813D01*
X20387Y74220D01*
X20510Y74518D01*
X20739Y74746D01*
X21500Y76584D01*
Y76907D01*
X21624Y77205D01*
Y77235D01*
X26604Y82215D01*
Y62793D01*
D02*
G37*
G36*
X315000Y47800D02*
X299005D01*
X297168Y48561D01*
X295761Y49968D01*
X295000Y51805D01*
Y53794D01*
X295761Y55632D01*
X297168Y57039D01*
X299005Y57800D01*
X315000D01*
Y47800D01*
D02*
G37*
G36*
X17832Y57039D02*
X19239Y55632D01*
X20000Y53794D01*
Y51805D01*
X19239Y49968D01*
X17832Y48561D01*
X15994Y47800D01*
X0D01*
Y57800D01*
X15994D01*
X17832Y57039D01*
D02*
G37*
G36*
X30604Y40992D02*
X20602Y30990D01*
X20510Y31082D01*
X20387Y31380D01*
X18980Y32787D01*
X18682Y32910D01*
X18454Y33139D01*
X16616Y33900D01*
X16293D01*
X15994Y34024D01*
X0D01*
X-0D01*
Y46176D01*
X0D01*
X15994D01*
X16293Y46300D01*
X16616D01*
X18454Y47061D01*
X18682Y47290D01*
X18980Y47413D01*
X20387Y48820D01*
X20510Y49118D01*
X20739Y49346D01*
X21381Y50896D01*
X21694Y51106D01*
X30604Y60016D01*
Y40992D01*
D02*
G37*
G36*
X17832Y31639D02*
X19239Y30232D01*
X20000Y28394D01*
Y26405D01*
X19239Y24568D01*
X17832Y23161D01*
X15994Y22400D01*
X0D01*
Y32400D01*
X15994D01*
X17832Y31639D01*
D02*
G37*
%LPC*%
G36*
X17744Y299045D02*
X10250D01*
Y297422D01*
X15994D01*
X17832Y296661D01*
X19239Y295254D01*
X19739Y294047D01*
X21260D01*
Y295529D01*
X17744Y299045D01*
D02*
G37*
G36*
X304750Y299024D02*
X297256D01*
X293740Y295508D01*
Y294025D01*
X295261D01*
X295761Y295232D01*
X297168Y296639D01*
X299005Y297400D01*
X304750D01*
Y299024D01*
D02*
G37*
G36*
X21260Y290797D02*
X19739D01*
X19239Y289590D01*
X17832Y288183D01*
X15994Y287422D01*
X10250D01*
Y285798D01*
X17744D01*
X21260Y289314D01*
Y290797D01*
D02*
G37*
G36*
X295261Y290775D02*
X293740D01*
Y289293D01*
X297256Y285776D01*
X304750D01*
Y287400D01*
X299005D01*
X297168Y288161D01*
X295761Y289568D01*
X295261Y290775D01*
D02*
G37*
G36*
X99238Y295608D02*
X97092Y295181D01*
X95273Y293965D01*
X94057Y292146D01*
X93630Y290000D01*
X94057Y287854D01*
X95273Y286035D01*
X97092Y284819D01*
X99238Y284392D01*
X101384Y284819D01*
X103203Y286035D01*
X104419Y287854D01*
X104846Y290000D01*
X104419Y292146D01*
X103203Y293965D01*
X101384Y295181D01*
X99238Y295608D01*
D02*
G37*
G36*
X17744Y273645D02*
X10250D01*
Y272022D01*
X15994D01*
X17832Y271261D01*
X19239Y269854D01*
X19739Y268647D01*
X21260D01*
Y270129D01*
X17744Y273645D01*
D02*
G37*
G36*
X304750Y273624D02*
X297256D01*
X293740Y270107D01*
Y268625D01*
X295261D01*
X295761Y269832D01*
X297168Y271239D01*
X299005Y272000D01*
X304750D01*
Y273624D01*
D02*
G37*
G36*
X21260Y265397D02*
X19739D01*
X19239Y264189D01*
X17832Y262783D01*
X15994Y262022D01*
X10250D01*
Y260398D01*
X17744D01*
X21260Y263914D01*
Y265397D01*
D02*
G37*
G36*
X295261Y265375D02*
X293740D01*
Y263892D01*
X297256Y260376D01*
X304750D01*
Y262000D01*
X299005D01*
X297168Y262761D01*
X295761Y264168D01*
X295261Y265375D01*
D02*
G37*
G36*
X78000Y256608D02*
X75854Y256181D01*
X74035Y254965D01*
X72819Y253146D01*
X72392Y251000D01*
X72819Y248854D01*
X74035Y247035D01*
X75854Y245819D01*
X78000Y245392D01*
X80146Y245819D01*
X81965Y247035D01*
X83181Y248854D01*
X83608Y251000D01*
X83181Y253146D01*
X81965Y254965D01*
X80146Y256181D01*
X78000Y256608D01*
D02*
G37*
G36*
X91000Y255608D02*
X88854Y255181D01*
X87035Y253965D01*
X85819Y252146D01*
X85392Y250000D01*
X85819Y247854D01*
X87035Y246035D01*
X88854Y244819D01*
X91000Y244392D01*
X93146Y244819D01*
X94965Y246035D01*
X96181Y247854D01*
X96608Y250000D01*
X96181Y252146D01*
X94965Y253965D01*
X93146Y255181D01*
X91000Y255608D01*
D02*
G37*
G36*
X280000Y252588D02*
X278244Y252239D01*
X276756Y251244D01*
X275761Y249756D01*
X275412Y248000D01*
X275761Y246244D01*
X276756Y244756D01*
X277604Y244189D01*
Y216992D01*
X260001Y199389D01*
X259000Y199588D01*
X257244Y199239D01*
X255756Y198244D01*
X254761Y196756D01*
X254412Y195000D01*
X254761Y193244D01*
X255756Y191756D01*
X257244Y190761D01*
X259000Y190412D01*
X260756Y190761D01*
X262244Y191756D01*
X263239Y193244D01*
X263588Y195000D01*
X263389Y196001D01*
X281694Y214306D01*
X282214Y215083D01*
X282396Y216000D01*
Y244189D01*
X283244Y244756D01*
X284239Y246244D01*
X284588Y248000D01*
X284239Y249756D01*
X283244Y251244D01*
X281756Y252239D01*
X280000Y252588D01*
D02*
G37*
G36*
X268000D02*
X266244Y252239D01*
X264756Y251244D01*
X263761Y249756D01*
X263412Y248000D01*
X263761Y246244D01*
X264756Y244756D01*
X265604Y244189D01*
Y239993D01*
X250306Y224694D01*
X249786Y223917D01*
X249604Y223000D01*
Y204811D01*
X248756Y204244D01*
X247761Y202756D01*
X247412Y201000D01*
X247761Y199244D01*
X248756Y197756D01*
X250244Y196761D01*
X252000Y196412D01*
X253756Y196761D01*
X255244Y197756D01*
X256239Y199244D01*
X256588Y201000D01*
X256239Y202756D01*
X255244Y204244D01*
X254396Y204811D01*
Y222008D01*
X269694Y237306D01*
X270214Y238083D01*
X270396Y239000D01*
Y244189D01*
X271244Y244756D01*
X272239Y246244D01*
X272588Y248000D01*
X272239Y249756D01*
X271244Y251244D01*
X269756Y252239D01*
X268000Y252588D01*
D02*
G37*
G36*
X168000Y257549D02*
X134172D01*
X133196Y257355D01*
X132922Y257172D01*
X132369Y256802D01*
X115198Y239631D01*
X114645Y238804D01*
X114451Y237828D01*
Y234624D01*
X114645Y233648D01*
X114803Y233412D01*
Y231644D01*
X114535Y231465D01*
X113319Y229646D01*
X112892Y227500D01*
X113319Y225354D01*
X114535Y223535D01*
X116354Y222319D01*
X118500Y221892D01*
X120646Y222319D01*
X122465Y223535D01*
X123681Y225354D01*
X124108Y227500D01*
X123681Y229646D01*
X122465Y231465D01*
X120646Y232681D01*
X119901Y232829D01*
Y234272D01*
X119707Y235247D01*
X119549Y235483D01*
Y236773D01*
X135227Y252451D01*
X166944D01*
X179198Y240198D01*
X229451Y189944D01*
Y154912D01*
X228035Y153965D01*
X226819Y152146D01*
X226392Y150000D01*
X226819Y147854D01*
X228035Y146035D01*
X229854Y144819D01*
X232000Y144392D01*
X234146Y144819D01*
X235965Y146035D01*
X237181Y147854D01*
X237608Y150000D01*
X237181Y152146D01*
X235965Y153965D01*
X234549Y154912D01*
Y191000D01*
X234355Y191975D01*
X233935Y192604D01*
X235000Y192392D01*
X237146Y192819D01*
X238965Y194035D01*
X240181Y195854D01*
X240608Y198000D01*
X240181Y200146D01*
X238965Y201965D01*
X237146Y203181D01*
X235000Y203608D01*
X232854Y203181D01*
X231035Y201965D01*
X229819Y200146D01*
X229392Y198000D01*
X229588Y197017D01*
X182803Y243802D01*
X182802Y243802D01*
X169802Y256802D01*
X168976Y257355D01*
X168000Y257549D01*
D02*
G37*
G36*
X113000Y143608D02*
X110854Y143181D01*
X109035Y141965D01*
X107819Y140146D01*
X107500Y138542D01*
X107181Y140146D01*
X105965Y141965D01*
X104146Y143181D01*
X102000Y143608D01*
X99854Y143181D01*
X98035Y141965D01*
X96819Y140146D01*
X96392Y138000D01*
X96819Y135854D01*
X98035Y134035D01*
X99854Y132819D01*
X102000Y132392D01*
X104146Y132819D01*
X105965Y134035D01*
X107181Y135854D01*
X107500Y137458D01*
X107819Y135854D01*
X109035Y134035D01*
X110854Y132819D01*
X113000Y132392D01*
X115146Y132819D01*
X116965Y134035D01*
X118181Y135854D01*
X118608Y138000D01*
X118181Y140146D01*
X116965Y141965D01*
X115146Y143181D01*
X113000Y143608D01*
D02*
G37*
G36*
X304750Y135624D02*
X297256D01*
X293740Y132107D01*
Y130625D01*
X295261D01*
X295761Y131832D01*
X297168Y133239D01*
X299005Y134000D01*
X304750D01*
Y135624D01*
D02*
G37*
G36*
X17744D02*
X10250D01*
Y134000D01*
X15994D01*
X17832Y133239D01*
X19239Y131832D01*
X19739Y130625D01*
X21260D01*
Y132107D01*
X17744Y135624D01*
D02*
G37*
G36*
X216000Y171588D02*
X214244Y171239D01*
X212756Y170244D01*
X211761Y168756D01*
X211412Y167000D01*
X211761Y165244D01*
X212756Y163756D01*
X213451Y163291D01*
Y149056D01*
X193820Y129425D01*
X193000Y129588D01*
X191244Y129239D01*
X189756Y128244D01*
X188761Y126756D01*
X188412Y125000D01*
X188761Y123244D01*
X189756Y121756D01*
X191244Y120761D01*
X193000Y120412D01*
X194756Y120761D01*
X196244Y121756D01*
X197239Y123244D01*
X197588Y125000D01*
X197425Y125820D01*
X217802Y146198D01*
X218172Y146750D01*
X218355Y147025D01*
X218549Y148000D01*
Y163291D01*
X219244Y163756D01*
X220239Y165244D01*
X220588Y167000D01*
X220239Y168756D01*
X219244Y170244D01*
X217756Y171239D01*
X216000Y171588D01*
D02*
G37*
G36*
X295261Y127375D02*
X293740D01*
Y125892D01*
X297256Y122376D01*
X304750D01*
Y124000D01*
X299005D01*
X297168Y124761D01*
X295761Y126168D01*
X295261Y127375D01*
D02*
G37*
G36*
X21260Y127375D02*
X19739D01*
X19239Y126168D01*
X17832Y124761D01*
X15994Y124000D01*
X10250D01*
Y122376D01*
X17744D01*
X21260Y125892D01*
Y127375D01*
D02*
G37*
G36*
X147000Y184588D02*
X145244Y184239D01*
X143756Y183244D01*
X142761Y181756D01*
X142412Y180000D01*
X142761Y178244D01*
X143756Y176756D01*
X145244Y175761D01*
X147000Y175412D01*
X148001Y175611D01*
X152604Y171008D01*
Y127811D01*
X151756Y127244D01*
X150761Y125756D01*
X150412Y124000D01*
X150761Y122244D01*
X151756Y120756D01*
X153244Y119761D01*
X155000Y119412D01*
X156756Y119761D01*
X158244Y120756D01*
X159239Y122244D01*
X159588Y124000D01*
X159239Y125756D01*
X158244Y127244D01*
X157396Y127811D01*
Y172000D01*
X157214Y172917D01*
X157006Y173228D01*
X156694Y173694D01*
X156694Y173694D01*
X151389Y178999D01*
X151588Y180000D01*
X151239Y181756D01*
X150244Y183244D01*
X148756Y184239D01*
X147000Y184588D01*
D02*
G37*
G36*
X71256Y87088D02*
X69501Y86739D01*
X68012Y85744D01*
X67018Y84256D01*
X66668Y82500D01*
X67018Y80744D01*
X68012Y79256D01*
X69501Y78261D01*
X71256Y77912D01*
X72257Y78111D01*
X74062Y76306D01*
X74840Y75786D01*
X75757Y75604D01*
X92445D01*
X93012Y74756D01*
X94501Y73761D01*
X96257Y73412D01*
X98012Y73761D01*
X99501Y74756D01*
X100495Y76244D01*
X100845Y78000D01*
X100495Y79756D01*
X99501Y81244D01*
X98012Y82239D01*
X96257Y82588D01*
X94501Y82239D01*
X93012Y81244D01*
X92445Y80396D01*
X76749D01*
X75646Y81500D01*
X75845Y82500D01*
X75495Y84256D01*
X74501Y85744D01*
X73012Y86739D01*
X71256Y87088D01*
D02*
G37*
G36*
X248500Y83898D02*
X169790D01*
Y71230D01*
X131136D01*
Y55500D01*
X249500D01*
Y71230D01*
X248500D01*
Y83898D01*
D02*
G37*
G36*
X50257Y96588D02*
X48501Y96239D01*
X47012Y95244D01*
X46018Y93756D01*
X45668Y92000D01*
X46018Y90244D01*
X47012Y88756D01*
X47860Y88189D01*
Y79000D01*
X48043Y78083D01*
X48562Y77306D01*
X74562Y51306D01*
X75340Y50786D01*
X76257Y50604D01*
X87189D01*
X87756Y49756D01*
X89244Y48761D01*
X91000Y48412D01*
X92756Y48761D01*
X94244Y49756D01*
X95239Y51244D01*
X95588Y53000D01*
X95239Y54756D01*
X94244Y56244D01*
X92756Y57239D01*
X91000Y57588D01*
X89244Y57239D01*
X87756Y56244D01*
X87189Y55396D01*
X77249D01*
X52653Y79993D01*
Y88189D01*
X53501Y88756D01*
X54495Y90244D01*
X54845Y92000D01*
X54495Y93756D01*
X53501Y95244D01*
X52012Y96239D01*
X50257Y96588D01*
D02*
G37*
G36*
X304750Y34024D02*
X297256D01*
X293740Y30508D01*
Y29025D01*
X295261D01*
X295761Y30232D01*
X297168Y31639D01*
X299005Y32400D01*
X304750D01*
Y34024D01*
D02*
G37*
G36*
X295261Y25775D02*
X293740D01*
Y24293D01*
X297256Y20776D01*
X304750D01*
Y22400D01*
X299005D01*
X297168Y23161D01*
X295761Y24568D01*
X295261Y25775D01*
D02*
G37*
G36*
X169508Y21260D02*
X168025D01*
Y19739D01*
X169232Y19239D01*
X170639Y17832D01*
X171400Y15994D01*
Y15000D01*
Y10250D01*
X173024D01*
Y17744D01*
X169508Y21260D01*
D02*
G37*
G36*
X164775D02*
X163293D01*
X159776Y17744D01*
Y10250D01*
X161400D01*
Y15000D01*
Y15994D01*
X162161Y17832D01*
X163568Y19239D01*
X164775Y19739D01*
Y21260D01*
D02*
G37*
G36*
X144108D02*
X142625D01*
Y19739D01*
X143832Y19239D01*
X145239Y17832D01*
X146000Y15994D01*
Y15000D01*
Y10250D01*
X147624D01*
Y17744D01*
X144108Y21260D01*
D02*
G37*
G36*
X139375D02*
X137893D01*
X134376Y17744D01*
Y10250D01*
X136000D01*
Y15000D01*
Y15994D01*
X136761Y17832D01*
X138168Y19239D01*
X139375Y19739D01*
Y21260D01*
D02*
G37*
G36*
X115750Y18148D02*
X97687D01*
Y4750D01*
X115750D01*
Y18148D01*
D02*
G37*
%LPD*%
D15*
X117352Y228648D02*
X118500Y227500D01*
X117000Y234624D02*
X117352Y234272D01*
Y228648D02*
Y234272D01*
X117000Y234624D02*
Y237828D01*
X168000Y255000D02*
X181000Y242000D01*
Y242000D02*
Y242000D01*
Y242000D02*
X232000Y191000D01*
Y150000D02*
Y191000D01*
X134172Y255000D02*
X168000D01*
X193000Y125000D02*
X216000Y148000D01*
Y167000D01*
X117000Y237828D02*
X134172Y255000D01*
D23*
X96257Y78000D02*
D03*
X13250Y156000D02*
D03*
X156750Y339000D02*
D03*
X297000Y244250D02*
D03*
X254500Y276750D02*
D03*
X197000Y306250D02*
D03*
X237500Y87000D02*
D03*
X289000Y38250D02*
D03*
X282750Y304250D02*
D03*
X25750Y221500D02*
D03*
X50250Y17750D02*
D03*
X211750Y17500D02*
D03*
X300000Y180500D02*
D03*
X263250Y216000D02*
D03*
X173250Y151500D02*
D03*
X163750Y211500D02*
D03*
X61500Y169500D02*
D03*
X113750Y170500D02*
D03*
X44250Y251750D02*
D03*
X304000Y65750D02*
D03*
X304750Y90500D02*
D03*
Y116125D02*
D03*
X13250Y117250D02*
D03*
X12250Y90000D02*
D03*
X14750Y39500D02*
D03*
X13500Y65250D02*
D03*
X153120Y320966D02*
D03*
X107000Y318000D02*
D03*
X115272Y320529D02*
D03*
X123812D02*
D03*
X132352D02*
D03*
X148621Y328225D02*
D03*
X141329Y332670D02*
D03*
X132827Y333471D02*
D03*
X124287D02*
D03*
X115747D02*
D03*
X64000Y321000D02*
D03*
X30250Y341750D02*
D03*
X36052Y334110D02*
D03*
X40001Y326539D02*
D03*
X47051Y321719D02*
D03*
X55508Y320529D02*
D03*
X72588D02*
D03*
X81128D02*
D03*
X89668D02*
D03*
X98150Y319538D02*
D03*
X102212Y333316D02*
D03*
X93731Y334322D02*
D03*
X85233Y333471D02*
D03*
X76693D02*
D03*
X68154D02*
D03*
X59613D02*
D03*
X51094Y334055D02*
D03*
X56000Y341500D02*
D03*
X201925Y333471D02*
D03*
X193385D02*
D03*
X184845D02*
D03*
X176309Y333209D02*
D03*
X168415Y329951D02*
D03*
X162901Y323430D02*
D03*
X180650Y320529D02*
D03*
X189190D02*
D03*
X197730D02*
D03*
X206270D02*
D03*
X260000Y343000D02*
D03*
X264393Y334358D02*
D03*
X255899Y333471D02*
D03*
X247359D02*
D03*
X238819D02*
D03*
X230279D02*
D03*
X221772Y334222D02*
D03*
X213253Y333626D02*
D03*
X216404Y319538D02*
D03*
X224886Y320529D02*
D03*
X233426D02*
D03*
X241966D02*
D03*
X250506D02*
D03*
X259046D02*
D03*
X267525Y321544D02*
D03*
X274696Y326181D02*
D03*
X278804Y333669D02*
D03*
X287000Y342000D02*
D03*
X148000Y234638D02*
D03*
X139201Y246635D02*
D03*
X280000Y248000D02*
D03*
X165000Y245000D02*
D03*
X268000Y248000D02*
D03*
X259000Y195000D02*
D03*
X252000Y201000D02*
D03*
X91000Y53000D02*
D03*
X155000Y124000D02*
D03*
X216000Y167000D02*
D03*
X193000Y125000D02*
D03*
X147000Y180000D02*
D03*
X71256Y82500D02*
D03*
X50257Y92000D02*
D03*
D59*
X315000Y292400D02*
D03*
Y267000D02*
D03*
X141000Y0D02*
D03*
X166400D02*
D03*
X0Y129000D02*
D03*
Y103600D02*
D03*
Y52800D02*
D03*
Y27400D02*
D03*
Y78200D02*
D03*
Y267022D02*
D03*
Y292422D02*
D03*
X315000Y129000D02*
D03*
X314000Y103600D02*
D03*
X315000Y78200D02*
D03*
Y52800D02*
D03*
Y27400D02*
D03*
D60*
X75757Y78000D02*
X96257D01*
X71256Y82500D02*
X75757Y78000D01*
X259000Y195000D02*
X280000Y216000D01*
X252000Y201000D02*
Y223000D01*
X280000Y216000D02*
Y248000D01*
X252000Y223000D02*
X268000Y239000D01*
X56000Y207000D02*
X123000D01*
X139201Y223201D01*
X25000Y176000D02*
X56000Y207000D01*
X76257Y53000D02*
X91000D01*
X50257Y79000D02*
X76257Y53000D01*
X155000Y124000D02*
Y172000D01*
X147000Y180000D02*
X155000Y172000D01*
X57000Y203000D02*
X127000D01*
X148000Y224000D02*
Y234638D01*
X127000Y203000D02*
X148000Y224000D01*
X58000Y199000D02*
X135000D01*
X165000Y229000D02*
Y245000D01*
X135000Y199000D02*
X165000Y229000D01*
X139201Y223201D02*
Y246635D01*
X33000Y40000D02*
Y174000D01*
X20400Y27400D02*
X33000Y40000D01*
Y174000D02*
X58000Y199000D01*
X20000Y52800D02*
X29000Y61800D01*
Y175000D02*
X57000Y203000D01*
X29000Y61800D02*
Y175000D01*
X19200Y78200D02*
X25000Y84000D01*
Y176000D01*
X0Y27400D02*
X20400D01*
X0Y78200D02*
X19200D01*
X0Y52800D02*
X20000D01*
X268000Y239000D02*
Y248000D01*
X50257Y79000D02*
Y92000D01*
X112550Y14948D02*
Y7950D01*
X107885D01*
X102053D02*
Y14948D01*
X105552Y11449D01*
X100887D01*
X246300Y61033D02*
Y65698D01*
X245134D01*
X243967Y64531D01*
Y61033D01*
Y64531D01*
X242801Y65698D01*
X241635Y64531D01*
Y61033D01*
X239302D02*
X236970D01*
X238136D01*
Y65698D01*
X239302D01*
X233471Y61033D02*
X231138D01*
X232304D01*
Y68030D01*
X233471D01*
X227639Y61033D02*
Y68030D01*
Y63365D02*
X224140Y65698D01*
X227639Y63365D02*
X224140Y61033D01*
X217143D02*
X219475D01*
X220642Y62199D01*
Y64531D01*
X219475Y65698D01*
X217143D01*
X215977Y64531D01*
Y63365D01*
X220642D01*
X213644Y61033D02*
X211311D01*
X212478D01*
Y68030D01*
X213644D01*
X207812Y61033D02*
X205480D01*
X206646D01*
Y68030D01*
X207812D01*
X198482Y61033D02*
X200815D01*
X201981Y62199D01*
Y64531D01*
X200815Y65698D01*
X198482D01*
X197316Y64531D01*
Y63365D01*
X201981D01*
X187985Y61033D02*
X183320Y65698D01*
X172824D02*
X170491D01*
X169325Y64531D01*
Y61033D01*
X172824D01*
X173990Y62199D01*
X172824Y63365D01*
X169325D01*
X166992Y58700D02*
Y65698D01*
X163493D01*
X162327Y64531D01*
Y62199D01*
X163493Y61033D01*
X166992D01*
X159994Y65698D02*
Y61033D01*
Y63365D01*
X158828Y64531D01*
X157662Y65698D01*
X156496D01*
X141334Y61033D02*
X145999D01*
X141334Y65698D01*
Y66864D01*
X142500Y68030D01*
X144833D01*
X145999Y66864D01*
X134336Y61033D02*
X139001D01*
X134336Y65698D01*
Y66864D01*
X135502Y68030D01*
X137835D01*
X139001Y66864D01*
X245300Y80698D02*
Y73700D01*
X241801D01*
X240635Y74866D01*
Y79531D01*
X241801Y80698D01*
X245300D01*
X238302D02*
Y73700D01*
X235970Y76033D01*
X233637Y73700D01*
Y80698D01*
X231304Y79531D02*
X230138Y80698D01*
X227806D01*
X226639Y79531D01*
Y78365D01*
X227806Y77199D01*
X228972D01*
X227806D01*
X226639Y76033D01*
Y74866D01*
X227806Y73700D01*
X230138D01*
X231304Y74866D01*
X224307Y79531D02*
X223141Y80698D01*
X220808D01*
X219642Y79531D01*
Y74866D01*
X220808Y73700D01*
X223141D01*
X224307Y74866D01*
Y79531D01*
X217309D02*
X216143Y80698D01*
X213810D01*
X212644Y79531D01*
Y74866D01*
X213810Y73700D01*
X216143D01*
X217309Y74866D01*
Y79531D01*
X210311D02*
X209145Y80698D01*
X206812D01*
X205646Y79531D01*
Y74866D01*
X206812Y73700D01*
X209145D01*
X210311Y74866D01*
Y79531D01*
X196316Y73700D02*
Y80698D01*
X192817D01*
X191651Y79531D01*
Y77199D01*
X192817Y76033D01*
X196316D01*
X193983D02*
X191651Y73700D01*
X189318D02*
X186985D01*
X188152D01*
Y80698D01*
X189318Y79531D01*
X183487Y73700D02*
Y74866D01*
X182320D01*
Y73700D01*
X183487D01*
X177655D02*
X175322D01*
X176489D01*
Y80698D01*
X177655Y79531D01*
D63*
X177250Y194250D02*
D03*
X196000Y37250D02*
D03*
X220500D02*
D03*
X101000Y255500D02*
D03*
X118500Y227500D02*
D03*
X128313Y226828D02*
D03*
X69500Y21250D02*
D03*
X125000Y290650D02*
D03*
X95500Y220250D02*
D03*
X95000Y311000D02*
D03*
X99238Y290000D02*
D03*
X31000Y318000D02*
D03*
X52000Y289000D02*
D03*
X69000Y281000D02*
D03*
X91000Y250000D02*
D03*
X78000Y251000D02*
D03*
X192687Y244688D02*
D03*
X69000Y267000D02*
D03*
X100000Y278000D02*
D03*
X133000Y262999D02*
D03*
X167000Y295000D02*
D03*
X150000D02*
D03*
X156000Y277000D02*
D03*
X226000Y254000D02*
D03*
X235000Y198000D02*
D03*
X57837Y121163D02*
D03*
X79000Y38000D02*
D03*
X49000Y40000D02*
D03*
X178000Y177000D02*
D03*
X204000Y165000D02*
D03*
X223000Y156500D02*
D03*
X221000Y127000D02*
D03*
X102000Y138000D02*
D03*
X113000D02*
D03*
X191000Y144000D02*
D03*
X232000Y150000D02*
D03*
M02*
