G04*
G04 #@! TF.GenerationSoftware,Altium Limited,Altium NEXUS,5.8.2 (18)*
G04*
G04 Layer_Color=16711935*
%FSLAX44Y44*%
%MOMM*%
G71*
G04*
G04 #@! TF.SameCoordinates,3A1DB9EE-8D2C-4681-89B5-BFB965533D06*
G04*
G04*
G04 #@! TF.FilePolarity,Positive*
G04*
G01*
G75*
%ADD11C,0.1000*%
G36*
X56848Y354859D02*
X56892D01*
X56942Y354854D01*
X56992Y354843D01*
X57052Y354832D01*
X57185Y354804D01*
X57324Y354760D01*
X57468Y354699D01*
X57540Y354660D01*
X57606Y354616D01*
X57612D01*
X57623Y354605D01*
X57639Y354588D01*
X57667Y354571D01*
X57734Y354516D01*
X57811Y354439D01*
X57900Y354339D01*
X57994Y354223D01*
X58077Y354084D01*
X58154Y353929D01*
Y353924D01*
X58160Y353907D01*
X58171Y353885D01*
X58182Y353852D01*
X58199Y353813D01*
X58215Y353763D01*
X58232Y353702D01*
X58249Y353641D01*
X58265Y353569D01*
X58282Y353497D01*
X58315Y353331D01*
X58337Y353148D01*
X58343Y352955D01*
Y352949D01*
Y352927D01*
Y352899D01*
X58337Y352860D01*
Y352811D01*
X58332Y352750D01*
X58326Y352683D01*
X58315Y352611D01*
X58293Y352456D01*
X58254Y352285D01*
X58204Y352107D01*
X58138Y351930D01*
Y351925D01*
X58127Y351908D01*
X58116Y351886D01*
X58099Y351858D01*
X58077Y351819D01*
X58055Y351775D01*
X57988Y351675D01*
X57905Y351559D01*
X57800Y351443D01*
X57684Y351332D01*
X57545Y351232D01*
X57540D01*
X57529Y351222D01*
X57506Y351210D01*
X57479Y351194D01*
X57440Y351177D01*
X57401Y351155D01*
X57351Y351138D01*
X57296Y351116D01*
X57174Y351072D01*
X57036Y351033D01*
X56886Y351006D01*
X56809Y351000D01*
X56726Y350994D01*
X56670D01*
X56615Y351000D01*
X56537Y351011D01*
X56449Y351028D01*
X56355Y351050D01*
X56255Y351077D01*
X56161Y351122D01*
X56150Y351127D01*
X56122Y351144D01*
X56072Y351177D01*
X56017Y351216D01*
X55951Y351260D01*
X55884Y351321D01*
X55818Y351388D01*
X55757Y351460D01*
Y349660D01*
X55131D01*
Y354782D01*
X55701D01*
Y354300D01*
X55712Y354306D01*
X55735Y354339D01*
X55779Y354394D01*
X55834Y354455D01*
X55901Y354522D01*
X55978Y354594D01*
X56061Y354660D01*
X56156Y354721D01*
X56161D01*
X56167Y354726D01*
X56200Y354743D01*
X56255Y354765D01*
X56327Y354793D01*
X56416Y354821D01*
X56521Y354843D01*
X56643Y354859D01*
X56770Y354865D01*
X56814D01*
X56848Y354859D01*
D02*
G37*
G36*
X52988D02*
X53021D01*
X53105Y354848D01*
X53199Y354837D01*
X53304Y354815D01*
X53409Y354782D01*
X53514Y354743D01*
X53520D01*
X53525Y354738D01*
X53559Y354721D01*
X53608Y354693D01*
X53675Y354660D01*
X53741Y354610D01*
X53813Y354560D01*
X53880Y354500D01*
X53935Y354427D01*
X53941Y354416D01*
X53957Y354394D01*
X53979Y354350D01*
X54013Y354295D01*
X54046Y354228D01*
X54074Y354151D01*
X54107Y354062D01*
X54129Y353962D01*
Y353957D01*
X54134Y353929D01*
X54140Y353885D01*
X54151Y353824D01*
X54156Y353741D01*
Y353691D01*
X54162Y353636D01*
Y353575D01*
X54168Y353503D01*
Y353431D01*
Y353353D01*
Y351077D01*
X53542D01*
Y353331D01*
Y353337D01*
Y353348D01*
Y353370D01*
Y353392D01*
Y353425D01*
X53536Y353464D01*
X53531Y353547D01*
X53525Y353641D01*
X53509Y353735D01*
X53492Y353824D01*
X53464Y353901D01*
X53459Y353913D01*
X53448Y353935D01*
X53431Y353968D01*
X53404Y354012D01*
X53370Y354062D01*
X53326Y354112D01*
X53271Y354162D01*
X53204Y354206D01*
X53199Y354212D01*
X53171Y354223D01*
X53132Y354245D01*
X53082Y354267D01*
X53016Y354283D01*
X52944Y354306D01*
X52861Y354317D01*
X52767Y354322D01*
X52728D01*
X52700Y354317D01*
X52667D01*
X52623Y354311D01*
X52529Y354289D01*
X52423Y354261D01*
X52307Y354217D01*
X52191Y354151D01*
X52130Y354112D01*
X52074Y354068D01*
X52069Y354062D01*
X52063Y354057D01*
X52047Y354040D01*
X52030Y354018D01*
X52008Y353984D01*
X51986Y353951D01*
X51958Y353907D01*
X51931Y353852D01*
X51903Y353791D01*
X51875Y353719D01*
X51853Y353641D01*
X51831Y353553D01*
X51814Y353453D01*
X51798Y353348D01*
X51792Y353226D01*
X51787Y353099D01*
Y351077D01*
X51161D01*
Y354782D01*
X51726D01*
Y354250D01*
X51731Y354256D01*
X51742Y354278D01*
X51770Y354306D01*
X51803Y354344D01*
X51842Y354394D01*
X51892Y354444D01*
X51953Y354500D01*
X52025Y354560D01*
X52102Y354616D01*
X52191Y354671D01*
X52285Y354721D01*
X52390Y354771D01*
X52506Y354810D01*
X52628Y354837D01*
X52761Y354859D01*
X52900Y354865D01*
X52955D01*
X52988Y354859D01*
D02*
G37*
G36*
X45208D02*
X45258Y354854D01*
X45308Y354848D01*
X45369Y354837D01*
X45435Y354826D01*
X45568Y354787D01*
X45712Y354732D01*
X45779Y354699D01*
X45845Y354660D01*
X45912Y354610D01*
X45967Y354555D01*
X45973Y354549D01*
X45978Y354538D01*
X45995Y354522D01*
X46011Y354500D01*
X46039Y354466D01*
X46061Y354427D01*
X46089Y354378D01*
X46116Y354322D01*
X46144Y354261D01*
X46172Y354195D01*
X46200Y354117D01*
X46222Y354034D01*
X46238Y353940D01*
X46255Y353841D01*
X46260Y353735D01*
X46266Y353619D01*
Y351077D01*
X45640D01*
Y353409D01*
Y353414D01*
Y353425D01*
Y353447D01*
Y353470D01*
X45635Y353536D01*
Y353619D01*
X45624Y353708D01*
X45613Y353796D01*
X45602Y353879D01*
X45579Y353951D01*
Y353957D01*
X45568Y353979D01*
X45552Y354007D01*
X45530Y354045D01*
X45496Y354090D01*
X45463Y354134D01*
X45413Y354178D01*
X45358Y354217D01*
X45352Y354223D01*
X45330Y354234D01*
X45297Y354250D01*
X45253Y354272D01*
X45197Y354289D01*
X45131Y354306D01*
X45059Y354317D01*
X44981Y354322D01*
X44943D01*
X44915Y354317D01*
X44882D01*
X44843Y354311D01*
X44754Y354289D01*
X44649Y354261D01*
X44538Y354212D01*
X44433Y354151D01*
X44378Y354106D01*
X44328Y354062D01*
Y354057D01*
X44317Y354051D01*
X44306Y354034D01*
X44289Y354012D01*
X44267Y353984D01*
X44245Y353951D01*
X44223Y353907D01*
X44201Y353863D01*
X44173Y353807D01*
X44151Y353746D01*
X44129Y353675D01*
X44106Y353602D01*
X44090Y353519D01*
X44079Y353425D01*
X44073Y353331D01*
X44068Y353226D01*
Y351077D01*
X43442D01*
Y353481D01*
Y353486D01*
Y353497D01*
Y353519D01*
Y353553D01*
X43436Y353586D01*
Y353625D01*
X43425Y353719D01*
X43403Y353818D01*
X43376Y353924D01*
X43337Y354023D01*
X43287Y354112D01*
X43281Y354123D01*
X43259Y354145D01*
X43221Y354178D01*
X43171Y354217D01*
X43099Y354256D01*
X43016Y354289D01*
X42910Y354311D01*
X42789Y354322D01*
X42744D01*
X42695Y354317D01*
X42628Y354306D01*
X42551Y354289D01*
X42467Y354261D01*
X42384Y354228D01*
X42296Y354178D01*
X42285Y354173D01*
X42257Y354151D01*
X42218Y354123D01*
X42174Y354073D01*
X42119Y354018D01*
X42063Y353946D01*
X42014Y353863D01*
X41969Y353769D01*
Y353763D01*
X41964Y353758D01*
X41958Y353741D01*
X41953Y353719D01*
X41947Y353691D01*
X41936Y353658D01*
X41930Y353619D01*
X41919Y353575D01*
X41908Y353519D01*
X41903Y353464D01*
X41892Y353403D01*
X41886Y353331D01*
X41881Y353259D01*
X41875Y353176D01*
X41870Y353093D01*
Y352999D01*
Y351077D01*
X41244D01*
Y354782D01*
X41803D01*
Y354267D01*
X41814Y354272D01*
X41836Y354306D01*
X41875Y354356D01*
X41930Y354416D01*
X41997Y354488D01*
X42074Y354560D01*
X42163Y354632D01*
X42268Y354699D01*
X42274D01*
X42279Y354704D01*
X42296Y354715D01*
X42318Y354726D01*
X42346Y354738D01*
X42379Y354754D01*
X42456Y354782D01*
X42556Y354815D01*
X42667Y354837D01*
X42794Y354859D01*
X42927Y354865D01*
X42993D01*
X43032Y354859D01*
X43071Y354854D01*
X43165Y354843D01*
X43270Y354821D01*
X43381Y354793D01*
X43492Y354749D01*
X43597Y354693D01*
X43603D01*
X43608Y354688D01*
X43641Y354660D01*
X43686Y354621D01*
X43747Y354571D01*
X43808Y354500D01*
X43868Y354422D01*
X43924Y354328D01*
X43974Y354217D01*
X43979Y354223D01*
X43996Y354245D01*
X44018Y354278D01*
X44057Y354317D01*
X44095Y354367D01*
X44151Y354422D01*
X44212Y354483D01*
X44284Y354544D01*
X44361Y354599D01*
X44450Y354660D01*
X44544Y354715D01*
X44644Y354765D01*
X44754Y354804D01*
X44871Y354837D01*
X44992Y354859D01*
X45120Y354865D01*
X45175D01*
X45208Y354859D01*
D02*
G37*
G36*
X62086Y351077D02*
X61526D01*
Y351620D01*
X61521Y351615D01*
X61504Y351592D01*
X61482Y351565D01*
X61449Y351521D01*
X61405Y351476D01*
X61349Y351421D01*
X61288Y351365D01*
X61217Y351310D01*
X61133Y351249D01*
X61045Y351194D01*
X60951Y351138D01*
X60845Y351094D01*
X60729Y351050D01*
X60613Y351022D01*
X60486Y351000D01*
X60347Y350994D01*
X60292D01*
X60231Y351000D01*
X60148Y351011D01*
X60054Y351022D01*
X59948Y351044D01*
X59843Y351077D01*
X59732Y351116D01*
X59727D01*
X59721Y351122D01*
X59688Y351138D01*
X59638Y351166D01*
X59572Y351205D01*
X59506Y351249D01*
X59433Y351305D01*
X59367Y351365D01*
X59312Y351432D01*
X59306Y351443D01*
X59289Y351465D01*
X59267Y351509D01*
X59240Y351565D01*
X59207Y351631D01*
X59173Y351709D01*
X59146Y351797D01*
X59118Y351897D01*
Y351908D01*
X59112Y351930D01*
X59107Y351980D01*
X59101Y352041D01*
X59096Y352124D01*
X59090Y352224D01*
X59085Y352346D01*
Y352484D01*
Y354782D01*
X59710D01*
Y352728D01*
Y352722D01*
Y352705D01*
Y352683D01*
Y352650D01*
Y352606D01*
Y352561D01*
X59716Y352462D01*
Y352351D01*
X59727Y352240D01*
X59732Y352141D01*
X59738Y352096D01*
X59744Y352063D01*
X59749Y352052D01*
X59755Y352024D01*
X59771Y351974D01*
X59799Y351919D01*
X59832Y351858D01*
X59876Y351797D01*
X59932Y351731D01*
X59998Y351675D01*
X60009Y351670D01*
X60031Y351653D01*
X60076Y351631D01*
X60131Y351609D01*
X60198Y351581D01*
X60281Y351559D01*
X60375Y351543D01*
X60475Y351537D01*
X60524D01*
X60574Y351543D01*
X60646Y351554D01*
X60729Y351570D01*
X60818Y351598D01*
X60906Y351631D01*
X61000Y351681D01*
X61006D01*
X61012Y351687D01*
X61039Y351709D01*
X61084Y351742D01*
X61139Y351786D01*
X61194Y351842D01*
X61255Y351908D01*
X61311Y351986D01*
X61355Y352074D01*
Y352080D01*
X61360Y352085D01*
X61366Y352102D01*
X61371Y352118D01*
X61377Y352146D01*
X61388Y352179D01*
X61399Y352213D01*
X61410Y352257D01*
X61427Y352362D01*
X61444Y352484D01*
X61455Y352628D01*
X61460Y352794D01*
Y354782D01*
X62086D01*
Y351077D01*
D02*
G37*
G36*
X26758Y355524D02*
X24715D01*
X24444Y354151D01*
X24450Y354156D01*
X24466Y354167D01*
X24488Y354178D01*
X24521Y354201D01*
X24566Y354223D01*
X24616Y354250D01*
X24671Y354283D01*
X24737Y354311D01*
X24804Y354339D01*
X24881Y354372D01*
X25042Y354422D01*
X25131Y354444D01*
X25219Y354461D01*
X25313Y354466D01*
X25407Y354472D01*
X25435D01*
X25474Y354466D01*
X25518D01*
X25573Y354455D01*
X25640Y354450D01*
X25717Y354433D01*
X25795Y354416D01*
X25884Y354389D01*
X25972Y354361D01*
X26066Y354322D01*
X26161Y354278D01*
X26255Y354223D01*
X26349Y354162D01*
X26443Y354090D01*
X26531Y354007D01*
X26537Y354001D01*
X26554Y353984D01*
X26576Y353957D01*
X26603Y353924D01*
X26642Y353879D01*
X26681Y353818D01*
X26720Y353758D01*
X26764Y353685D01*
X26808Y353602D01*
X26847Y353508D01*
X26891Y353414D01*
X26925Y353303D01*
X26952Y353193D01*
X26974Y353071D01*
X26991Y352943D01*
X26997Y352811D01*
Y352805D01*
Y352777D01*
Y352744D01*
X26991Y352694D01*
X26985Y352634D01*
X26974Y352567D01*
X26963Y352490D01*
X26947Y352401D01*
X26925Y352312D01*
X26897Y352213D01*
X26864Y352113D01*
X26825Y352013D01*
X26781Y351914D01*
X26725Y351808D01*
X26664Y351709D01*
X26592Y351615D01*
X26587Y351609D01*
X26570Y351587D01*
X26542Y351559D01*
X26504Y351521D01*
X26454Y351471D01*
X26393Y351421D01*
X26321Y351360D01*
X26238Y351305D01*
X26149Y351249D01*
X26050Y351188D01*
X25939Y351138D01*
X25817Y351094D01*
X25690Y351050D01*
X25551Y351022D01*
X25407Y351000D01*
X25252Y350994D01*
X25186D01*
X25136Y351000D01*
X25075Y351006D01*
X25009Y351017D01*
X24931Y351028D01*
X24848Y351044D01*
X24760Y351061D01*
X24665Y351089D01*
X24571Y351122D01*
X24477Y351161D01*
X24383Y351205D01*
X24289Y351255D01*
X24200Y351316D01*
X24112Y351382D01*
X24106Y351388D01*
X24095Y351399D01*
X24073Y351421D01*
X24045Y351454D01*
X24007Y351493D01*
X23968Y351537D01*
X23929Y351592D01*
X23885Y351659D01*
X23840Y351725D01*
X23796Y351803D01*
X23757Y351892D01*
X23719Y351980D01*
X23680Y352080D01*
X23652Y352185D01*
X23630Y352301D01*
X23613Y352417D01*
X24272Y352467D01*
Y352462D01*
X24278Y352445D01*
X24283Y352423D01*
X24289Y352390D01*
X24294Y352351D01*
X24311Y352301D01*
X24339Y352196D01*
X24383Y352080D01*
X24444Y351958D01*
X24516Y351847D01*
X24560Y351797D01*
X24604Y351748D01*
X24610D01*
X24616Y351736D01*
X24632Y351725D01*
X24654Y351709D01*
X24710Y351670D01*
X24787Y351631D01*
X24881Y351587D01*
X24992Y351548D01*
X25114Y351521D01*
X25180Y351515D01*
X25252Y351509D01*
X25297D01*
X25330Y351515D01*
X25369Y351521D01*
X25413Y351526D01*
X25518Y351554D01*
X25640Y351592D01*
X25701Y351620D01*
X25767Y351653D01*
X25834Y351692D01*
X25895Y351736D01*
X25956Y351786D01*
X26016Y351847D01*
X26022Y351853D01*
X26028Y351864D01*
X26044Y351880D01*
X26066Y351908D01*
X26089Y351947D01*
X26116Y351986D01*
X26144Y352035D01*
X26177Y352091D01*
X26205Y352152D01*
X26232Y352218D01*
X26260Y352296D01*
X26282Y352373D01*
X26304Y352462D01*
X26321Y352556D01*
X26327Y352650D01*
X26332Y352755D01*
Y352761D01*
Y352777D01*
Y352805D01*
X26327Y352844D01*
X26321Y352888D01*
X26316Y352943D01*
X26304Y352999D01*
X26293Y353065D01*
X26260Y353198D01*
X26205Y353342D01*
X26172Y353409D01*
X26127Y353475D01*
X26083Y353542D01*
X26028Y353602D01*
X26022Y353608D01*
X26016Y353614D01*
X25994Y353630D01*
X25972Y353652D01*
X25944Y353675D01*
X25906Y353702D01*
X25867Y353730D01*
X25817Y353763D01*
X25762Y353791D01*
X25706Y353818D01*
X25568Y353868D01*
X25496Y353890D01*
X25413Y353907D01*
X25330Y353913D01*
X25241Y353918D01*
X25191D01*
X25131Y353913D01*
X25059Y353901D01*
X24970Y353885D01*
X24876Y353857D01*
X24782Y353824D01*
X24688Y353774D01*
X24676Y353769D01*
X24649Y353752D01*
X24604Y353719D01*
X24549Y353680D01*
X24494Y353625D01*
X24427Y353564D01*
X24366Y353492D01*
X24311Y353414D01*
X23724Y353497D01*
X24217Y356122D01*
X26758D01*
Y355524D01*
D02*
G37*
G36*
X50048Y351077D02*
X49372D01*
Y356188D01*
X50048D01*
Y351077D01*
D02*
G37*
G36*
X37905Y354350D02*
X37910Y354356D01*
X37927Y354372D01*
X37949Y354400D01*
X37982Y354433D01*
X38027Y354472D01*
X38077Y354511D01*
X38137Y354560D01*
X38209Y354610D01*
X38281Y354655D01*
X38364Y354704D01*
X38459Y354743D01*
X38553Y354787D01*
X38658Y354815D01*
X38769Y354843D01*
X38885Y354859D01*
X39007Y354865D01*
X39073D01*
X39112Y354859D01*
X39151Y354854D01*
X39250Y354843D01*
X39361Y354826D01*
X39477Y354793D01*
X39599Y354754D01*
X39715Y354699D01*
X39721D01*
X39727Y354693D01*
X39743Y354682D01*
X39765Y354671D01*
X39821Y354632D01*
X39887Y354583D01*
X39954Y354522D01*
X40031Y354444D01*
X40098Y354350D01*
X40153Y354250D01*
Y354245D01*
X40159Y354239D01*
X40164Y354223D01*
X40175Y354201D01*
X40186Y354167D01*
X40197Y354134D01*
X40208Y354090D01*
X40219Y354040D01*
X40230Y353984D01*
X40242Y353924D01*
X40253Y353857D01*
X40264Y353780D01*
X40275Y353702D01*
X40280Y353614D01*
X40286Y353519D01*
Y353420D01*
Y351077D01*
X39660D01*
Y353420D01*
Y353425D01*
Y353442D01*
Y353464D01*
X39655Y353497D01*
Y353536D01*
X39649Y353580D01*
X39632Y353680D01*
X39610Y353796D01*
X39571Y353907D01*
X39522Y354018D01*
X39494Y354062D01*
X39455Y354106D01*
X39444Y354117D01*
X39416Y354140D01*
X39372Y354173D01*
X39306Y354217D01*
X39223Y354256D01*
X39129Y354289D01*
X39012Y354311D01*
X38879Y354322D01*
X38835D01*
X38780Y354317D01*
X38708Y354306D01*
X38630Y354283D01*
X38542Y354261D01*
X38447Y354223D01*
X38353Y354173D01*
X38342Y354167D01*
X38315Y354145D01*
X38270Y354112D01*
X38221Y354068D01*
X38160Y354012D01*
X38104Y353946D01*
X38049Y353868D01*
X38005Y353780D01*
X37999Y353769D01*
X37993Y353752D01*
X37988Y353735D01*
X37971Y353680D01*
X37955Y353602D01*
X37938Y353508D01*
X37922Y353392D01*
X37910Y353254D01*
X37905Y353099D01*
Y351077D01*
X37279D01*
Y356188D01*
X37905D01*
Y354350D01*
D02*
G37*
G36*
X63802Y354782D02*
X64439D01*
Y354295D01*
X63802D01*
Y352124D01*
Y352118D01*
Y352113D01*
Y352080D01*
Y352035D01*
X63808Y351980D01*
Y351925D01*
X63819Y351869D01*
X63825Y351819D01*
X63836Y351781D01*
Y351775D01*
X63841Y351770D01*
X63863Y351736D01*
X63896Y351698D01*
X63941Y351659D01*
X63946D01*
X63957Y351653D01*
X63974Y351648D01*
X63996Y351637D01*
X64029Y351631D01*
X64063Y351620D01*
X64107Y351615D01*
X64201D01*
X64234Y351620D01*
X64273D01*
X64323Y351626D01*
X64378Y351631D01*
X64439Y351637D01*
X64522Y351083D01*
X64511D01*
X64478Y351072D01*
X64428Y351066D01*
X64362Y351055D01*
X64290Y351044D01*
X64212Y351039D01*
X64046Y351028D01*
X63991D01*
X63930Y351033D01*
X63852Y351039D01*
X63764Y351055D01*
X63675Y351072D01*
X63592Y351100D01*
X63514Y351133D01*
X63509Y351138D01*
X63487Y351155D01*
X63453Y351177D01*
X63409Y351210D01*
X63365Y351249D01*
X63321Y351299D01*
X63282Y351354D01*
X63249Y351415D01*
X63243Y351426D01*
X63238Y351454D01*
X63232Y351476D01*
X63226Y351504D01*
X63221Y351537D01*
X63215Y351576D01*
X63204Y351620D01*
X63199Y351675D01*
X63193Y351736D01*
X63188Y351803D01*
X63182Y351880D01*
Y351964D01*
X63177Y352058D01*
Y352157D01*
Y354295D01*
X62712D01*
Y354782D01*
X63177D01*
Y355695D01*
X63802Y356072D01*
Y354782D01*
D02*
G37*
G36*
X34162Y356271D02*
X34228Y356266D01*
X34300Y356260D01*
X34378Y356249D01*
X34466Y356233D01*
X34566Y356216D01*
X34666Y356194D01*
X34771Y356166D01*
X34881Y356133D01*
X34992Y356094D01*
X35103Y356050D01*
X35208Y356000D01*
X35319Y355939D01*
X35324Y355934D01*
X35347Y355923D01*
X35374Y355906D01*
X35413Y355878D01*
X35463Y355845D01*
X35513Y355801D01*
X35574Y355751D01*
X35640Y355695D01*
X35712Y355629D01*
X35784Y355557D01*
X35856Y355480D01*
X35928Y355396D01*
X35995Y355308D01*
X36067Y355208D01*
X36127Y355103D01*
X36188Y354992D01*
X36194Y354987D01*
X36199Y354965D01*
X36216Y354931D01*
X36233Y354887D01*
X36260Y354832D01*
X36282Y354760D01*
X36310Y354682D01*
X36338Y354594D01*
X36365Y354500D01*
X36393Y354394D01*
X36421Y354278D01*
X36443Y354162D01*
X36460Y354034D01*
X36476Y353901D01*
X36482Y353769D01*
X36487Y353625D01*
Y353614D01*
Y353591D01*
Y353547D01*
X36482Y353492D01*
X36476Y353425D01*
X36471Y353348D01*
X36460Y353259D01*
X36449Y353159D01*
X36432Y353054D01*
X36410Y352943D01*
X36388Y352827D01*
X36354Y352711D01*
X36316Y352589D01*
X36277Y352473D01*
X36227Y352351D01*
X36172Y352235D01*
X36166Y352229D01*
X36155Y352207D01*
X36139Y352174D01*
X36116Y352135D01*
X36083Y352085D01*
X36044Y352024D01*
X35995Y351958D01*
X35945Y351886D01*
X35884Y351814D01*
X35817Y351736D01*
X35740Y351659D01*
X35662Y351581D01*
X35579Y351509D01*
X35485Y351437D01*
X35385Y351365D01*
X35280Y351305D01*
X35275Y351299D01*
X35252Y351293D01*
X35225Y351277D01*
X35180Y351255D01*
X35125Y351232D01*
X35064Y351205D01*
X34992Y351177D01*
X34909Y351149D01*
X34821Y351122D01*
X34727Y351094D01*
X34621Y351066D01*
X34516Y351044D01*
X34283Y351006D01*
X34162Y351000D01*
X34040Y350994D01*
X33968D01*
X33918Y351000D01*
X33857Y351006D01*
X33780Y351011D01*
X33702Y351022D01*
X33608Y351039D01*
X33514Y351055D01*
X33409Y351077D01*
X33303Y351105D01*
X33193Y351138D01*
X33082Y351177D01*
X32971Y351227D01*
X32861Y351277D01*
X32750Y351338D01*
X32744Y351343D01*
X32728Y351354D01*
X32694Y351376D01*
X32656Y351404D01*
X32611Y351437D01*
X32556Y351482D01*
X32495Y351532D01*
X32429Y351587D01*
X32357Y351653D01*
X32290Y351725D01*
X32218Y351803D01*
X32146Y351886D01*
X32074Y351980D01*
X32008Y352074D01*
X31947Y352179D01*
X31886Y352290D01*
X31880Y352296D01*
X31875Y352318D01*
X31858Y352351D01*
X31842Y352395D01*
X31820Y352451D01*
X31797Y352517D01*
X31770Y352589D01*
X31742Y352678D01*
X31714Y352766D01*
X31687Y352866D01*
X31664Y352971D01*
X31642Y353082D01*
X31609Y353315D01*
X31604Y353442D01*
X31598Y353564D01*
Y353569D01*
Y353580D01*
Y353597D01*
Y353619D01*
X31604Y353652D01*
Y353685D01*
X31609Y353774D01*
X31620Y353879D01*
X31637Y354007D01*
X31653Y354140D01*
X31681Y354289D01*
X31720Y354450D01*
X31764Y354610D01*
X31820Y354776D01*
X31886Y354943D01*
X31963Y355109D01*
X32052Y355264D01*
X32157Y355419D01*
X32279Y355557D01*
X32285Y355563D01*
X32312Y355590D01*
X32351Y355624D01*
X32401Y355668D01*
X32473Y355723D01*
X32550Y355784D01*
X32645Y355851D01*
X32755Y355917D01*
X32877Y355984D01*
X33010Y356050D01*
X33154Y356111D01*
X33314Y356166D01*
X33481Y356211D01*
X33658Y356244D01*
X33846Y356271D01*
X34045Y356277D01*
X34112D01*
X34162Y356271D01*
D02*
G37*
G36*
X29350Y356199D02*
X29389Y356194D01*
X29488Y356183D01*
X29599Y356166D01*
X29721Y356133D01*
X29843Y356094D01*
X29964Y356039D01*
X29970D01*
X29981Y356033D01*
X29998Y356022D01*
X30020Y356006D01*
X30075Y355972D01*
X30147Y355917D01*
X30230Y355851D01*
X30313Y355768D01*
X30402Y355668D01*
X30480Y355557D01*
Y355552D01*
X30491Y355541D01*
X30496Y355524D01*
X30513Y355502D01*
X30529Y355474D01*
X30552Y355435D01*
X30568Y355391D01*
X30596Y355347D01*
X30646Y355236D01*
X30695Y355109D01*
X30751Y354959D01*
X30795Y354799D01*
Y354793D01*
X30801Y354776D01*
X30806Y354754D01*
X30812Y354715D01*
X30823Y354671D01*
X30834Y354616D01*
X30845Y354555D01*
X30856Y354483D01*
X30861Y354400D01*
X30873Y354311D01*
X30884Y354212D01*
X30895Y354106D01*
X30900Y353990D01*
X30906Y353868D01*
X30911Y353735D01*
Y353597D01*
Y353586D01*
Y353558D01*
Y353508D01*
Y353447D01*
X30906Y353370D01*
X30900Y353287D01*
X30895Y353187D01*
X30889Y353082D01*
X30878Y352966D01*
X30867Y352849D01*
X30834Y352606D01*
X30784Y352368D01*
X30756Y352251D01*
X30723Y352146D01*
Y352141D01*
X30712Y352124D01*
X30707Y352091D01*
X30690Y352058D01*
X30668Y352008D01*
X30646Y351958D01*
X30618Y351897D01*
X30585Y351831D01*
X30507Y351692D01*
X30413Y351554D01*
X30302Y351415D01*
X30236Y351354D01*
X30169Y351293D01*
X30164Y351288D01*
X30153Y351282D01*
X30131Y351266D01*
X30103Y351249D01*
X30070Y351227D01*
X30025Y351199D01*
X29976Y351172D01*
X29915Y351144D01*
X29854Y351116D01*
X29782Y351089D01*
X29710Y351066D01*
X29627Y351039D01*
X29538Y351022D01*
X29444Y351006D01*
X29350Y351000D01*
X29245Y350994D01*
X29211D01*
X29173Y351000D01*
X29123Y351006D01*
X29062Y351011D01*
X28990Y351022D01*
X28912Y351039D01*
X28824Y351061D01*
X28735Y351089D01*
X28641Y351122D01*
X28541Y351166D01*
X28447Y351216D01*
X28353Y351277D01*
X28259Y351349D01*
X28170Y351426D01*
X28087Y351521D01*
X28082Y351526D01*
X28065Y351548D01*
X28043Y351587D01*
X28010Y351642D01*
X27971Y351714D01*
X27927Y351797D01*
X27882Y351903D01*
X27838Y352019D01*
X27788Y352157D01*
X27744Y352307D01*
X27700Y352478D01*
X27661Y352667D01*
X27628Y352872D01*
X27606Y353093D01*
X27589Y353337D01*
X27583Y353597D01*
Y353608D01*
Y353636D01*
Y353685D01*
X27589Y353746D01*
Y353824D01*
X27595Y353913D01*
X27600Y354012D01*
X27606Y354117D01*
X27617Y354234D01*
X27628Y354350D01*
X27661Y354594D01*
X27705Y354832D01*
X27733Y354948D01*
X27766Y355053D01*
Y355059D01*
X27777Y355075D01*
X27788Y355109D01*
X27799Y355147D01*
X27822Y355192D01*
X27844Y355247D01*
X27871Y355302D01*
X27905Y355369D01*
X27982Y355507D01*
X28082Y355646D01*
X28193Y355784D01*
X28254Y355845D01*
X28320Y355906D01*
X28326Y355911D01*
X28337Y355917D01*
X28359Y355934D01*
X28386Y355950D01*
X28420Y355978D01*
X28464Y356000D01*
X28514Y356028D01*
X28575Y356055D01*
X28636Y356083D01*
X28708Y356111D01*
X28785Y356138D01*
X28863Y356161D01*
X28951Y356177D01*
X29045Y356194D01*
X29145Y356199D01*
X29245Y356205D01*
X29311D01*
X29350Y356199D01*
D02*
G37*
G36*
X287848Y354859D02*
X287892D01*
X287942Y354854D01*
X287992Y354843D01*
X288053Y354832D01*
X288185Y354804D01*
X288324Y354760D01*
X288468Y354699D01*
X288540Y354660D01*
X288606Y354616D01*
X288612D01*
X288623Y354605D01*
X288639Y354588D01*
X288667Y354571D01*
X288734Y354516D01*
X288811Y354439D01*
X288900Y354339D01*
X288994Y354223D01*
X289077Y354084D01*
X289154Y353929D01*
Y353924D01*
X289160Y353907D01*
X289171Y353885D01*
X289182Y353852D01*
X289199Y353813D01*
X289215Y353763D01*
X289232Y353702D01*
X289249Y353641D01*
X289265Y353569D01*
X289282Y353497D01*
X289315Y353331D01*
X289337Y353148D01*
X289343Y352955D01*
Y352949D01*
Y352927D01*
Y352899D01*
X289337Y352860D01*
Y352811D01*
X289332Y352750D01*
X289326Y352683D01*
X289315Y352611D01*
X289293Y352456D01*
X289254Y352285D01*
X289204Y352107D01*
X289138Y351930D01*
Y351925D01*
X289127Y351908D01*
X289116Y351886D01*
X289099Y351858D01*
X289077Y351819D01*
X289055Y351775D01*
X288988Y351675D01*
X288905Y351559D01*
X288800Y351443D01*
X288684Y351332D01*
X288545Y351232D01*
X288540D01*
X288529Y351222D01*
X288507Y351210D01*
X288479Y351194D01*
X288440Y351177D01*
X288401Y351155D01*
X288351Y351138D01*
X288296Y351116D01*
X288174Y351072D01*
X288036Y351033D01*
X287886Y351006D01*
X287809Y351000D01*
X287726Y350994D01*
X287670D01*
X287615Y351000D01*
X287537Y351011D01*
X287449Y351028D01*
X287355Y351050D01*
X287255Y351077D01*
X287161Y351122D01*
X287150Y351127D01*
X287122Y351144D01*
X287072Y351177D01*
X287017Y351216D01*
X286951Y351260D01*
X286884Y351321D01*
X286818Y351388D01*
X286757Y351460D01*
Y349660D01*
X286131D01*
Y354782D01*
X286701D01*
Y354300D01*
X286712Y354306D01*
X286735Y354339D01*
X286779Y354394D01*
X286834Y354455D01*
X286901Y354522D01*
X286978Y354594D01*
X287061Y354660D01*
X287155Y354721D01*
X287161D01*
X287167Y354726D01*
X287200Y354743D01*
X287255Y354765D01*
X287327Y354793D01*
X287416Y354821D01*
X287521Y354843D01*
X287643Y354859D01*
X287770Y354865D01*
X287814D01*
X287848Y354859D01*
D02*
G37*
G36*
X283988D02*
X284021D01*
X284104Y354848D01*
X284199Y354837D01*
X284304Y354815D01*
X284409Y354782D01*
X284514Y354743D01*
X284520D01*
X284525Y354738D01*
X284559Y354721D01*
X284608Y354693D01*
X284675Y354660D01*
X284741Y354610D01*
X284813Y354560D01*
X284880Y354500D01*
X284935Y354427D01*
X284941Y354416D01*
X284957Y354394D01*
X284979Y354350D01*
X285013Y354295D01*
X285046Y354228D01*
X285074Y354151D01*
X285107Y354062D01*
X285129Y353962D01*
Y353957D01*
X285134Y353929D01*
X285140Y353885D01*
X285151Y353824D01*
X285156Y353741D01*
Y353691D01*
X285162Y353636D01*
Y353575D01*
X285168Y353503D01*
Y353431D01*
Y353353D01*
Y351077D01*
X284542D01*
Y353331D01*
Y353337D01*
Y353348D01*
Y353370D01*
Y353392D01*
Y353425D01*
X284536Y353464D01*
X284531Y353547D01*
X284525Y353641D01*
X284509Y353735D01*
X284492Y353824D01*
X284464Y353901D01*
X284459Y353913D01*
X284448Y353935D01*
X284431Y353968D01*
X284403Y354012D01*
X284370Y354062D01*
X284326Y354112D01*
X284271Y354162D01*
X284204Y354206D01*
X284199Y354212D01*
X284171Y354223D01*
X284132Y354245D01*
X284082Y354267D01*
X284016Y354283D01*
X283944Y354306D01*
X283861Y354317D01*
X283767Y354322D01*
X283728D01*
X283700Y354317D01*
X283667D01*
X283623Y354311D01*
X283529Y354289D01*
X283423Y354261D01*
X283307Y354217D01*
X283191Y354151D01*
X283130Y354112D01*
X283074Y354068D01*
X283069Y354062D01*
X283064Y354057D01*
X283047Y354040D01*
X283030Y354018D01*
X283008Y353984D01*
X282986Y353951D01*
X282958Y353907D01*
X282931Y353852D01*
X282903Y353791D01*
X282875Y353719D01*
X282853Y353641D01*
X282831Y353553D01*
X282814Y353453D01*
X282798Y353348D01*
X282792Y353226D01*
X282787Y353099D01*
Y351077D01*
X282161D01*
Y354782D01*
X282726D01*
Y354250D01*
X282731Y354256D01*
X282742Y354278D01*
X282770Y354306D01*
X282803Y354344D01*
X282842Y354394D01*
X282892Y354444D01*
X282953Y354500D01*
X283025Y354560D01*
X283102Y354616D01*
X283191Y354671D01*
X283285Y354721D01*
X283390Y354771D01*
X283506Y354810D01*
X283628Y354837D01*
X283761Y354859D01*
X283900Y354865D01*
X283955D01*
X283988Y354859D01*
D02*
G37*
G36*
X276208D02*
X276258Y354854D01*
X276308Y354848D01*
X276369Y354837D01*
X276435Y354826D01*
X276568Y354787D01*
X276712Y354732D01*
X276779Y354699D01*
X276845Y354660D01*
X276912Y354610D01*
X276967Y354555D01*
X276973Y354549D01*
X276978Y354538D01*
X276995Y354522D01*
X277011Y354500D01*
X277039Y354466D01*
X277061Y354427D01*
X277089Y354378D01*
X277117Y354322D01*
X277144Y354261D01*
X277172Y354195D01*
X277200Y354117D01*
X277222Y354034D01*
X277238Y353940D01*
X277255Y353841D01*
X277260Y353735D01*
X277266Y353619D01*
Y351077D01*
X276640D01*
Y353409D01*
Y353414D01*
Y353425D01*
Y353447D01*
Y353470D01*
X276635Y353536D01*
Y353619D01*
X276624Y353708D01*
X276613Y353796D01*
X276602Y353879D01*
X276579Y353951D01*
Y353957D01*
X276568Y353979D01*
X276552Y354007D01*
X276530Y354045D01*
X276496Y354090D01*
X276463Y354134D01*
X276413Y354178D01*
X276358Y354217D01*
X276352Y354223D01*
X276330Y354234D01*
X276297Y354250D01*
X276253Y354272D01*
X276197Y354289D01*
X276131Y354306D01*
X276059Y354317D01*
X275981Y354322D01*
X275943D01*
X275915Y354317D01*
X275882D01*
X275843Y354311D01*
X275754Y354289D01*
X275649Y354261D01*
X275538Y354212D01*
X275433Y354151D01*
X275378Y354106D01*
X275328Y354062D01*
Y354057D01*
X275317Y354051D01*
X275306Y354034D01*
X275289Y354012D01*
X275267Y353984D01*
X275245Y353951D01*
X275223Y353907D01*
X275201Y353863D01*
X275173Y353807D01*
X275151Y353746D01*
X275129Y353675D01*
X275107Y353602D01*
X275090Y353519D01*
X275079Y353425D01*
X275073Y353331D01*
X275068Y353226D01*
Y351077D01*
X274442D01*
Y353481D01*
Y353486D01*
Y353497D01*
Y353519D01*
Y353553D01*
X274436Y353586D01*
Y353625D01*
X274425Y353719D01*
X274403Y353818D01*
X274376Y353924D01*
X274337Y354023D01*
X274287Y354112D01*
X274282Y354123D01*
X274259Y354145D01*
X274221Y354178D01*
X274171Y354217D01*
X274099Y354256D01*
X274016Y354289D01*
X273911Y354311D01*
X273789Y354322D01*
X273744D01*
X273694Y354317D01*
X273628Y354306D01*
X273551Y354289D01*
X273468Y354261D01*
X273384Y354228D01*
X273296Y354178D01*
X273285Y354173D01*
X273257Y354151D01*
X273218Y354123D01*
X273174Y354073D01*
X273119Y354018D01*
X273063Y353946D01*
X273013Y353863D01*
X272969Y353769D01*
Y353763D01*
X272964Y353758D01*
X272958Y353741D01*
X272952Y353719D01*
X272947Y353691D01*
X272936Y353658D01*
X272930Y353619D01*
X272919Y353575D01*
X272908Y353519D01*
X272903Y353464D01*
X272892Y353403D01*
X272886Y353331D01*
X272881Y353259D01*
X272875Y353176D01*
X272869Y353093D01*
Y352999D01*
Y351077D01*
X272244D01*
Y354782D01*
X272803D01*
Y354267D01*
X272814Y354272D01*
X272836Y354306D01*
X272875Y354356D01*
X272930Y354416D01*
X272997Y354488D01*
X273074Y354560D01*
X273163Y354632D01*
X273268Y354699D01*
X273274D01*
X273279Y354704D01*
X273296Y354715D01*
X273318Y354726D01*
X273346Y354738D01*
X273379Y354754D01*
X273456Y354782D01*
X273556Y354815D01*
X273667Y354837D01*
X273794Y354859D01*
X273927Y354865D01*
X273993D01*
X274032Y354859D01*
X274071Y354854D01*
X274165Y354843D01*
X274270Y354821D01*
X274381Y354793D01*
X274492Y354749D01*
X274597Y354693D01*
X274603D01*
X274608Y354688D01*
X274641Y354660D01*
X274686Y354621D01*
X274747Y354571D01*
X274807Y354500D01*
X274868Y354422D01*
X274924Y354328D01*
X274974Y354217D01*
X274979Y354223D01*
X274996Y354245D01*
X275018Y354278D01*
X275057Y354317D01*
X275095Y354367D01*
X275151Y354422D01*
X275212Y354483D01*
X275284Y354544D01*
X275361Y354599D01*
X275450Y354660D01*
X275544Y354715D01*
X275644Y354765D01*
X275754Y354804D01*
X275871Y354837D01*
X275993Y354859D01*
X276120Y354865D01*
X276175D01*
X276208Y354859D01*
D02*
G37*
G36*
X293086Y351077D02*
X292526D01*
Y351620D01*
X292521Y351615D01*
X292504Y351592D01*
X292482Y351565D01*
X292449Y351521D01*
X292405Y351476D01*
X292349Y351421D01*
X292288Y351365D01*
X292216Y351310D01*
X292133Y351249D01*
X292045Y351194D01*
X291951Y351138D01*
X291845Y351094D01*
X291729Y351050D01*
X291613Y351022D01*
X291486Y351000D01*
X291347Y350994D01*
X291292D01*
X291231Y351000D01*
X291148Y351011D01*
X291054Y351022D01*
X290948Y351044D01*
X290843Y351077D01*
X290732Y351116D01*
X290727D01*
X290721Y351122D01*
X290688Y351138D01*
X290638Y351166D01*
X290572Y351205D01*
X290506Y351249D01*
X290434Y351305D01*
X290367Y351365D01*
X290312Y351432D01*
X290306Y351443D01*
X290289Y351465D01*
X290267Y351509D01*
X290240Y351565D01*
X290207Y351631D01*
X290173Y351709D01*
X290145Y351797D01*
X290118Y351897D01*
Y351908D01*
X290112Y351930D01*
X290107Y351980D01*
X290101Y352041D01*
X290096Y352124D01*
X290090Y352224D01*
X290085Y352346D01*
Y352484D01*
Y354782D01*
X290710D01*
Y352728D01*
Y352722D01*
Y352705D01*
Y352683D01*
Y352650D01*
Y352606D01*
Y352561D01*
X290716Y352462D01*
Y352351D01*
X290727Y352240D01*
X290732Y352141D01*
X290738Y352096D01*
X290744Y352063D01*
X290749Y352052D01*
X290755Y352024D01*
X290771Y351974D01*
X290799Y351919D01*
X290832Y351858D01*
X290877Y351797D01*
X290932Y351731D01*
X290998Y351675D01*
X291009Y351670D01*
X291031Y351653D01*
X291076Y351631D01*
X291131Y351609D01*
X291198Y351581D01*
X291281Y351559D01*
X291375Y351543D01*
X291474Y351537D01*
X291524D01*
X291574Y351543D01*
X291646Y351554D01*
X291729Y351570D01*
X291818Y351598D01*
X291906Y351631D01*
X292001Y351681D01*
X292006D01*
X292012Y351687D01*
X292039Y351709D01*
X292084Y351742D01*
X292139Y351786D01*
X292194Y351842D01*
X292255Y351908D01*
X292311Y351986D01*
X292355Y352074D01*
Y352080D01*
X292360Y352085D01*
X292366Y352102D01*
X292372Y352118D01*
X292377Y352146D01*
X292388Y352179D01*
X292399Y352213D01*
X292410Y352257D01*
X292427Y352362D01*
X292444Y352484D01*
X292455Y352628D01*
X292460Y352794D01*
Y354782D01*
X293086D01*
Y351077D01*
D02*
G37*
G36*
X257759Y355524D02*
X255715D01*
X255444Y354151D01*
X255450Y354156D01*
X255466Y354167D01*
X255488Y354178D01*
X255521Y354201D01*
X255566Y354223D01*
X255616Y354250D01*
X255671Y354283D01*
X255737Y354311D01*
X255804Y354339D01*
X255881Y354372D01*
X256042Y354422D01*
X256131Y354444D01*
X256219Y354461D01*
X256313Y354466D01*
X256407Y354472D01*
X256435D01*
X256474Y354466D01*
X256518D01*
X256574Y354455D01*
X256640Y354450D01*
X256717Y354433D01*
X256795Y354416D01*
X256884Y354389D01*
X256972Y354361D01*
X257066Y354322D01*
X257160Y354278D01*
X257255Y354223D01*
X257349Y354162D01*
X257443Y354090D01*
X257531Y354007D01*
X257537Y354001D01*
X257554Y353984D01*
X257576Y353957D01*
X257603Y353924D01*
X257642Y353879D01*
X257681Y353818D01*
X257720Y353758D01*
X257764Y353685D01*
X257808Y353602D01*
X257847Y353508D01*
X257891Y353414D01*
X257925Y353303D01*
X257952Y353193D01*
X257974Y353071D01*
X257991Y352943D01*
X257997Y352811D01*
Y352805D01*
Y352777D01*
Y352744D01*
X257991Y352694D01*
X257985Y352634D01*
X257974Y352567D01*
X257963Y352490D01*
X257947Y352401D01*
X257925Y352312D01*
X257897Y352213D01*
X257864Y352113D01*
X257825Y352013D01*
X257781Y351914D01*
X257725Y351808D01*
X257664Y351709D01*
X257592Y351615D01*
X257587Y351609D01*
X257570Y351587D01*
X257542Y351559D01*
X257504Y351521D01*
X257454Y351471D01*
X257393Y351421D01*
X257321Y351360D01*
X257238Y351305D01*
X257149Y351249D01*
X257050Y351188D01*
X256939Y351138D01*
X256817Y351094D01*
X256690Y351050D01*
X256551Y351022D01*
X256407Y351000D01*
X256252Y350994D01*
X256186D01*
X256136Y351000D01*
X256075Y351006D01*
X256009Y351017D01*
X255931Y351028D01*
X255848Y351044D01*
X255760Y351061D01*
X255665Y351089D01*
X255571Y351122D01*
X255477Y351161D01*
X255383Y351205D01*
X255289Y351255D01*
X255200Y351316D01*
X255112Y351382D01*
X255106Y351388D01*
X255095Y351399D01*
X255073Y351421D01*
X255045Y351454D01*
X255007Y351493D01*
X254968Y351537D01*
X254929Y351592D01*
X254885Y351659D01*
X254840Y351725D01*
X254796Y351803D01*
X254757Y351892D01*
X254718Y351980D01*
X254680Y352080D01*
X254652Y352185D01*
X254630Y352301D01*
X254613Y352417D01*
X255272Y352467D01*
Y352462D01*
X255278Y352445D01*
X255283Y352423D01*
X255289Y352390D01*
X255294Y352351D01*
X255311Y352301D01*
X255339Y352196D01*
X255383Y352080D01*
X255444Y351958D01*
X255516Y351847D01*
X255560Y351797D01*
X255604Y351748D01*
X255610D01*
X255616Y351736D01*
X255632Y351725D01*
X255654Y351709D01*
X255710Y351670D01*
X255787Y351631D01*
X255881Y351587D01*
X255992Y351548D01*
X256114Y351521D01*
X256180Y351515D01*
X256252Y351509D01*
X256297D01*
X256330Y351515D01*
X256369Y351521D01*
X256413Y351526D01*
X256518Y351554D01*
X256640Y351592D01*
X256701Y351620D01*
X256767Y351653D01*
X256834Y351692D01*
X256895Y351736D01*
X256956Y351786D01*
X257017Y351847D01*
X257022Y351853D01*
X257028Y351864D01*
X257044Y351880D01*
X257066Y351908D01*
X257089Y351947D01*
X257116Y351986D01*
X257144Y352035D01*
X257177Y352091D01*
X257205Y352152D01*
X257232Y352218D01*
X257260Y352296D01*
X257282Y352373D01*
X257304Y352462D01*
X257321Y352556D01*
X257327Y352650D01*
X257332Y352755D01*
Y352761D01*
Y352777D01*
Y352805D01*
X257327Y352844D01*
X257321Y352888D01*
X257316Y352943D01*
X257304Y352999D01*
X257293Y353065D01*
X257260Y353198D01*
X257205Y353342D01*
X257171Y353409D01*
X257127Y353475D01*
X257083Y353542D01*
X257028Y353602D01*
X257022Y353608D01*
X257017Y353614D01*
X256994Y353630D01*
X256972Y353652D01*
X256945Y353675D01*
X256906Y353702D01*
X256867Y353730D01*
X256817Y353763D01*
X256762Y353791D01*
X256706Y353818D01*
X256568Y353868D01*
X256496Y353890D01*
X256413Y353907D01*
X256330Y353913D01*
X256241Y353918D01*
X256191D01*
X256131Y353913D01*
X256059Y353901D01*
X255970Y353885D01*
X255876Y353857D01*
X255782Y353824D01*
X255688Y353774D01*
X255676Y353769D01*
X255649Y353752D01*
X255604Y353719D01*
X255549Y353680D01*
X255494Y353625D01*
X255427Y353564D01*
X255366Y353492D01*
X255311Y353414D01*
X254724Y353497D01*
X255217Y356122D01*
X257759D01*
Y355524D01*
D02*
G37*
G36*
X281048Y351077D02*
X280372D01*
Y356188D01*
X281048D01*
Y351077D01*
D02*
G37*
G36*
X268905Y354350D02*
X268910Y354356D01*
X268927Y354372D01*
X268949Y354400D01*
X268982Y354433D01*
X269027Y354472D01*
X269076Y354511D01*
X269137Y354560D01*
X269209Y354610D01*
X269281Y354655D01*
X269364Y354704D01*
X269459Y354743D01*
X269553Y354787D01*
X269658Y354815D01*
X269769Y354843D01*
X269885Y354859D01*
X270007Y354865D01*
X270073D01*
X270112Y354859D01*
X270151Y354854D01*
X270250Y354843D01*
X270361Y354826D01*
X270477Y354793D01*
X270599Y354754D01*
X270716Y354699D01*
X270721D01*
X270727Y354693D01*
X270743Y354682D01*
X270765Y354671D01*
X270821Y354632D01*
X270887Y354583D01*
X270954Y354522D01*
X271031Y354444D01*
X271098Y354350D01*
X271153Y354250D01*
Y354245D01*
X271159Y354239D01*
X271164Y354223D01*
X271175Y354201D01*
X271186Y354167D01*
X271197Y354134D01*
X271208Y354090D01*
X271219Y354040D01*
X271231Y353984D01*
X271241Y353924D01*
X271253Y353857D01*
X271264Y353780D01*
X271275Y353702D01*
X271280Y353614D01*
X271286Y353519D01*
Y353420D01*
Y351077D01*
X270660D01*
Y353420D01*
Y353425D01*
Y353442D01*
Y353464D01*
X270655Y353497D01*
Y353536D01*
X270649Y353580D01*
X270632Y353680D01*
X270610Y353796D01*
X270571Y353907D01*
X270522Y354018D01*
X270494Y354062D01*
X270455Y354106D01*
X270444Y354117D01*
X270417Y354140D01*
X270372Y354173D01*
X270306Y354217D01*
X270223Y354256D01*
X270129Y354289D01*
X270012Y354311D01*
X269879Y354322D01*
X269835D01*
X269780Y354317D01*
X269708Y354306D01*
X269630Y354283D01*
X269542Y354261D01*
X269447Y354223D01*
X269353Y354173D01*
X269342Y354167D01*
X269315Y354145D01*
X269270Y354112D01*
X269221Y354068D01*
X269160Y354012D01*
X269104Y353946D01*
X269049Y353868D01*
X269004Y353780D01*
X268999Y353769D01*
X268993Y353752D01*
X268988Y353735D01*
X268971Y353680D01*
X268955Y353602D01*
X268938Y353508D01*
X268922Y353392D01*
X268910Y353254D01*
X268905Y353099D01*
Y351077D01*
X268279D01*
Y356188D01*
X268905D01*
Y354350D01*
D02*
G37*
G36*
X294802Y354782D02*
X295439D01*
Y354295D01*
X294802D01*
Y352124D01*
Y352118D01*
Y352113D01*
Y352080D01*
Y352035D01*
X294808Y351980D01*
Y351925D01*
X294819Y351869D01*
X294825Y351819D01*
X294836Y351781D01*
Y351775D01*
X294841Y351770D01*
X294863Y351736D01*
X294897Y351698D01*
X294941Y351659D01*
X294946D01*
X294957Y351653D01*
X294974Y351648D01*
X294996Y351637D01*
X295029Y351631D01*
X295063Y351620D01*
X295107Y351615D01*
X295201D01*
X295234Y351620D01*
X295273D01*
X295323Y351626D01*
X295378Y351631D01*
X295439Y351637D01*
X295522Y351083D01*
X295511D01*
X295478Y351072D01*
X295428Y351066D01*
X295362Y351055D01*
X295290Y351044D01*
X295212Y351039D01*
X295046Y351028D01*
X294991D01*
X294930Y351033D01*
X294852Y351039D01*
X294764Y351055D01*
X294675Y351072D01*
X294592Y351100D01*
X294514Y351133D01*
X294509Y351138D01*
X294487Y351155D01*
X294454Y351177D01*
X294409Y351210D01*
X294365Y351249D01*
X294321Y351299D01*
X294282Y351354D01*
X294249Y351415D01*
X294243Y351426D01*
X294237Y351454D01*
X294232Y351476D01*
X294226Y351504D01*
X294221Y351537D01*
X294215Y351576D01*
X294204Y351620D01*
X294199Y351675D01*
X294193Y351736D01*
X294188Y351803D01*
X294182Y351880D01*
Y351964D01*
X294177Y352058D01*
Y352157D01*
Y354295D01*
X293711D01*
Y354782D01*
X294177D01*
Y355695D01*
X294802Y356072D01*
Y354782D01*
D02*
G37*
G36*
X265162Y356271D02*
X265228Y356266D01*
X265300Y356260D01*
X265378Y356249D01*
X265466Y356233D01*
X265566Y356216D01*
X265666Y356194D01*
X265771Y356166D01*
X265882Y356133D01*
X265992Y356094D01*
X266103Y356050D01*
X266208Y356000D01*
X266319Y355939D01*
X266325Y355934D01*
X266347Y355923D01*
X266374Y355906D01*
X266413Y355878D01*
X266463Y355845D01*
X266513Y355801D01*
X266574Y355751D01*
X266640Y355695D01*
X266712Y355629D01*
X266784Y355557D01*
X266856Y355480D01*
X266928Y355396D01*
X266994Y355308D01*
X267066Y355208D01*
X267127Y355103D01*
X267188Y354992D01*
X267194Y354987D01*
X267199Y354965D01*
X267216Y354931D01*
X267233Y354887D01*
X267260Y354832D01*
X267282Y354760D01*
X267310Y354682D01*
X267338Y354594D01*
X267365Y354500D01*
X267393Y354394D01*
X267421Y354278D01*
X267443Y354162D01*
X267460Y354034D01*
X267476Y353901D01*
X267482Y353769D01*
X267487Y353625D01*
Y353614D01*
Y353591D01*
Y353547D01*
X267482Y353492D01*
X267476Y353425D01*
X267471Y353348D01*
X267460Y353259D01*
X267449Y353159D01*
X267432Y353054D01*
X267410Y352943D01*
X267388Y352827D01*
X267354Y352711D01*
X267316Y352589D01*
X267277Y352473D01*
X267227Y352351D01*
X267172Y352235D01*
X267166Y352229D01*
X267155Y352207D01*
X267139Y352174D01*
X267116Y352135D01*
X267083Y352085D01*
X267044Y352024D01*
X266994Y351958D01*
X266945Y351886D01*
X266884Y351814D01*
X266817Y351736D01*
X266740Y351659D01*
X266662Y351581D01*
X266579Y351509D01*
X266485Y351437D01*
X266385Y351365D01*
X266280Y351305D01*
X266275Y351299D01*
X266252Y351293D01*
X266225Y351277D01*
X266180Y351255D01*
X266125Y351232D01*
X266064Y351205D01*
X265992Y351177D01*
X265909Y351149D01*
X265821Y351122D01*
X265727Y351094D01*
X265621Y351066D01*
X265516Y351044D01*
X265284Y351006D01*
X265162Y351000D01*
X265040Y350994D01*
X264968D01*
X264918Y351000D01*
X264857Y351006D01*
X264780Y351011D01*
X264702Y351022D01*
X264608Y351039D01*
X264514Y351055D01*
X264409Y351077D01*
X264303Y351105D01*
X264193Y351138D01*
X264082Y351177D01*
X263971Y351227D01*
X263860Y351277D01*
X263750Y351338D01*
X263744Y351343D01*
X263728Y351354D01*
X263694Y351376D01*
X263656Y351404D01*
X263611Y351437D01*
X263556Y351482D01*
X263495Y351532D01*
X263429Y351587D01*
X263357Y351653D01*
X263290Y351725D01*
X263218Y351803D01*
X263146Y351886D01*
X263074Y351980D01*
X263008Y352074D01*
X262947Y352179D01*
X262886Y352290D01*
X262880Y352296D01*
X262875Y352318D01*
X262858Y352351D01*
X262842Y352395D01*
X262819Y352451D01*
X262797Y352517D01*
X262770Y352589D01*
X262742Y352678D01*
X262714Y352766D01*
X262687Y352866D01*
X262664Y352971D01*
X262642Y353082D01*
X262609Y353315D01*
X262603Y353442D01*
X262598Y353564D01*
Y353569D01*
Y353580D01*
Y353597D01*
Y353619D01*
X262603Y353652D01*
Y353685D01*
X262609Y353774D01*
X262620Y353879D01*
X262637Y354007D01*
X262653Y354140D01*
X262681Y354289D01*
X262720Y354450D01*
X262764Y354610D01*
X262819Y354776D01*
X262886Y354943D01*
X262963Y355109D01*
X263052Y355264D01*
X263157Y355419D01*
X263279Y355557D01*
X263285Y355563D01*
X263312Y355590D01*
X263351Y355624D01*
X263401Y355668D01*
X263473Y355723D01*
X263550Y355784D01*
X263645Y355851D01*
X263755Y355917D01*
X263877Y355984D01*
X264010Y356050D01*
X264154Y356111D01*
X264314Y356166D01*
X264481Y356211D01*
X264658Y356244D01*
X264846Y356271D01*
X265045Y356277D01*
X265112D01*
X265162Y356271D01*
D02*
G37*
G36*
X260350Y356199D02*
X260389Y356194D01*
X260488Y356183D01*
X260599Y356166D01*
X260721Y356133D01*
X260843Y356094D01*
X260965Y356039D01*
X260970D01*
X260981Y356033D01*
X260998Y356022D01*
X261020Y356006D01*
X261075Y355972D01*
X261147Y355917D01*
X261230Y355851D01*
X261313Y355768D01*
X261402Y355668D01*
X261479Y355557D01*
Y355552D01*
X261490Y355541D01*
X261496Y355524D01*
X261513Y355502D01*
X261529Y355474D01*
X261551Y355435D01*
X261568Y355391D01*
X261596Y355347D01*
X261646Y355236D01*
X261695Y355109D01*
X261751Y354959D01*
X261795Y354799D01*
Y354793D01*
X261801Y354776D01*
X261806Y354754D01*
X261812Y354715D01*
X261823Y354671D01*
X261834Y354616D01*
X261845Y354555D01*
X261856Y354483D01*
X261861Y354400D01*
X261873Y354311D01*
X261884Y354212D01*
X261895Y354106D01*
X261900Y353990D01*
X261906Y353868D01*
X261911Y353735D01*
Y353597D01*
Y353586D01*
Y353558D01*
Y353508D01*
Y353447D01*
X261906Y353370D01*
X261900Y353287D01*
X261895Y353187D01*
X261889Y353082D01*
X261878Y352966D01*
X261867Y352849D01*
X261834Y352606D01*
X261784Y352368D01*
X261756Y352251D01*
X261723Y352146D01*
Y352141D01*
X261712Y352124D01*
X261707Y352091D01*
X261690Y352058D01*
X261668Y352008D01*
X261646Y351958D01*
X261618Y351897D01*
X261585Y351831D01*
X261507Y351692D01*
X261413Y351554D01*
X261302Y351415D01*
X261236Y351354D01*
X261169Y351293D01*
X261164Y351288D01*
X261153Y351282D01*
X261131Y351266D01*
X261103Y351249D01*
X261070Y351227D01*
X261025Y351199D01*
X260976Y351172D01*
X260915Y351144D01*
X260854Y351116D01*
X260782Y351089D01*
X260710Y351066D01*
X260627Y351039D01*
X260538Y351022D01*
X260444Y351006D01*
X260350Y351000D01*
X260245Y350994D01*
X260211D01*
X260173Y351000D01*
X260123Y351006D01*
X260062Y351011D01*
X259990Y351022D01*
X259912Y351039D01*
X259824Y351061D01*
X259735Y351089D01*
X259641Y351122D01*
X259541Y351166D01*
X259447Y351216D01*
X259353Y351277D01*
X259259Y351349D01*
X259170Y351426D01*
X259087Y351521D01*
X259082Y351526D01*
X259065Y351548D01*
X259043Y351587D01*
X259010Y351642D01*
X258971Y351714D01*
X258927Y351797D01*
X258883Y351903D01*
X258838Y352019D01*
X258788Y352157D01*
X258744Y352307D01*
X258700Y352478D01*
X258661Y352667D01*
X258628Y352872D01*
X258606Y353093D01*
X258589Y353337D01*
X258584Y353597D01*
Y353608D01*
Y353636D01*
Y353685D01*
X258589Y353746D01*
Y353824D01*
X258595Y353913D01*
X258600Y354012D01*
X258606Y354117D01*
X258617Y354234D01*
X258628Y354350D01*
X258661Y354594D01*
X258705Y354832D01*
X258733Y354948D01*
X258766Y355053D01*
Y355059D01*
X258777Y355075D01*
X258788Y355109D01*
X258799Y355147D01*
X258822Y355192D01*
X258844Y355247D01*
X258871Y355302D01*
X258905Y355369D01*
X258982Y355507D01*
X259082Y355646D01*
X259193Y355784D01*
X259254Y355845D01*
X259320Y355906D01*
X259326Y355911D01*
X259337Y355917D01*
X259359Y355934D01*
X259386Y355950D01*
X259420Y355978D01*
X259464Y356000D01*
X259514Y356028D01*
X259575Y356055D01*
X259636Y356083D01*
X259708Y356111D01*
X259785Y356138D01*
X259863Y356161D01*
X259951Y356177D01*
X260045Y356194D01*
X260145Y356199D01*
X260245Y356205D01*
X260311D01*
X260350Y356199D01*
D02*
G37*
G36*
X251865Y346367D02*
X252004Y346353D01*
X252156Y346339D01*
X252336Y346325D01*
X252725Y346269D01*
X253155Y346186D01*
X253585Y346075D01*
X254014Y345923D01*
X254028D01*
X254070Y345909D01*
X254125Y345881D01*
X254195Y345840D01*
X254292Y345798D01*
X254403Y345742D01*
X254652Y345604D01*
X254944Y345424D01*
X255235Y345215D01*
X255512Y344966D01*
X255776Y344675D01*
X255790Y344661D01*
X255804Y344633D01*
X255831Y344591D01*
X255887Y344536D01*
X255928Y344453D01*
X255998Y344356D01*
X256067Y344245D01*
X256136Y344106D01*
X256220Y343967D01*
X256289Y343815D01*
X256372Y343634D01*
X256455Y343454D01*
X256608Y343038D01*
X256747Y342580D01*
X255207Y342164D01*
Y342178D01*
X255193Y342206D01*
X255179Y342262D01*
X255152Y342331D01*
X255124Y342400D01*
X255096Y342497D01*
X255013Y342719D01*
X254902Y342969D01*
X254777Y343218D01*
X254639Y343468D01*
X254486Y343690D01*
X254472Y343718D01*
X254403Y343787D01*
X254306Y343884D01*
X254181Y344023D01*
X254001Y344161D01*
X253793Y344314D01*
X253543Y344453D01*
X253266Y344591D01*
X253252D01*
X253224Y344605D01*
X253182Y344619D01*
X253127Y344647D01*
X253058Y344675D01*
X252960Y344702D01*
X252752Y344772D01*
X252489Y344827D01*
X252198Y344883D01*
X251865Y344924D01*
X251518Y344938D01*
X251324D01*
X251227Y344924D01*
X251102D01*
X250977Y344910D01*
X250825Y344897D01*
X250520Y344855D01*
X250173Y344786D01*
X249840Y344702D01*
X249507Y344577D01*
X249493D01*
X249466Y344564D01*
X249424Y344536D01*
X249369Y344508D01*
X249216Y344439D01*
X249022Y344328D01*
X248800Y344189D01*
X248578Y344023D01*
X248342Y343843D01*
X248134Y343634D01*
X248106Y343607D01*
X248051Y343537D01*
X247954Y343413D01*
X247843Y343260D01*
X247718Y343080D01*
X247579Y342858D01*
X247455Y342622D01*
X247344Y342373D01*
Y342359D01*
X247330Y342317D01*
X247302Y342262D01*
X247274Y342164D01*
X247233Y342053D01*
X247191Y341929D01*
X247150Y341776D01*
X247108Y341610D01*
X247052Y341429D01*
X247011Y341221D01*
X246942Y340792D01*
X246886Y340306D01*
X246858Y339793D01*
Y339779D01*
Y339724D01*
Y339627D01*
X246872Y339516D01*
Y339363D01*
X246886Y339197D01*
X246914Y339002D01*
X246928Y338794D01*
X246997Y338337D01*
X247108Y337865D01*
X247247Y337380D01*
X247441Y336922D01*
X247455Y336908D01*
X247469Y336867D01*
X247496Y336811D01*
X247552Y336728D01*
X247607Y336645D01*
X247691Y336534D01*
X247871Y336284D01*
X248120Y336007D01*
X248412Y335716D01*
X248745Y335452D01*
X248939Y335327D01*
X249147Y335216D01*
X249160D01*
X249202Y335189D01*
X249258Y335161D01*
X249341Y335133D01*
X249452Y335092D01*
X249577Y335036D01*
X249715Y334995D01*
X249868Y334939D01*
X250034Y334883D01*
X250228Y334842D01*
X250631Y334745D01*
X251074Y334689D01*
X251546Y334662D01*
X251657D01*
X251740Y334675D01*
X251837D01*
X251948Y334689D01*
X252073Y334703D01*
X252225Y334717D01*
X252544Y334759D01*
X252905Y334842D01*
X253293Y334939D01*
X253682Y335078D01*
X253696D01*
X253723Y335092D01*
X253779Y335119D01*
X253862Y335147D01*
X253945Y335189D01*
X254042Y335244D01*
X254278Y335355D01*
X254541Y335494D01*
X254805Y335646D01*
X255055Y335799D01*
X255277Y335979D01*
Y338378D01*
X251518D01*
Y339890D01*
X256941D01*
Y335133D01*
X256927Y335119D01*
X256885Y335092D01*
X256816Y335036D01*
X256719Y334967D01*
X256608Y334883D01*
X256469Y334800D01*
X256317Y334689D01*
X256150Y334578D01*
X255970Y334468D01*
X255762Y334343D01*
X255332Y334093D01*
X254860Y333857D01*
X254361Y333649D01*
X254347D01*
X254306Y333621D01*
X254236Y333608D01*
X254125Y333566D01*
X254014Y333538D01*
X253862Y333497D01*
X253709Y333441D01*
X253529Y333400D01*
X253321Y333358D01*
X253113Y333302D01*
X252655Y333233D01*
X252156Y333178D01*
X251643Y333150D01*
X251463D01*
X251324Y333164D01*
X251158Y333178D01*
X250963Y333192D01*
X250742Y333219D01*
X250506Y333247D01*
X250256Y333289D01*
X249979Y333344D01*
X249701Y333414D01*
X249396Y333497D01*
X249105Y333580D01*
X248814Y333691D01*
X248509Y333816D01*
X248218Y333954D01*
X248204Y333968D01*
X248148Y333996D01*
X248065Y334038D01*
X247968Y334107D01*
X247843Y334190D01*
X247691Y334287D01*
X247524Y334412D01*
X247344Y334551D01*
X247164Y334703D01*
X246969Y334883D01*
X246775Y335064D01*
X246581Y335272D01*
X246401Y335508D01*
X246220Y335743D01*
X246040Y336007D01*
X245888Y336284D01*
X245874Y336298D01*
X245860Y336354D01*
X245818Y336437D01*
X245763Y336548D01*
X245707Y336700D01*
X245638Y336867D01*
X245569Y337061D01*
X245499Y337283D01*
X245430Y337519D01*
X245361Y337782D01*
X245291Y338073D01*
X245236Y338364D01*
X245180Y338684D01*
X245139Y339002D01*
X245125Y339349D01*
X245111Y339696D01*
Y339724D01*
Y339779D01*
Y339876D01*
X245125Y340015D01*
X245139Y340181D01*
X245153Y340375D01*
X245180Y340597D01*
X245208Y340833D01*
X245250Y341097D01*
X245305Y341374D01*
X245444Y341956D01*
X245527Y342262D01*
X245638Y342567D01*
X245749Y342872D01*
X245888Y343177D01*
X245902Y343191D01*
X245929Y343246D01*
X245971Y343329D01*
X246026Y343440D01*
X246110Y343579D01*
X246207Y343732D01*
X246331Y343898D01*
X246456Y344092D01*
X246609Y344286D01*
X246775Y344481D01*
X246956Y344675D01*
X247164Y344883D01*
X247372Y345077D01*
X247607Y345257D01*
X247857Y345437D01*
X248120Y345590D01*
X248134Y345604D01*
X248190Y345618D01*
X248273Y345659D01*
X248384Y345715D01*
X248523Y345770D01*
X248689Y345840D01*
X248883Y345909D01*
X249091Y345992D01*
X249327Y346062D01*
X249590Y346131D01*
X249868Y346200D01*
X250173Y346256D01*
X250478Y346311D01*
X250811Y346353D01*
X251158Y346367D01*
X251504Y346380D01*
X251740D01*
X251865Y346367D01*
D02*
G37*
G36*
X302484Y333358D02*
X301028D01*
Y334523D01*
X301014Y334509D01*
X300987Y334468D01*
X300931Y334398D01*
X300862Y334315D01*
X300765Y334204D01*
X300654Y334093D01*
X300529Y333968D01*
X300376Y333843D01*
X300196Y333705D01*
X300002Y333580D01*
X299794Y333469D01*
X299558Y333372D01*
X299295Y333275D01*
X299031Y333205D01*
X298740Y333164D01*
X298421Y333150D01*
X298310D01*
X298227Y333164D01*
X298130D01*
X298019Y333178D01*
X297894Y333205D01*
X297755Y333233D01*
X297436Y333302D01*
X297090Y333414D01*
X296743Y333566D01*
X296563Y333649D01*
X296382Y333760D01*
X296369Y333774D01*
X296341Y333788D01*
X296299Y333829D01*
X296230Y333871D01*
X296147Y333941D01*
X296063Y334010D01*
X295855Y334204D01*
X295620Y334440D01*
X295384Y334731D01*
X295148Y335078D01*
X294940Y335466D01*
Y335480D01*
X294912Y335522D01*
X294898Y335577D01*
X294857Y335660D01*
X294829Y335757D01*
X294788Y335882D01*
X294732Y336035D01*
X294690Y336187D01*
X294649Y336367D01*
X294593Y336562D01*
X294552Y336770D01*
X294524Y336992D01*
X294469Y337463D01*
X294441Y337976D01*
Y337990D01*
Y338046D01*
Y338115D01*
X294455Y338212D01*
Y338337D01*
X294469Y338475D01*
X294482Y338642D01*
X294496Y338822D01*
X294552Y339211D01*
X294635Y339627D01*
X294746Y340070D01*
X294898Y340500D01*
Y340514D01*
X294926Y340556D01*
X294954Y340611D01*
X294982Y340694D01*
X295037Y340778D01*
X295093Y340888D01*
X295245Y341138D01*
X295439Y341429D01*
X295675Y341707D01*
X295952Y341984D01*
X296285Y342234D01*
X296299Y342248D01*
X296327Y342262D01*
X296382Y342289D01*
X296452Y342331D01*
X296535Y342373D01*
X296646Y342428D01*
X296757Y342483D01*
X296896Y342539D01*
X297201Y342650D01*
X297547Y342747D01*
X297936Y342816D01*
X298144Y342844D01*
X298490D01*
X298657Y342830D01*
X298851Y342802D01*
X299087Y342761D01*
X299336Y342691D01*
X299600Y342608D01*
X299849Y342483D01*
X299863D01*
X299877Y342469D01*
X299960Y342414D01*
X300071Y342345D01*
X300224Y342234D01*
X300390Y342095D01*
X300571Y341942D01*
X300751Y341762D01*
X300917Y341554D01*
Y346158D01*
X302484D01*
Y333358D01*
D02*
G37*
G36*
X289656Y342830D02*
X289739D01*
X289947Y342802D01*
X290183Y342775D01*
X290447Y342719D01*
X290710Y342636D01*
X290974Y342539D01*
X290988D01*
X291001Y342525D01*
X291085Y342483D01*
X291210Y342414D01*
X291376Y342331D01*
X291542Y342206D01*
X291723Y342081D01*
X291889Y341929D01*
X292028Y341748D01*
X292042Y341721D01*
X292083Y341665D01*
X292139Y341554D01*
X292222Y341415D01*
X292305Y341249D01*
X292374Y341055D01*
X292458Y340833D01*
X292513Y340583D01*
Y340570D01*
X292527Y340500D01*
X292541Y340389D01*
X292569Y340237D01*
X292582Y340029D01*
Y339904D01*
X292596Y339765D01*
Y339613D01*
X292610Y339432D01*
Y339252D01*
Y339058D01*
Y333358D01*
X291043D01*
Y339002D01*
Y339016D01*
Y339044D01*
Y339100D01*
Y339155D01*
Y339238D01*
X291029Y339335D01*
X291015Y339543D01*
X291001Y339779D01*
X290960Y340015D01*
X290918Y340237D01*
X290849Y340431D01*
X290835Y340459D01*
X290807Y340514D01*
X290766Y340597D01*
X290696Y340708D01*
X290613Y340833D01*
X290502Y340958D01*
X290364Y341083D01*
X290197Y341194D01*
X290183Y341208D01*
X290114Y341235D01*
X290017Y341291D01*
X289892Y341346D01*
X289726Y341388D01*
X289545Y341443D01*
X289337Y341471D01*
X289102Y341485D01*
X289004D01*
X288935Y341471D01*
X288852D01*
X288741Y341457D01*
X288505Y341402D01*
X288242Y341332D01*
X287950Y341221D01*
X287659Y341055D01*
X287507Y340958D01*
X287368Y340847D01*
X287354Y340833D01*
X287340Y340819D01*
X287299Y340778D01*
X287257Y340722D01*
X287202Y340639D01*
X287146Y340556D01*
X287077Y340445D01*
X287007Y340306D01*
X286938Y340154D01*
X286869Y339973D01*
X286813Y339779D01*
X286758Y339557D01*
X286716Y339308D01*
X286675Y339044D01*
X286661Y338739D01*
X286647Y338420D01*
Y333358D01*
X285080D01*
Y342636D01*
X286494D01*
Y341305D01*
X286508Y341319D01*
X286536Y341374D01*
X286605Y341443D01*
X286688Y341540D01*
X286786Y341665D01*
X286910Y341790D01*
X287063Y341929D01*
X287243Y342081D01*
X287437Y342220D01*
X287659Y342359D01*
X287895Y342483D01*
X288158Y342608D01*
X288450Y342705D01*
X288755Y342775D01*
X289088Y342830D01*
X289434Y342844D01*
X289573D01*
X289656Y342830D01*
D02*
G37*
G36*
X262779D02*
X262849D01*
X262932Y342816D01*
X263140Y342775D01*
X263389Y342719D01*
X263653Y342622D01*
X263958Y342497D01*
X264263Y342331D01*
X263708Y340875D01*
X263681Y340888D01*
X263611Y340930D01*
X263500Y340986D01*
X263348Y341055D01*
X263181Y341110D01*
X262987Y341166D01*
X262779Y341208D01*
X262557Y341221D01*
X262474D01*
X262377Y341208D01*
X262252Y341180D01*
X262100Y341138D01*
X261947Y341083D01*
X261795Y341013D01*
X261628Y340902D01*
X261614Y340888D01*
X261559Y340847D01*
X261490Y340778D01*
X261406Y340681D01*
X261309Y340556D01*
X261212Y340417D01*
X261129Y340237D01*
X261046Y340043D01*
Y340029D01*
X261032Y340001D01*
X261018Y339959D01*
X261004Y339904D01*
X260990Y339821D01*
X260963Y339724D01*
X260921Y339502D01*
X260879Y339224D01*
X260838Y338919D01*
X260810Y338573D01*
X260796Y338212D01*
Y333358D01*
X259229D01*
Y342636D01*
X260644D01*
Y341235D01*
X260671Y341263D01*
X260699Y341319D01*
X260741Y341374D01*
X260838Y341554D01*
X260976Y341748D01*
X261129Y341970D01*
X261295Y342192D01*
X261462Y342373D01*
X261559Y342456D01*
X261642Y342525D01*
X261670Y342539D01*
X261725Y342580D01*
X261822Y342622D01*
X261933Y342691D01*
X262086Y342747D01*
X262252Y342789D01*
X262446Y342830D01*
X262641Y342844D01*
X262724D01*
X262779Y342830D01*
D02*
G37*
G36*
X282611Y333358D02*
X281210D01*
Y334717D01*
X281196Y334703D01*
X281155Y334648D01*
X281099Y334578D01*
X281016Y334468D01*
X280905Y334356D01*
X280767Y334218D01*
X280614Y334079D01*
X280434Y333941D01*
X280226Y333788D01*
X280004Y333649D01*
X279768Y333511D01*
X279505Y333400D01*
X279213Y333289D01*
X278922Y333219D01*
X278603Y333164D01*
X278256Y333150D01*
X278118D01*
X277965Y333164D01*
X277757Y333192D01*
X277521Y333219D01*
X277258Y333275D01*
X276994Y333358D01*
X276717Y333455D01*
X276703D01*
X276689Y333469D01*
X276606Y333511D01*
X276481Y333580D01*
X276315Y333677D01*
X276148Y333788D01*
X275968Y333927D01*
X275802Y334079D01*
X275663Y334246D01*
X275649Y334273D01*
X275608Y334329D01*
X275552Y334440D01*
X275483Y334578D01*
X275400Y334745D01*
X275316Y334939D01*
X275247Y335161D01*
X275178Y335410D01*
Y335438D01*
X275164Y335494D01*
X275150Y335619D01*
X275136Y335771D01*
X275122Y335979D01*
X275108Y336229D01*
X275094Y336534D01*
Y336881D01*
Y342636D01*
X276662D01*
Y337491D01*
Y337477D01*
Y337435D01*
Y337380D01*
Y337297D01*
Y337186D01*
Y337075D01*
X276675Y336825D01*
Y336548D01*
X276703Y336270D01*
X276717Y336021D01*
X276731Y335910D01*
X276745Y335827D01*
X276759Y335799D01*
X276772Y335729D01*
X276814Y335605D01*
X276884Y335466D01*
X276967Y335313D01*
X277078Y335161D01*
X277216Y334995D01*
X277383Y334856D01*
X277411Y334842D01*
X277466Y334800D01*
X277577Y334745D01*
X277716Y334689D01*
X277882Y334620D01*
X278090Y334565D01*
X278326Y334523D01*
X278575Y334509D01*
X278700D01*
X278825Y334523D01*
X279005Y334551D01*
X279213Y334592D01*
X279435Y334662D01*
X279657Y334745D01*
X279893Y334870D01*
X279907D01*
X279921Y334883D01*
X279990Y334939D01*
X280101Y335022D01*
X280240Y335133D01*
X280378Y335272D01*
X280531Y335438D01*
X280669Y335632D01*
X280781Y335854D01*
Y335868D01*
X280794Y335882D01*
X280808Y335924D01*
X280822Y335965D01*
X280836Y336035D01*
X280864Y336118D01*
X280891Y336201D01*
X280919Y336312D01*
X280961Y336576D01*
X281002Y336881D01*
X281030Y337241D01*
X281044Y337657D01*
Y342636D01*
X282611D01*
Y333358D01*
D02*
G37*
G36*
X269131Y342830D02*
X269270D01*
X269436Y342802D01*
X269616Y342775D01*
X269825Y342733D01*
X270060Y342691D01*
X270296Y342622D01*
X270560Y342539D01*
X270809Y342428D01*
X271073Y342317D01*
X271336Y342164D01*
X271586Y341998D01*
X271835Y341804D01*
X272071Y341582D01*
X272085Y341568D01*
X272127Y341526D01*
X272182Y341457D01*
X272265Y341346D01*
X272348Y341221D01*
X272460Y341069D01*
X272570Y340888D01*
X272681Y340681D01*
X272792Y340445D01*
X272903Y340181D01*
X273014Y339904D01*
X273097Y339599D01*
X273181Y339266D01*
X273236Y338905D01*
X273278Y338517D01*
X273292Y338115D01*
Y338101D01*
Y338032D01*
Y337948D01*
X273278Y337824D01*
Y337671D01*
X273264Y337491D01*
X273250Y337297D01*
X273222Y337089D01*
X273167Y336645D01*
X273070Y336173D01*
X272931Y335716D01*
X272848Y335508D01*
X272751Y335300D01*
Y335286D01*
X272723Y335258D01*
X272695Y335202D01*
X272654Y335133D01*
X272598Y335050D01*
X272529Y334939D01*
X272348Y334717D01*
X272127Y334454D01*
X271863Y334190D01*
X271544Y333941D01*
X271184Y333705D01*
X271170D01*
X271142Y333677D01*
X271087Y333649D01*
X271003Y333621D01*
X270906Y333580D01*
X270795Y333524D01*
X270670Y333483D01*
X270518Y333427D01*
X270365Y333372D01*
X270185Y333330D01*
X269811Y333233D01*
X269394Y333178D01*
X268951Y333150D01*
X268867D01*
X268771Y333164D01*
X268632D01*
X268465Y333192D01*
X268271Y333219D01*
X268063Y333261D01*
X267827Y333302D01*
X267578Y333372D01*
X267328Y333455D01*
X267065Y333552D01*
X266801Y333677D01*
X266538Y333816D01*
X266288Y333982D01*
X266038Y334176D01*
X265803Y334398D01*
X265789Y334412D01*
X265747Y334454D01*
X265692Y334523D01*
X265622Y334634D01*
X265525Y334759D01*
X265428Y334911D01*
X265317Y335105D01*
X265206Y335313D01*
X265095Y335563D01*
X264984Y335827D01*
X264887Y336118D01*
X264790Y336437D01*
X264721Y336783D01*
X264665Y337158D01*
X264624Y337560D01*
X264610Y337990D01*
Y338004D01*
Y338018D01*
Y338101D01*
X264624Y338240D01*
X264638Y338406D01*
X264652Y338628D01*
X264679Y338878D01*
X264735Y339141D01*
X264790Y339432D01*
X264860Y339738D01*
X264957Y340056D01*
X265082Y340375D01*
X265206Y340694D01*
X265373Y340999D01*
X265567Y341291D01*
X265789Y341554D01*
X266038Y341804D01*
X266052Y341818D01*
X266094Y341846D01*
X266163Y341901D01*
X266246Y341970D01*
X266371Y342040D01*
X266510Y342137D01*
X266663Y342234D01*
X266857Y342331D01*
X267051Y342428D01*
X267273Y342511D01*
X267508Y342608D01*
X267772Y342678D01*
X268049Y342747D01*
X268327Y342802D01*
X268632Y342830D01*
X268951Y342844D01*
X269034D01*
X269131Y342830D01*
D02*
G37*
G36*
X20865Y346367D02*
X21004Y346353D01*
X21156Y346339D01*
X21336Y346325D01*
X21725Y346269D01*
X22155Y346186D01*
X22585Y346075D01*
X23015Y345923D01*
X23028D01*
X23070Y345909D01*
X23125Y345881D01*
X23195Y345840D01*
X23292Y345798D01*
X23403Y345742D01*
X23652Y345604D01*
X23944Y345424D01*
X24235Y345215D01*
X24512Y344966D01*
X24776Y344675D01*
X24790Y344661D01*
X24804Y344633D01*
X24831Y344591D01*
X24887Y344536D01*
X24928Y344453D01*
X24998Y344356D01*
X25067Y344245D01*
X25136Y344106D01*
X25220Y343967D01*
X25289Y343815D01*
X25372Y343634D01*
X25455Y343454D01*
X25608Y343038D01*
X25747Y342580D01*
X24207Y342164D01*
Y342178D01*
X24193Y342206D01*
X24179Y342262D01*
X24152Y342331D01*
X24124Y342400D01*
X24096Y342497D01*
X24013Y342719D01*
X23902Y342969D01*
X23777Y343218D01*
X23639Y343468D01*
X23486Y343690D01*
X23472Y343718D01*
X23403Y343787D01*
X23306Y343884D01*
X23181Y344023D01*
X23001Y344161D01*
X22793Y344314D01*
X22543Y344453D01*
X22266Y344591D01*
X22252D01*
X22224Y344605D01*
X22182Y344619D01*
X22127Y344647D01*
X22058Y344675D01*
X21960Y344702D01*
X21753Y344772D01*
X21489Y344827D01*
X21198Y344883D01*
X20865Y344924D01*
X20518Y344938D01*
X20324D01*
X20227Y344924D01*
X20102D01*
X19977Y344910D01*
X19825Y344897D01*
X19520Y344855D01*
X19173Y344786D01*
X18840Y344702D01*
X18507Y344577D01*
X18493D01*
X18466Y344564D01*
X18424Y344536D01*
X18369Y344508D01*
X18216Y344439D01*
X18022Y344328D01*
X17800Y344189D01*
X17578Y344023D01*
X17342Y343843D01*
X17134Y343634D01*
X17106Y343607D01*
X17051Y343537D01*
X16954Y343413D01*
X16843Y343260D01*
X16718Y343080D01*
X16580Y342858D01*
X16455Y342622D01*
X16344Y342373D01*
Y342359D01*
X16330Y342317D01*
X16302Y342262D01*
X16274Y342164D01*
X16233Y342053D01*
X16191Y341929D01*
X16150Y341776D01*
X16108Y341610D01*
X16053Y341429D01*
X16011Y341221D01*
X15942Y340792D01*
X15886Y340306D01*
X15858Y339793D01*
Y339779D01*
Y339724D01*
Y339627D01*
X15872Y339516D01*
Y339363D01*
X15886Y339197D01*
X15914Y339002D01*
X15928Y338794D01*
X15997Y338337D01*
X16108Y337865D01*
X16247Y337380D01*
X16441Y336922D01*
X16455Y336908D01*
X16469Y336867D01*
X16496Y336811D01*
X16552Y336728D01*
X16607Y336645D01*
X16690Y336534D01*
X16871Y336284D01*
X17120Y336007D01*
X17412Y335716D01*
X17744Y335452D01*
X17939Y335327D01*
X18147Y335216D01*
X18161D01*
X18202Y335189D01*
X18258Y335161D01*
X18341Y335133D01*
X18452Y335092D01*
X18577Y335036D01*
X18715Y334995D01*
X18868Y334939D01*
X19034Y334883D01*
X19228Y334842D01*
X19631Y334745D01*
X20074Y334689D01*
X20546Y334662D01*
X20657D01*
X20740Y334675D01*
X20837D01*
X20948Y334689D01*
X21073Y334703D01*
X21226Y334717D01*
X21544Y334759D01*
X21905Y334842D01*
X22293Y334939D01*
X22682Y335078D01*
X22696D01*
X22723Y335092D01*
X22779Y335119D01*
X22862Y335147D01*
X22945Y335189D01*
X23042Y335244D01*
X23278Y335355D01*
X23542Y335494D01*
X23805Y335646D01*
X24055Y335799D01*
X24276Y335979D01*
Y338378D01*
X20518D01*
Y339890D01*
X25941D01*
Y335133D01*
X25927Y335119D01*
X25885Y335092D01*
X25816Y335036D01*
X25719Y334967D01*
X25608Y334883D01*
X25469Y334800D01*
X25317Y334689D01*
X25150Y334578D01*
X24970Y334468D01*
X24762Y334343D01*
X24332Y334093D01*
X23860Y333857D01*
X23361Y333649D01*
X23347D01*
X23306Y333621D01*
X23236Y333608D01*
X23125Y333566D01*
X23015Y333538D01*
X22862Y333497D01*
X22709Y333441D01*
X22529Y333400D01*
X22321Y333358D01*
X22113Y333302D01*
X21655Y333233D01*
X21156Y333178D01*
X20643Y333150D01*
X20463D01*
X20324Y333164D01*
X20158Y333178D01*
X19963Y333192D01*
X19741Y333219D01*
X19506Y333247D01*
X19256Y333289D01*
X18979Y333344D01*
X18701Y333414D01*
X18396Y333497D01*
X18105Y333580D01*
X17814Y333691D01*
X17509Y333816D01*
X17218Y333954D01*
X17204Y333968D01*
X17148Y333996D01*
X17065Y334038D01*
X16968Y334107D01*
X16843Y334190D01*
X16690Y334287D01*
X16524Y334412D01*
X16344Y334551D01*
X16164Y334703D01*
X15969Y334883D01*
X15775Y335064D01*
X15581Y335272D01*
X15401Y335508D01*
X15220Y335743D01*
X15040Y336007D01*
X14888Y336284D01*
X14874Y336298D01*
X14860Y336354D01*
X14818Y336437D01*
X14763Y336548D01*
X14707Y336700D01*
X14638Y336867D01*
X14569Y337061D01*
X14499Y337283D01*
X14430Y337519D01*
X14361Y337782D01*
X14291Y338073D01*
X14236Y338364D01*
X14180Y338684D01*
X14139Y339002D01*
X14125Y339349D01*
X14111Y339696D01*
Y339724D01*
Y339779D01*
Y339876D01*
X14125Y340015D01*
X14139Y340181D01*
X14153Y340375D01*
X14180Y340597D01*
X14208Y340833D01*
X14250Y341097D01*
X14305Y341374D01*
X14444Y341956D01*
X14527Y342262D01*
X14638Y342567D01*
X14749Y342872D01*
X14888Y343177D01*
X14901Y343191D01*
X14929Y343246D01*
X14971Y343329D01*
X15026Y343440D01*
X15109Y343579D01*
X15207Y343732D01*
X15331Y343898D01*
X15456Y344092D01*
X15609Y344286D01*
X15775Y344481D01*
X15955Y344675D01*
X16164Y344883D01*
X16372Y345077D01*
X16607Y345257D01*
X16857Y345437D01*
X17120Y345590D01*
X17134Y345604D01*
X17190Y345618D01*
X17273Y345659D01*
X17384Y345715D01*
X17523Y345770D01*
X17689Y345840D01*
X17883Y345909D01*
X18091Y345992D01*
X18327Y346062D01*
X18591Y346131D01*
X18868Y346200D01*
X19173Y346256D01*
X19478Y346311D01*
X19811Y346353D01*
X20158Y346367D01*
X20504Y346380D01*
X20740D01*
X20865Y346367D01*
D02*
G37*
G36*
X71484Y333358D02*
X70028D01*
Y334523D01*
X70015Y334509D01*
X69987Y334468D01*
X69931Y334398D01*
X69862Y334315D01*
X69765Y334204D01*
X69654Y334093D01*
X69529Y333968D01*
X69377Y333843D01*
X69196Y333705D01*
X69002Y333580D01*
X68794Y333469D01*
X68558Y333372D01*
X68295Y333275D01*
X68031Y333205D01*
X67740Y333164D01*
X67421Y333150D01*
X67310D01*
X67227Y333164D01*
X67130D01*
X67019Y333178D01*
X66894Y333205D01*
X66755Y333233D01*
X66436Y333302D01*
X66090Y333414D01*
X65743Y333566D01*
X65563Y333649D01*
X65382Y333760D01*
X65369Y333774D01*
X65341Y333788D01*
X65299Y333829D01*
X65230Y333871D01*
X65147Y333941D01*
X65064Y334010D01*
X64855Y334204D01*
X64620Y334440D01*
X64384Y334731D01*
X64148Y335078D01*
X63940Y335466D01*
Y335480D01*
X63912Y335522D01*
X63899Y335577D01*
X63857Y335660D01*
X63829Y335757D01*
X63788Y335882D01*
X63732Y336035D01*
X63691Y336187D01*
X63649Y336367D01*
X63593Y336562D01*
X63552Y336770D01*
X63524Y336992D01*
X63469Y337463D01*
X63441Y337976D01*
Y337990D01*
Y338046D01*
Y338115D01*
X63455Y338212D01*
Y338337D01*
X63469Y338475D01*
X63482Y338642D01*
X63496Y338822D01*
X63552Y339211D01*
X63635Y339627D01*
X63746Y340070D01*
X63899Y340500D01*
Y340514D01*
X63926Y340556D01*
X63954Y340611D01*
X63982Y340694D01*
X64037Y340778D01*
X64093Y340888D01*
X64245Y341138D01*
X64439Y341429D01*
X64675Y341707D01*
X64953Y341984D01*
X65285Y342234D01*
X65299Y342248D01*
X65327Y342262D01*
X65382Y342289D01*
X65452Y342331D01*
X65535Y342373D01*
X65646Y342428D01*
X65757Y342483D01*
X65896Y342539D01*
X66201Y342650D01*
X66547Y342747D01*
X66936Y342816D01*
X67144Y342844D01*
X67490D01*
X67657Y342830D01*
X67851Y342802D01*
X68087Y342761D01*
X68336Y342691D01*
X68600Y342608D01*
X68850Y342483D01*
X68863D01*
X68877Y342469D01*
X68960Y342414D01*
X69071Y342345D01*
X69224Y342234D01*
X69390Y342095D01*
X69571Y341942D01*
X69751Y341762D01*
X69917Y341554D01*
Y346158D01*
X71484D01*
Y333358D01*
D02*
G37*
G36*
X58656Y342830D02*
X58740D01*
X58948Y342802D01*
X59183Y342775D01*
X59447Y342719D01*
X59710Y342636D01*
X59974Y342539D01*
X59988D01*
X60002Y342525D01*
X60085Y342483D01*
X60209Y342414D01*
X60376Y342331D01*
X60542Y342206D01*
X60723Y342081D01*
X60889Y341929D01*
X61028Y341748D01*
X61042Y341721D01*
X61083Y341665D01*
X61139Y341554D01*
X61222Y341415D01*
X61305Y341249D01*
X61375Y341055D01*
X61458Y340833D01*
X61513Y340583D01*
Y340570D01*
X61527Y340500D01*
X61541Y340389D01*
X61569Y340237D01*
X61582Y340029D01*
Y339904D01*
X61596Y339765D01*
Y339613D01*
X61610Y339432D01*
Y339252D01*
Y339058D01*
Y333358D01*
X60043D01*
Y339002D01*
Y339016D01*
Y339044D01*
Y339100D01*
Y339155D01*
Y339238D01*
X60029Y339335D01*
X60015Y339543D01*
X60002Y339779D01*
X59960Y340015D01*
X59918Y340237D01*
X59849Y340431D01*
X59835Y340459D01*
X59807Y340514D01*
X59766Y340597D01*
X59696Y340708D01*
X59613Y340833D01*
X59502Y340958D01*
X59364Y341083D01*
X59197Y341194D01*
X59183Y341208D01*
X59114Y341235D01*
X59017Y341291D01*
X58892Y341346D01*
X58726Y341388D01*
X58545Y341443D01*
X58337Y341471D01*
X58102Y341485D01*
X58004D01*
X57935Y341471D01*
X57852D01*
X57741Y341457D01*
X57505Y341402D01*
X57242Y341332D01*
X56950Y341221D01*
X56659Y341055D01*
X56507Y340958D01*
X56368Y340847D01*
X56354Y340833D01*
X56340Y340819D01*
X56299Y340778D01*
X56257Y340722D01*
X56202Y340639D01*
X56146Y340556D01*
X56077Y340445D01*
X56007Y340306D01*
X55938Y340154D01*
X55869Y339973D01*
X55813Y339779D01*
X55758Y339557D01*
X55716Y339308D01*
X55675Y339044D01*
X55661Y338739D01*
X55647Y338420D01*
Y333358D01*
X54080D01*
Y342636D01*
X55494D01*
Y341305D01*
X55508Y341319D01*
X55536Y341374D01*
X55605Y341443D01*
X55688Y341540D01*
X55785Y341665D01*
X55910Y341790D01*
X56063Y341929D01*
X56243Y342081D01*
X56437Y342220D01*
X56659Y342359D01*
X56895Y342483D01*
X57158Y342608D01*
X57450Y342705D01*
X57755Y342775D01*
X58088Y342830D01*
X58434Y342844D01*
X58573D01*
X58656Y342830D01*
D02*
G37*
G36*
X31779D02*
X31849D01*
X31932Y342816D01*
X32140Y342775D01*
X32390Y342719D01*
X32653Y342622D01*
X32958Y342497D01*
X33263Y342331D01*
X32708Y340875D01*
X32681Y340888D01*
X32611Y340930D01*
X32501Y340986D01*
X32348Y341055D01*
X32181Y341110D01*
X31987Y341166D01*
X31779Y341208D01*
X31557Y341221D01*
X31474D01*
X31377Y341208D01*
X31252Y341180D01*
X31100Y341138D01*
X30947Y341083D01*
X30795Y341013D01*
X30628Y340902D01*
X30614Y340888D01*
X30559Y340847D01*
X30490Y340778D01*
X30406Y340681D01*
X30309Y340556D01*
X30212Y340417D01*
X30129Y340237D01*
X30046Y340043D01*
Y340029D01*
X30032Y340001D01*
X30018Y339959D01*
X30004Y339904D01*
X29990Y339821D01*
X29963Y339724D01*
X29921Y339502D01*
X29879Y339224D01*
X29838Y338919D01*
X29810Y338573D01*
X29796Y338212D01*
Y333358D01*
X28229D01*
Y342636D01*
X29644D01*
Y341235D01*
X29671Y341263D01*
X29699Y341319D01*
X29741Y341374D01*
X29838Y341554D01*
X29976Y341748D01*
X30129Y341970D01*
X30295Y342192D01*
X30462Y342373D01*
X30559Y342456D01*
X30642Y342525D01*
X30670Y342539D01*
X30725Y342580D01*
X30822Y342622D01*
X30933Y342691D01*
X31086Y342747D01*
X31252Y342789D01*
X31446Y342830D01*
X31641Y342844D01*
X31724D01*
X31779Y342830D01*
D02*
G37*
G36*
X51611Y333358D02*
X50210D01*
Y334717D01*
X50196Y334703D01*
X50155Y334648D01*
X50100Y334578D01*
X50016Y334468D01*
X49905Y334356D01*
X49767Y334218D01*
X49614Y334079D01*
X49434Y333941D01*
X49226Y333788D01*
X49004Y333649D01*
X48768Y333511D01*
X48505Y333400D01*
X48213Y333289D01*
X47922Y333219D01*
X47603Y333164D01*
X47256Y333150D01*
X47118D01*
X46965Y333164D01*
X46757Y333192D01*
X46521Y333219D01*
X46258Y333275D01*
X45994Y333358D01*
X45717Y333455D01*
X45703D01*
X45689Y333469D01*
X45606Y333511D01*
X45481Y333580D01*
X45315Y333677D01*
X45148Y333788D01*
X44968Y333927D01*
X44802Y334079D01*
X44663Y334246D01*
X44649Y334273D01*
X44608Y334329D01*
X44552Y334440D01*
X44483Y334578D01*
X44400Y334745D01*
X44316Y334939D01*
X44247Y335161D01*
X44178Y335410D01*
Y335438D01*
X44164Y335494D01*
X44150Y335619D01*
X44136Y335771D01*
X44122Y335979D01*
X44108Y336229D01*
X44095Y336534D01*
Y336881D01*
Y342636D01*
X45662D01*
Y337491D01*
Y337477D01*
Y337435D01*
Y337380D01*
Y337297D01*
Y337186D01*
Y337075D01*
X45675Y336825D01*
Y336548D01*
X45703Y336270D01*
X45717Y336021D01*
X45731Y335910D01*
X45745Y335827D01*
X45759Y335799D01*
X45773Y335729D01*
X45814Y335605D01*
X45883Y335466D01*
X45967Y335313D01*
X46078Y335161D01*
X46216Y334995D01*
X46383Y334856D01*
X46410Y334842D01*
X46466Y334800D01*
X46577Y334745D01*
X46716Y334689D01*
X46882Y334620D01*
X47090Y334565D01*
X47326Y334523D01*
X47575Y334509D01*
X47700D01*
X47825Y334523D01*
X48005Y334551D01*
X48213Y334592D01*
X48435Y334662D01*
X48657Y334745D01*
X48893Y334870D01*
X48907D01*
X48921Y334883D01*
X48990Y334939D01*
X49101Y335022D01*
X49240Y335133D01*
X49378Y335272D01*
X49531Y335438D01*
X49669Y335632D01*
X49781Y335854D01*
Y335868D01*
X49794Y335882D01*
X49808Y335924D01*
X49822Y335965D01*
X49836Y336035D01*
X49864Y336118D01*
X49891Y336201D01*
X49919Y336312D01*
X49961Y336576D01*
X50002Y336881D01*
X50030Y337241D01*
X50044Y337657D01*
Y342636D01*
X51611D01*
Y333358D01*
D02*
G37*
G36*
X38131Y342830D02*
X38270D01*
X38436Y342802D01*
X38616Y342775D01*
X38825Y342733D01*
X39060Y342691D01*
X39296Y342622D01*
X39560Y342539D01*
X39809Y342428D01*
X40073Y342317D01*
X40336Y342164D01*
X40586Y341998D01*
X40835Y341804D01*
X41071Y341582D01*
X41085Y341568D01*
X41127Y341526D01*
X41182Y341457D01*
X41265Y341346D01*
X41349Y341221D01*
X41459Y341069D01*
X41570Y340888D01*
X41681Y340681D01*
X41792Y340445D01*
X41903Y340181D01*
X42014Y339904D01*
X42097Y339599D01*
X42181Y339266D01*
X42236Y338905D01*
X42278Y338517D01*
X42292Y338115D01*
Y338101D01*
Y338032D01*
Y337948D01*
X42278Y337824D01*
Y337671D01*
X42264Y337491D01*
X42250Y337297D01*
X42222Y337089D01*
X42167Y336645D01*
X42070Y336173D01*
X41931Y335716D01*
X41848Y335508D01*
X41751Y335300D01*
Y335286D01*
X41723Y335258D01*
X41695Y335202D01*
X41654Y335133D01*
X41598Y335050D01*
X41529Y334939D01*
X41349Y334717D01*
X41127Y334454D01*
X40863Y334190D01*
X40544Y333941D01*
X40184Y333705D01*
X40170D01*
X40142Y333677D01*
X40086Y333649D01*
X40003Y333621D01*
X39906Y333580D01*
X39795Y333524D01*
X39670Y333483D01*
X39518Y333427D01*
X39365Y333372D01*
X39185Y333330D01*
X38811Y333233D01*
X38394Y333178D01*
X37951Y333150D01*
X37868D01*
X37771Y333164D01*
X37632D01*
X37465Y333192D01*
X37271Y333219D01*
X37063Y333261D01*
X36827Y333302D01*
X36578Y333372D01*
X36328Y333455D01*
X36065Y333552D01*
X35801Y333677D01*
X35538Y333816D01*
X35288Y333982D01*
X35038Y334176D01*
X34803Y334398D01*
X34789Y334412D01*
X34747Y334454D01*
X34692Y334523D01*
X34622Y334634D01*
X34525Y334759D01*
X34428Y334911D01*
X34317Y335105D01*
X34206Y335313D01*
X34095Y335563D01*
X33984Y335827D01*
X33887Y336118D01*
X33790Y336437D01*
X33721Y336783D01*
X33665Y337158D01*
X33624Y337560D01*
X33610Y337990D01*
Y338004D01*
Y338018D01*
Y338101D01*
X33624Y338240D01*
X33638Y338406D01*
X33651Y338628D01*
X33679Y338878D01*
X33735Y339141D01*
X33790Y339432D01*
X33860Y339738D01*
X33957Y340056D01*
X34081Y340375D01*
X34206Y340694D01*
X34373Y340999D01*
X34567Y341291D01*
X34789Y341554D01*
X35038Y341804D01*
X35052Y341818D01*
X35094Y341846D01*
X35163Y341901D01*
X35246Y341970D01*
X35371Y342040D01*
X35510Y342137D01*
X35663Y342234D01*
X35857Y342331D01*
X36051Y342428D01*
X36273Y342511D01*
X36508Y342608D01*
X36772Y342678D01*
X37049Y342747D01*
X37327Y342802D01*
X37632Y342830D01*
X37951Y342844D01*
X38034D01*
X38131Y342830D01*
D02*
G37*
G36*
X101537Y61830D02*
X100798D01*
X100795D01*
X100790D01*
X100782D01*
X100770D01*
X100742Y61827D01*
X100704Y61825D01*
X100663Y61822D01*
X100622Y61817D01*
X100584Y61810D01*
X100551Y61799D01*
X100549Y61797D01*
X100539Y61794D01*
X100523Y61787D01*
X100505Y61774D01*
X100488Y61761D01*
X100467Y61743D01*
X100447Y61721D01*
X100429Y61695D01*
X100427Y61693D01*
X100424Y61683D01*
X100416Y61665D01*
X100409Y61645D01*
X100401Y61617D01*
X100396Y61586D01*
X100391Y61548D01*
X100389Y61510D01*
Y61492D01*
X100391Y61479D01*
Y61464D01*
X100394Y61446D01*
X100399Y61408D01*
X100409Y61363D01*
X100424Y61319D01*
X100444Y61279D01*
X100472Y61246D01*
X100478Y61243D01*
X100490Y61233D01*
X100500Y61228D01*
X100511Y61220D01*
X100526Y61213D01*
X100543Y61205D01*
X100566Y61197D01*
X100589Y61190D01*
X100615Y61182D01*
X100645Y61177D01*
X100678Y61172D01*
X100714Y61167D01*
X100754Y61164D01*
X100798D01*
X101537D01*
Y60994D01*
X100798D01*
X100795D01*
X100790D01*
X100780D01*
X100765D01*
X100749Y60997D01*
X100731D01*
X100686Y60999D01*
X100638Y61004D01*
X100587Y61015D01*
X100536Y61025D01*
X100490Y61040D01*
X100485Y61042D01*
X100472Y61048D01*
X100450Y61060D01*
X100424Y61076D01*
X100394Y61098D01*
X100363Y61124D01*
X100333Y61157D01*
X100305Y61197D01*
X100302Y61203D01*
X100295Y61218D01*
X100282Y61243D01*
X100272Y61276D01*
X100259Y61319D01*
X100246Y61370D01*
X100239Y61429D01*
X100236Y61495D01*
Y61525D01*
X100239Y61540D01*
Y61558D01*
X100244Y61599D01*
X100251Y61645D01*
X100262Y61695D01*
X100277Y61743D01*
X100297Y61789D01*
X100300Y61794D01*
X100310Y61807D01*
X100323Y61827D01*
X100343Y61853D01*
X100368Y61878D01*
X100399Y61906D01*
X100434Y61932D01*
X100475Y61952D01*
X100478D01*
X100480Y61954D01*
X100488Y61957D01*
X100498Y61959D01*
X100508Y61962D01*
X100523Y61967D01*
X100561Y61975D01*
X100607Y61985D01*
X100660Y61993D01*
X100726Y61997D01*
X100798Y62000D01*
X101537D01*
Y61830D01*
D02*
G37*
G36*
X100607Y60611D02*
X100604D01*
X100602D01*
X100587Y60606D01*
X100566Y60601D01*
X100539Y60593D01*
X100508Y60583D01*
X100478Y60567D01*
X100450Y60550D01*
X100424Y60527D01*
X100422Y60524D01*
X100414Y60514D01*
X100406Y60501D01*
X100396Y60481D01*
X100384Y60458D01*
X100376Y60430D01*
X100368Y60400D01*
X100366Y60364D01*
Y60359D01*
X100368Y60344D01*
X100371Y60324D01*
X100376Y60298D01*
X100386Y60268D01*
X100401Y60235D01*
X100422Y60202D01*
X100450Y60171D01*
X100455Y60169D01*
X100465Y60159D01*
X100485Y60146D01*
X100511Y60131D01*
X100543Y60118D01*
X100582Y60105D01*
X100625Y60095D01*
X100676Y60093D01*
X100678D01*
X100681D01*
X100688D01*
X100698D01*
X100721Y60098D01*
X100752Y60103D01*
X100787Y60110D01*
X100820Y60126D01*
X100856Y60143D01*
X100886Y60169D01*
X100889Y60171D01*
X100899Y60181D01*
X100912Y60199D01*
X100927Y60222D01*
X100940Y60250D01*
X100953Y60283D01*
X100963Y60324D01*
X100965Y60367D01*
Y60380D01*
X100963Y60395D01*
X100960Y60413D01*
X100958Y60435D01*
X100950Y60458D01*
X100942Y60484D01*
X100930Y60507D01*
X100927Y60509D01*
X100925Y60517D01*
X100914Y60527D01*
X100904Y60542D01*
X100876Y60573D01*
X100861Y60588D01*
X100841Y60601D01*
X100861Y60748D01*
X101519Y60623D01*
Y59986D01*
X101369D01*
Y60501D01*
X101024Y60567D01*
Y60565D01*
X101026Y60562D01*
X101036Y60547D01*
X101049Y60524D01*
X101064Y60494D01*
X101080Y60458D01*
X101092Y60418D01*
X101102Y60372D01*
X101105Y60326D01*
Y60311D01*
X101102Y60298D01*
Y60283D01*
X101100Y60268D01*
X101090Y60227D01*
X101077Y60184D01*
X101057Y60136D01*
X101026Y60087D01*
X101008Y60065D01*
X100988Y60042D01*
X100985Y60039D01*
X100983Y60037D01*
X100975Y60032D01*
X100968Y60024D01*
X100942Y60004D01*
X100907Y59983D01*
X100864Y59963D01*
X100813Y59943D01*
X100754Y59930D01*
X100724Y59925D01*
X100691D01*
X100688D01*
X100683D01*
X100673D01*
X100660Y59927D01*
X100648D01*
X100630Y59930D01*
X100587Y59938D01*
X100541Y59950D01*
X100490Y59968D01*
X100439Y59994D01*
X100391Y60026D01*
X100389Y60029D01*
X100384Y60032D01*
X100376Y60039D01*
X100368Y60049D01*
X100356Y60062D01*
X100343Y60077D01*
X100328Y60095D01*
X100315Y60115D01*
X100285Y60164D01*
X100262Y60222D01*
X100251Y60255D01*
X100244Y60288D01*
X100239Y60326D01*
X100236Y60364D01*
Y60382D01*
X100239Y60392D01*
Y60408D01*
X100241Y60425D01*
X100249Y60466D01*
X100259Y60512D01*
X100277Y60560D01*
X100300Y60606D01*
X100333Y60651D01*
X100338Y60656D01*
X100351Y60669D01*
X100373Y60687D01*
X100404Y60707D01*
X100439Y60730D01*
X100485Y60750D01*
X100536Y60766D01*
X100594Y60776D01*
X100607Y60611D01*
D02*
G37*
%LPC*%
G36*
X56709Y354372D02*
X56670D01*
X56643Y354367D01*
X56610Y354361D01*
X56565Y354350D01*
X56471Y354328D01*
X56360Y354278D01*
X56305Y354250D01*
X56244Y354212D01*
X56183Y354173D01*
X56122Y354117D01*
X56061Y354062D01*
X56000Y353996D01*
X55995Y353990D01*
X55989Y353979D01*
X55973Y353957D01*
X55951Y353924D01*
X55928Y353885D01*
X55906Y353841D01*
X55879Y353785D01*
X55851Y353719D01*
X55818Y353647D01*
X55790Y353564D01*
X55768Y353475D01*
X55746Y353375D01*
X55724Y353270D01*
X55707Y353159D01*
X55701Y353038D01*
X55696Y352905D01*
Y352899D01*
Y352872D01*
Y352838D01*
X55701Y352789D01*
X55707Y352728D01*
X55712Y352661D01*
X55718Y352584D01*
X55735Y352506D01*
X55768Y352334D01*
X55818Y352157D01*
X55851Y352074D01*
X55890Y351991D01*
X55934Y351914D01*
X55984Y351847D01*
X55989Y351842D01*
X55995Y351831D01*
X56012Y351814D01*
X56034Y351797D01*
X56061Y351770D01*
X56095Y351742D01*
X56178Y351681D01*
X56283Y351615D01*
X56399Y351565D01*
X56466Y351543D01*
X56532Y351526D01*
X56604Y351515D01*
X56681Y351509D01*
X56720D01*
X56754Y351515D01*
X56787Y351521D01*
X56831Y351526D01*
X56931Y351554D01*
X57041Y351592D01*
X57102Y351626D01*
X57163Y351659D01*
X57224Y351698D01*
X57285Y351742D01*
X57346Y351797D01*
X57401Y351858D01*
X57407Y351864D01*
X57412Y351875D01*
X57429Y351897D01*
X57446Y351925D01*
X57473Y351964D01*
X57495Y352008D01*
X57523Y352063D01*
X57551Y352130D01*
X57579Y352202D01*
X57606Y352279D01*
X57634Y352373D01*
X57656Y352473D01*
X57673Y352578D01*
X57689Y352694D01*
X57695Y352822D01*
X57700Y352955D01*
Y352960D01*
Y352988D01*
Y353021D01*
X57695Y353071D01*
X57689Y353132D01*
X57684Y353198D01*
X57678Y353270D01*
X57662Y353353D01*
X57628Y353525D01*
X57579Y353702D01*
X57545Y353791D01*
X57506Y353868D01*
X57457Y353946D01*
X57407Y354018D01*
X57401Y354023D01*
X57396Y354034D01*
X57379Y354051D01*
X57357Y354073D01*
X57329Y354101D01*
X57291Y354128D01*
X57207Y354195D01*
X57108Y354261D01*
X56992Y354317D01*
X56925Y354339D01*
X56853Y354356D01*
X56781Y354367D01*
X56709Y354372D01*
D02*
G37*
G36*
X34140Y355695D02*
X34012D01*
X33979Y355690D01*
X33924D01*
X33863Y355679D01*
X33791Y355668D01*
X33713Y355651D01*
X33625Y355635D01*
X33530Y355607D01*
X33431Y355574D01*
X33326Y355535D01*
X33226Y355485D01*
X33121Y355430D01*
X33015Y355363D01*
X32910Y355286D01*
X32811Y355197D01*
X32805Y355192D01*
X32789Y355175D01*
X32761Y355142D01*
X32733Y355103D01*
X32689Y355048D01*
X32650Y354981D01*
X32600Y354898D01*
X32556Y354810D01*
X32506Y354699D01*
X32456Y354577D01*
X32418Y354444D01*
X32379Y354295D01*
X32345Y354134D01*
X32318Y353957D01*
X32301Y353763D01*
X32296Y353553D01*
Y353542D01*
Y353514D01*
X32301Y353464D01*
Y353398D01*
X32312Y353320D01*
X32323Y353232D01*
X32334Y353132D01*
X32357Y353027D01*
X32384Y352910D01*
X32418Y352789D01*
X32456Y352672D01*
X32506Y352550D01*
X32562Y352429D01*
X32628Y352312D01*
X32700Y352202D01*
X32789Y352096D01*
X32794Y352091D01*
X32811Y352074D01*
X32838Y352047D01*
X32877Y352013D01*
X32927Y351974D01*
X32988Y351930D01*
X33054Y351880D01*
X33132Y351836D01*
X33215Y351786D01*
X33314Y351736D01*
X33414Y351692D01*
X33525Y351653D01*
X33641Y351620D01*
X33769Y351592D01*
X33896Y351576D01*
X34034Y351570D01*
X34068D01*
X34106Y351576D01*
X34162Y351581D01*
X34228Y351587D01*
X34300Y351598D01*
X34389Y351615D01*
X34477Y351637D01*
X34577Y351664D01*
X34677Y351698D01*
X34782Y351742D01*
X34887Y351797D01*
X34992Y351858D01*
X35097Y351925D01*
X35197Y352008D01*
X35291Y352102D01*
X35297Y352107D01*
X35313Y352130D01*
X35336Y352157D01*
X35369Y352202D01*
X35408Y352257D01*
X35452Y352323D01*
X35496Y352401D01*
X35540Y352495D01*
X35585Y352595D01*
X35635Y352711D01*
X35673Y352833D01*
X35712Y352971D01*
X35745Y353121D01*
X35768Y353276D01*
X35784Y353447D01*
X35790Y353625D01*
Y353630D01*
Y353652D01*
Y353685D01*
X35784Y353730D01*
Y353785D01*
X35779Y353846D01*
X35773Y353918D01*
X35762Y353996D01*
X35740Y354167D01*
X35701Y354350D01*
X35646Y354533D01*
X35574Y354715D01*
Y354721D01*
X35563Y354738D01*
X35552Y354760D01*
X35535Y354793D01*
X35513Y354832D01*
X35485Y354876D01*
X35419Y354981D01*
X35330Y355098D01*
X35225Y355214D01*
X35103Y355330D01*
X34959Y355435D01*
X34953Y355441D01*
X34942Y355446D01*
X34920Y355457D01*
X34887Y355474D01*
X34848Y355496D01*
X34804Y355518D01*
X34754Y355541D01*
X34693Y355568D01*
X34627Y355590D01*
X34560Y355612D01*
X34405Y355657D01*
X34234Y355685D01*
X34140Y355695D01*
D02*
G37*
G36*
X29239Y355685D02*
X29200D01*
X29167Y355679D01*
X29134Y355673D01*
X29090Y355668D01*
X28990Y355640D01*
X28879Y355596D01*
X28824Y355568D01*
X28763Y355529D01*
X28708Y355491D01*
X28652Y355441D01*
X28597Y355385D01*
X28547Y355319D01*
X28541Y355313D01*
X28536Y355297D01*
X28519Y355269D01*
X28497Y355225D01*
X28475Y355169D01*
X28447Y355103D01*
X28414Y355025D01*
X28386Y354926D01*
X28359Y354815D01*
X28326Y354693D01*
X28298Y354549D01*
X28276Y354394D01*
X28254Y354223D01*
X28242Y354029D01*
X28231Y353824D01*
X28226Y353597D01*
Y353591D01*
Y353580D01*
Y353564D01*
Y353542D01*
Y353514D01*
Y353475D01*
X28231Y353392D01*
X28237Y353292D01*
X28242Y353176D01*
X28248Y353049D01*
X28265Y352916D01*
X28298Y352634D01*
X28320Y352495D01*
X28348Y352357D01*
X28381Y352229D01*
X28425Y352113D01*
X28470Y352008D01*
X28519Y351919D01*
X28525Y351914D01*
X28530Y351903D01*
X28547Y351880D01*
X28575Y351853D01*
X28602Y351825D01*
X28636Y351792D01*
X28719Y351714D01*
X28824Y351637D01*
X28951Y351576D01*
X29018Y351548D01*
X29090Y351526D01*
X29167Y351515D01*
X29245Y351509D01*
X29261D01*
X29289Y351515D01*
X29317D01*
X29355Y351521D01*
X29400Y351532D01*
X29499Y351559D01*
X29555Y351581D01*
X29610Y351609D01*
X29671Y351642D01*
X29732Y351687D01*
X29793Y351731D01*
X29854Y351786D01*
X29915Y351853D01*
X29970Y351925D01*
X29976Y351930D01*
X29981Y351947D01*
X29998Y351969D01*
X30014Y352008D01*
X30042Y352058D01*
X30064Y352124D01*
X30092Y352202D01*
X30120Y352290D01*
X30147Y352395D01*
X30175Y352517D01*
X30203Y352650D01*
X30225Y352805D01*
X30241Y352977D01*
X30258Y353165D01*
X30264Y353370D01*
X30269Y353597D01*
Y353602D01*
Y353614D01*
Y353630D01*
Y353652D01*
Y353680D01*
Y353713D01*
X30264Y353802D01*
X30258Y353901D01*
X30252Y354018D01*
X30247Y354145D01*
X30230Y354278D01*
X30197Y354560D01*
X30169Y354699D01*
X30142Y354832D01*
X30108Y354959D01*
X30070Y355081D01*
X30025Y355181D01*
X29970Y355269D01*
X29964Y355275D01*
X29959Y355286D01*
X29942Y355308D01*
X29920Y355336D01*
X29887Y355363D01*
X29854Y355402D01*
X29815Y355441D01*
X29771Y355480D01*
X29666Y355552D01*
X29538Y355618D01*
X29472Y355646D01*
X29394Y355668D01*
X29322Y355679D01*
X29239Y355685D01*
D02*
G37*
G36*
X287709Y354372D02*
X287670D01*
X287643Y354367D01*
X287610Y354361D01*
X287565Y354350D01*
X287471Y354328D01*
X287360Y354278D01*
X287305Y354250D01*
X287244Y354212D01*
X287183Y354173D01*
X287122Y354117D01*
X287061Y354062D01*
X287000Y353996D01*
X286995Y353990D01*
X286989Y353979D01*
X286973Y353957D01*
X286951Y353924D01*
X286928Y353885D01*
X286906Y353841D01*
X286879Y353785D01*
X286851Y353719D01*
X286818Y353647D01*
X286790Y353564D01*
X286768Y353475D01*
X286746Y353375D01*
X286724Y353270D01*
X286707Y353159D01*
X286701Y353038D01*
X286696Y352905D01*
Y352899D01*
Y352872D01*
Y352838D01*
X286701Y352789D01*
X286707Y352728D01*
X286712Y352661D01*
X286718Y352584D01*
X286735Y352506D01*
X286768Y352334D01*
X286818Y352157D01*
X286851Y352074D01*
X286890Y351991D01*
X286934Y351914D01*
X286984Y351847D01*
X286989Y351842D01*
X286995Y351831D01*
X287012Y351814D01*
X287034Y351797D01*
X287061Y351770D01*
X287094Y351742D01*
X287178Y351681D01*
X287283Y351615D01*
X287399Y351565D01*
X287465Y351543D01*
X287532Y351526D01*
X287604Y351515D01*
X287682Y351509D01*
X287720D01*
X287754Y351515D01*
X287787Y351521D01*
X287831Y351526D01*
X287931Y351554D01*
X288041Y351592D01*
X288102Y351626D01*
X288163Y351659D01*
X288224Y351698D01*
X288285Y351742D01*
X288346Y351797D01*
X288401Y351858D01*
X288407Y351864D01*
X288412Y351875D01*
X288429Y351897D01*
X288446Y351925D01*
X288473Y351964D01*
X288496Y352008D01*
X288523Y352063D01*
X288551Y352130D01*
X288578Y352202D01*
X288606Y352279D01*
X288634Y352373D01*
X288656Y352473D01*
X288673Y352578D01*
X288689Y352694D01*
X288695Y352822D01*
X288700Y352955D01*
Y352960D01*
Y352988D01*
Y353021D01*
X288695Y353071D01*
X288689Y353132D01*
X288684Y353198D01*
X288678Y353270D01*
X288662Y353353D01*
X288628Y353525D01*
X288578Y353702D01*
X288545Y353791D01*
X288507Y353868D01*
X288457Y353946D01*
X288407Y354018D01*
X288401Y354023D01*
X288396Y354034D01*
X288379Y354051D01*
X288357Y354073D01*
X288329Y354101D01*
X288291Y354128D01*
X288207Y354195D01*
X288108Y354261D01*
X287992Y354317D01*
X287925Y354339D01*
X287853Y354356D01*
X287781Y354367D01*
X287709Y354372D01*
D02*
G37*
G36*
X265140Y355695D02*
X265012D01*
X264979Y355690D01*
X264924D01*
X264863Y355679D01*
X264791Y355668D01*
X264713Y355651D01*
X264625Y355635D01*
X264531Y355607D01*
X264431Y355574D01*
X264326Y355535D01*
X264226Y355485D01*
X264121Y355430D01*
X264016Y355363D01*
X263910Y355286D01*
X263811Y355197D01*
X263805Y355192D01*
X263789Y355175D01*
X263761Y355142D01*
X263733Y355103D01*
X263689Y355048D01*
X263650Y354981D01*
X263600Y354898D01*
X263556Y354810D01*
X263506Y354699D01*
X263456Y354577D01*
X263417Y354444D01*
X263379Y354295D01*
X263346Y354134D01*
X263318Y353957D01*
X263301Y353763D01*
X263296Y353553D01*
Y353542D01*
Y353514D01*
X263301Y353464D01*
Y353398D01*
X263312Y353320D01*
X263323Y353232D01*
X263334Y353132D01*
X263357Y353027D01*
X263384Y352910D01*
X263417Y352789D01*
X263456Y352672D01*
X263506Y352550D01*
X263561Y352429D01*
X263628Y352312D01*
X263700Y352202D01*
X263789Y352096D01*
X263794Y352091D01*
X263811Y352074D01*
X263838Y352047D01*
X263877Y352013D01*
X263927Y351974D01*
X263988Y351930D01*
X264054Y351880D01*
X264132Y351836D01*
X264215Y351786D01*
X264314Y351736D01*
X264414Y351692D01*
X264525Y351653D01*
X264641Y351620D01*
X264769Y351592D01*
X264896Y351576D01*
X265034Y351570D01*
X265068D01*
X265106Y351576D01*
X265162Y351581D01*
X265228Y351587D01*
X265300Y351598D01*
X265389Y351615D01*
X265477Y351637D01*
X265577Y351664D01*
X265677Y351698D01*
X265782Y351742D01*
X265887Y351797D01*
X265992Y351858D01*
X266098Y351925D01*
X266197Y352008D01*
X266291Y352102D01*
X266297Y352107D01*
X266313Y352130D01*
X266336Y352157D01*
X266369Y352202D01*
X266408Y352257D01*
X266452Y352323D01*
X266496Y352401D01*
X266541Y352495D01*
X266585Y352595D01*
X266635Y352711D01*
X266673Y352833D01*
X266712Y352971D01*
X266745Y353121D01*
X266768Y353276D01*
X266784Y353447D01*
X266790Y353625D01*
Y353630D01*
Y353652D01*
Y353685D01*
X266784Y353730D01*
Y353785D01*
X266779Y353846D01*
X266773Y353918D01*
X266762Y353996D01*
X266740Y354167D01*
X266701Y354350D01*
X266646Y354533D01*
X266574Y354715D01*
Y354721D01*
X266563Y354738D01*
X266551Y354760D01*
X266535Y354793D01*
X266513Y354832D01*
X266485Y354876D01*
X266419Y354981D01*
X266330Y355098D01*
X266225Y355214D01*
X266103Y355330D01*
X265959Y355435D01*
X265954Y355441D01*
X265942Y355446D01*
X265920Y355457D01*
X265887Y355474D01*
X265848Y355496D01*
X265804Y355518D01*
X265754Y355541D01*
X265693Y355568D01*
X265627Y355590D01*
X265560Y355612D01*
X265405Y355657D01*
X265234Y355685D01*
X265140Y355695D01*
D02*
G37*
G36*
X260239Y355685D02*
X260200D01*
X260167Y355679D01*
X260134Y355673D01*
X260090Y355668D01*
X259990Y355640D01*
X259879Y355596D01*
X259824Y355568D01*
X259763Y355529D01*
X259708Y355491D01*
X259652Y355441D01*
X259597Y355385D01*
X259547Y355319D01*
X259541Y355313D01*
X259536Y355297D01*
X259519Y355269D01*
X259497Y355225D01*
X259475Y355169D01*
X259447Y355103D01*
X259414Y355025D01*
X259386Y354926D01*
X259359Y354815D01*
X259326Y354693D01*
X259298Y354549D01*
X259276Y354394D01*
X259254Y354223D01*
X259242Y354029D01*
X259231Y353824D01*
X259226Y353597D01*
Y353591D01*
Y353580D01*
Y353564D01*
Y353542D01*
Y353514D01*
Y353475D01*
X259231Y353392D01*
X259237Y353292D01*
X259242Y353176D01*
X259248Y353049D01*
X259265Y352916D01*
X259298Y352634D01*
X259320Y352495D01*
X259348Y352357D01*
X259381Y352229D01*
X259425Y352113D01*
X259470Y352008D01*
X259519Y351919D01*
X259525Y351914D01*
X259530Y351903D01*
X259547Y351880D01*
X259575Y351853D01*
X259602Y351825D01*
X259636Y351792D01*
X259719Y351714D01*
X259824Y351637D01*
X259951Y351576D01*
X260018Y351548D01*
X260090Y351526D01*
X260167Y351515D01*
X260245Y351509D01*
X260261D01*
X260289Y351515D01*
X260317D01*
X260355Y351521D01*
X260400Y351532D01*
X260499Y351559D01*
X260555Y351581D01*
X260610Y351609D01*
X260671Y351642D01*
X260732Y351687D01*
X260793Y351731D01*
X260854Y351786D01*
X260915Y351853D01*
X260970Y351925D01*
X260976Y351930D01*
X260981Y351947D01*
X260998Y351969D01*
X261014Y352008D01*
X261042Y352058D01*
X261064Y352124D01*
X261092Y352202D01*
X261119Y352290D01*
X261147Y352395D01*
X261175Y352517D01*
X261203Y352650D01*
X261225Y352805D01*
X261241Y352977D01*
X261258Y353165D01*
X261264Y353370D01*
X261269Y353597D01*
Y353602D01*
Y353614D01*
Y353630D01*
Y353652D01*
Y353680D01*
Y353713D01*
X261264Y353802D01*
X261258Y353901D01*
X261252Y354018D01*
X261247Y354145D01*
X261230Y354278D01*
X261197Y354560D01*
X261169Y354699D01*
X261142Y354832D01*
X261108Y354959D01*
X261070Y355081D01*
X261025Y355181D01*
X260970Y355269D01*
X260965Y355275D01*
X260959Y355286D01*
X260942Y355308D01*
X260920Y355336D01*
X260887Y355363D01*
X260854Y355402D01*
X260815Y355441D01*
X260771Y355480D01*
X260665Y355552D01*
X260538Y355618D01*
X260472Y355646D01*
X260394Y355668D01*
X260322Y355679D01*
X260239Y355685D01*
D02*
G37*
G36*
X298504Y341540D02*
X298407D01*
X298324Y341526D01*
X298241Y341513D01*
X298130Y341499D01*
X297894Y341429D01*
X297617Y341332D01*
X297464Y341263D01*
X297312Y341180D01*
X297173Y341083D01*
X297020Y340958D01*
X296882Y340833D01*
X296743Y340681D01*
X296729Y340667D01*
X296715Y340639D01*
X296674Y340583D01*
X296632Y340514D01*
X296577Y340431D01*
X296521Y340306D01*
X296466Y340181D01*
X296396Y340015D01*
X296327Y339848D01*
X296271Y339640D01*
X296216Y339418D01*
X296161Y339183D01*
X296119Y338905D01*
X296077Y338628D01*
X296063Y338309D01*
X296050Y337976D01*
Y337962D01*
Y337893D01*
Y337810D01*
X296063Y337685D01*
X296077Y337532D01*
X296091Y337366D01*
X296119Y337186D01*
X296147Y336978D01*
X296230Y336548D01*
X296369Y336104D01*
X296452Y335896D01*
X296549Y335688D01*
X296674Y335494D01*
X296798Y335313D01*
X296812Y335300D01*
X296826Y335272D01*
X296882Y335230D01*
X296937Y335175D01*
X297006Y335105D01*
X297090Y335036D01*
X297298Y334883D01*
X297561Y334717D01*
X297866Y334578D01*
X298033Y334523D01*
X298199Y334481D01*
X298379Y334454D01*
X298574Y334440D01*
X298671D01*
X298754Y334454D01*
X298837Y334468D01*
X298948Y334481D01*
X299184Y334551D01*
X299461Y334648D01*
X299614Y334717D01*
X299753Y334786D01*
X299905Y334883D01*
X300058Y334995D01*
X300196Y335119D01*
X300335Y335272D01*
X300349Y335286D01*
X300363Y335313D01*
X300404Y335355D01*
X300446Y335438D01*
X300501Y335522D01*
X300571Y335632D01*
X300640Y335757D01*
X300709Y335910D01*
X300765Y336076D01*
X300834Y336270D01*
X300903Y336492D01*
X300959Y336714D01*
X301001Y336964D01*
X301042Y337241D01*
X301056Y337532D01*
X301070Y337851D01*
Y337879D01*
Y337935D01*
Y338032D01*
X301056Y338157D01*
X301042Y338323D01*
X301028Y338503D01*
X301014Y338697D01*
X300973Y338919D01*
X300890Y339363D01*
X300751Y339835D01*
X300668Y340056D01*
X300571Y340265D01*
X300460Y340459D01*
X300321Y340639D01*
X300307Y340653D01*
X300293Y340681D01*
X300252Y340722D01*
X300196Y340778D01*
X300113Y340847D01*
X300030Y340930D01*
X299822Y341097D01*
X299558Y341249D01*
X299239Y341402D01*
X299073Y341457D01*
X298893Y341499D01*
X298699Y341526D01*
X298504Y341540D01*
D02*
G37*
G36*
X268951D02*
X268840D01*
X268757Y341526D01*
X268659Y341513D01*
X268535Y341499D01*
X268271Y341429D01*
X267952Y341319D01*
X267800Y341249D01*
X267633Y341166D01*
X267467Y341069D01*
X267300Y340944D01*
X267148Y340805D01*
X266995Y340653D01*
X266981Y340639D01*
X266968Y340611D01*
X266926Y340556D01*
X266870Y340486D01*
X266815Y340389D01*
X266746Y340278D01*
X266676Y340140D01*
X266607Y339987D01*
X266538Y339807D01*
X266468Y339613D01*
X266399Y339391D01*
X266343Y339155D01*
X266288Y338891D01*
X266246Y338614D01*
X266232Y338309D01*
X266219Y337990D01*
Y337976D01*
Y337907D01*
Y337824D01*
X266232Y337699D01*
X266246Y337546D01*
X266260Y337380D01*
X266288Y337186D01*
X266316Y336992D01*
X266413Y336548D01*
X266551Y336104D01*
X266635Y335896D01*
X266746Y335688D01*
X266857Y335494D01*
X266995Y335313D01*
X267009Y335300D01*
X267037Y335272D01*
X267078Y335230D01*
X267134Y335175D01*
X267217Y335105D01*
X267300Y335036D01*
X267411Y334953D01*
X267536Y334883D01*
X267813Y334717D01*
X268146Y334578D01*
X268327Y334523D01*
X268535Y334481D01*
X268729Y334454D01*
X268951Y334440D01*
X269062D01*
X269145Y334454D01*
X269242Y334468D01*
X269367Y334481D01*
X269630Y334551D01*
X269935Y334662D01*
X270102Y334731D01*
X270268Y334814D01*
X270421Y334911D01*
X270587Y335036D01*
X270740Y335175D01*
X270892Y335327D01*
X270906Y335341D01*
X270920Y335369D01*
X270962Y335424D01*
X271017Y335494D01*
X271073Y335591D01*
X271142Y335702D01*
X271211Y335840D01*
X271294Y336007D01*
X271364Y336173D01*
X271433Y336381D01*
X271502Y336603D01*
X271558Y336853D01*
X271614Y337116D01*
X271655Y337408D01*
X271669Y337713D01*
X271683Y338046D01*
Y338059D01*
Y338115D01*
Y338212D01*
X271669Y338323D01*
X271655Y338475D01*
X271641Y338642D01*
X271614Y338822D01*
X271586Y339016D01*
X271489Y339432D01*
X271433Y339654D01*
X271350Y339876D01*
X271253Y340084D01*
X271156Y340292D01*
X271031Y340472D01*
X270892Y340653D01*
X270879Y340667D01*
X270851Y340694D01*
X270809Y340736D01*
X270754Y340792D01*
X270670Y340861D01*
X270587Y340930D01*
X270476Y341013D01*
X270365Y341097D01*
X270074Y341263D01*
X269741Y341402D01*
X269561Y341457D01*
X269367Y341499D01*
X269159Y341526D01*
X268951Y341540D01*
D02*
G37*
G36*
X67504D02*
X67407D01*
X67324Y341526D01*
X67241Y341513D01*
X67130Y341499D01*
X66894Y341429D01*
X66617Y341332D01*
X66464Y341263D01*
X66312Y341180D01*
X66173Y341083D01*
X66020Y340958D01*
X65882Y340833D01*
X65743Y340681D01*
X65729Y340667D01*
X65715Y340639D01*
X65674Y340583D01*
X65632Y340514D01*
X65577Y340431D01*
X65521Y340306D01*
X65466Y340181D01*
X65396Y340015D01*
X65327Y339848D01*
X65272Y339640D01*
X65216Y339418D01*
X65161Y339183D01*
X65119Y338905D01*
X65077Y338628D01*
X65064Y338309D01*
X65050Y337976D01*
Y337962D01*
Y337893D01*
Y337810D01*
X65064Y337685D01*
X65077Y337532D01*
X65091Y337366D01*
X65119Y337186D01*
X65147Y336978D01*
X65230Y336548D01*
X65369Y336104D01*
X65452Y335896D01*
X65549Y335688D01*
X65674Y335494D01*
X65799Y335313D01*
X65812Y335300D01*
X65826Y335272D01*
X65882Y335230D01*
X65937Y335175D01*
X66006Y335105D01*
X66090Y335036D01*
X66298Y334883D01*
X66561Y334717D01*
X66866Y334578D01*
X67033Y334523D01*
X67199Y334481D01*
X67379Y334454D01*
X67574Y334440D01*
X67671D01*
X67754Y334454D01*
X67837Y334468D01*
X67948Y334481D01*
X68184Y334551D01*
X68461Y334648D01*
X68614Y334717D01*
X68752Y334786D01*
X68905Y334883D01*
X69058Y334995D01*
X69196Y335119D01*
X69335Y335272D01*
X69349Y335286D01*
X69363Y335313D01*
X69404Y335355D01*
X69446Y335438D01*
X69501Y335522D01*
X69571Y335632D01*
X69640Y335757D01*
X69709Y335910D01*
X69765Y336076D01*
X69834Y336270D01*
X69903Y336492D01*
X69959Y336714D01*
X70001Y336964D01*
X70042Y337241D01*
X70056Y337532D01*
X70070Y337851D01*
Y337879D01*
Y337935D01*
Y338032D01*
X70056Y338157D01*
X70042Y338323D01*
X70028Y338503D01*
X70015Y338697D01*
X69973Y338919D01*
X69890Y339363D01*
X69751Y339835D01*
X69668Y340056D01*
X69571Y340265D01*
X69460Y340459D01*
X69321Y340639D01*
X69307Y340653D01*
X69293Y340681D01*
X69252Y340722D01*
X69196Y340778D01*
X69113Y340847D01*
X69030Y340930D01*
X68822Y341097D01*
X68558Y341249D01*
X68239Y341402D01*
X68073Y341457D01*
X67893Y341499D01*
X67698Y341526D01*
X67504Y341540D01*
D02*
G37*
G36*
X37951D02*
X37840D01*
X37757Y341526D01*
X37659Y341513D01*
X37535Y341499D01*
X37271Y341429D01*
X36952Y341319D01*
X36800Y341249D01*
X36633Y341166D01*
X36467Y341069D01*
X36300Y340944D01*
X36148Y340805D01*
X35995Y340653D01*
X35981Y340639D01*
X35968Y340611D01*
X35926Y340556D01*
X35870Y340486D01*
X35815Y340389D01*
X35746Y340278D01*
X35676Y340140D01*
X35607Y339987D01*
X35538Y339807D01*
X35468Y339613D01*
X35399Y339391D01*
X35343Y339155D01*
X35288Y338891D01*
X35246Y338614D01*
X35233Y338309D01*
X35219Y337990D01*
Y337976D01*
Y337907D01*
Y337824D01*
X35233Y337699D01*
X35246Y337546D01*
X35260Y337380D01*
X35288Y337186D01*
X35316Y336992D01*
X35413Y336548D01*
X35552Y336104D01*
X35635Y335896D01*
X35746Y335688D01*
X35857Y335494D01*
X35995Y335313D01*
X36009Y335300D01*
X36037Y335272D01*
X36079Y335230D01*
X36134Y335175D01*
X36217Y335105D01*
X36300Y335036D01*
X36411Y334953D01*
X36536Y334883D01*
X36813Y334717D01*
X37146Y334578D01*
X37327Y334523D01*
X37535Y334481D01*
X37729Y334454D01*
X37951Y334440D01*
X38062D01*
X38145Y334454D01*
X38242Y334468D01*
X38367Y334481D01*
X38630Y334551D01*
X38935Y334662D01*
X39102Y334731D01*
X39268Y334814D01*
X39421Y334911D01*
X39587Y335036D01*
X39740Y335175D01*
X39892Y335327D01*
X39906Y335341D01*
X39920Y335369D01*
X39962Y335424D01*
X40017Y335494D01*
X40073Y335591D01*
X40142Y335702D01*
X40211Y335840D01*
X40294Y336007D01*
X40364Y336173D01*
X40433Y336381D01*
X40503Y336603D01*
X40558Y336853D01*
X40613Y337116D01*
X40655Y337408D01*
X40669Y337713D01*
X40683Y338046D01*
Y338059D01*
Y338115D01*
Y338212D01*
X40669Y338323D01*
X40655Y338475D01*
X40641Y338642D01*
X40613Y338822D01*
X40586Y339016D01*
X40489Y339432D01*
X40433Y339654D01*
X40350Y339876D01*
X40253Y340084D01*
X40156Y340292D01*
X40031Y340472D01*
X39892Y340653D01*
X39878Y340667D01*
X39851Y340694D01*
X39809Y340736D01*
X39754Y340792D01*
X39670Y340861D01*
X39587Y340930D01*
X39476Y341013D01*
X39365Y341097D01*
X39074Y341263D01*
X38741Y341402D01*
X38561Y341457D01*
X38367Y341499D01*
X38159Y341526D01*
X37951Y341540D01*
D02*
G37*
%LPD*%
D11*
X-18000Y348000D02*
X102000D01*
X213000D02*
X333000D01*
M02*
