G04*
G04 #@! TF.GenerationSoftware,Altium Limited,Altium NEXUS,5.8.2 (18)*
G04*
G04 Layer_Color=32768*
%FSLAX44Y44*%
%MOMM*%
G71*
G04*
G04 #@! TF.SameCoordinates,3A1DB9EE-8D2C-4681-89B5-BFB965533D06*
G04*
G04*
G04 #@! TF.FilePolarity,Positive*
G04*
G01*
G75*
%ADD11C,0.1000*%
%ADD70C,0.0500*%
D11*
X157500Y282000D02*
Y292000D01*
X152500Y287000D02*
X162500D01*
X117000Y241000D02*
Y251000D01*
X112000Y246000D02*
X122000D01*
X37000Y403000D02*
X47000D01*
X42000Y398000D02*
Y408000D01*
X268000Y403000D02*
X278000D01*
X273000Y398000D02*
Y408000D01*
X230500Y279000D02*
Y289000D01*
X225500Y284000D02*
X235500D01*
X239750Y260000D02*
Y270000D01*
X234750Y265000D02*
X244750D01*
X220000Y60000D02*
Y65000D01*
X217500Y62500D02*
X222500D01*
X196000Y60500D02*
Y65500D01*
X193500Y63000D02*
X198500D01*
X206000Y194000D02*
X216000D01*
X211000Y189000D02*
Y199000D01*
X91257Y61350D02*
Y66350D01*
X88757Y63850D02*
X93757D01*
X103257Y38000D02*
X113257D01*
X108257Y33000D02*
Y43000D01*
X60507Y92000D02*
X66006D01*
X63257Y89250D02*
Y94750D01*
X122256Y75000D02*
Y85000D01*
X117256Y80000D02*
X127256D01*
D70*
X188250Y256250D02*
Y317750D01*
X126750Y256250D02*
Y317750D01*
Y256250D02*
X188250D01*
X126750Y317750D02*
X188250D01*
X8980Y356010D02*
X75020D01*
Y449990D01*
X8980D02*
X75020D01*
X8980Y356010D02*
Y449990D01*
X239980Y356010D02*
X306020D01*
Y449990D01*
X239980D02*
X306020D01*
X239980Y356010D02*
Y449990D01*
X32400Y319100D02*
X71600D01*
X32400Y286900D02*
Y319100D01*
Y286900D02*
X71600D01*
Y319100D01*
X225000Y51250D02*
Y73750D01*
X215000Y51250D02*
X225000D01*
X215000D02*
Y73750D01*
X225000D01*
X191000Y51750D02*
Y74250D01*
Y51750D02*
X201000D01*
Y74250D01*
X191000D02*
X201000D01*
X99256Y56550D02*
Y71150D01*
X83257D02*
X99256D01*
X83257Y56550D02*
Y71150D01*
Y56550D02*
X99256D01*
X70757Y88000D02*
Y96000D01*
X55757Y88000D02*
Y96000D01*
Y88000D02*
X70757D01*
X55757Y96000D02*
X70757D01*
M02*
