M48
;Layer_Color=9474304
;FILE_FORMAT=4:4
METRIC,LZ
;TYPE=PLATED
T1F00S00C0.3000
T2F00S00C0.4000
T3F00S00C1.0000
%
T01
X0001475Y000395
X000135Y0006525
X0001225Y0009
X0001325Y0011725
X00050257Y00092
X00071256Y000825
X00096257Y00078
X00091Y00053
X0005025Y0001775
X0021175Y000175
X002375Y00087
X0030475Y000905
X00304Y0006575
X00289Y0003825
X0030475Y00116125
X00193Y00125
X00155Y00124
X0017325Y001515
X00147Y0018
X0016375Y002115
X00165Y00245
X00148Y00234638
X0015312Y00320966
X00148621Y00328225
X0015675Y00339
X00168415Y00329951
X00176309Y00333209
X00184845Y00333471
X00193385
X00201925
X00213253Y00333626
X00221772Y00334222
X00230279Y00333471
X00238819
X00247359
X00255899
X00264393Y00334358
X0026Y00343
X00259046Y00320529
X00250506
X00241966
X00233426
X00224886
X00216404Y00319538
X0020627Y00320529
X0019773
X0018919
X0018065
X00162901Y0032343
X00197Y0030625
X00267525Y00321544
X00274696Y00326181
X00278804Y00333669
X00287Y00342
X0028275Y0030425
X002545Y0027675
X00268Y00248
X0028
X00297Y0024425
X0026325Y00216
X00259Y00195
X00252Y00201
X003Y001805
X00216Y00167
X0011375Y001705
X000615Y001695
X0001325Y00156
X0002575Y002215
X0004425Y0025175
X00047051Y00321719
X00055508Y00320529
X00064Y00321
X00072588Y00320529
X00081128
X00089668
X0009815Y00319538
X00107Y00318
X00115272Y00320529
X00123812
X00132352
X00132827Y00333471
X00124287
X00115747
X00102212Y00333316
X00093731Y00334322
X00085233Y00333471
X00076693
X00068154
X00059613
X00051094Y00334055
X00056Y003415
X0003025Y0034175
X00036052Y0033411
X00040001Y00326539
X00141329Y0033267
X00139201Y00246635
T02
X00049Y0004
X00079Y00038
X000695Y0002125
X00057837Y00121163
X00102Y00138
X00113
X00221Y00127
X002205Y0003725
X00196
X00191Y00144
X00204Y00165
X00223Y001565
X00232Y0015
X00235Y00198
X0017725Y0019425
X00178Y00177
X00192687Y00244688
X00226Y00254
X00156Y00277
X0015Y00295
X00167
X00125Y0029065
X00099238Y0029
X001Y00278
X00101Y002555
X00091Y0025
X00078Y00251
X00069Y00267
Y00281
X00052Y00289
X00031Y00318
X00095Y00311
X00133Y00262999
X00128313Y00226828
X001185Y002275
X000955Y0022025
T03
X0Y000274
Y000528
Y000782
Y001036
Y00129
X00141Y0
X001664
X00315Y000274
Y000528
Y000782
X00314Y001036
X00315Y00129
Y00267
Y002924
X0Y00292422
Y00267022
M30
