G04*
G04 #@! TF.GenerationSoftware,Altium Limited,Altium NEXUS,5.8.2 (18)*
G04*
G04 Layer_Physical_Order=3*
G04 Layer_Color=128*
%FSLAX44Y44*%
%MOMM*%
G71*
G04*
G04 #@! TF.SameCoordinates,3A1DB9EE-8D2C-4681-89B5-BFB965533D06*
G04*
G04*
G04 #@! TF.FilePolarity,Negative*
G04*
G01*
G75*
%ADD10C,0.2500*%
%ADD60C,0.1700*%
%ADD64C,1.0160*%
%ADD66C,1.5000*%
%ADD67C,0.8000*%
%ADD68C,0.9000*%
%ADD69R,31.4000X10.2000*%
D10*
X106000Y311000D02*
Y351000D01*
X92000Y297000D02*
X106000Y311000D01*
X177000Y134000D02*
X316000D01*
X163000Y148000D02*
X177000Y134000D01*
X163000Y148000D02*
Y205000D01*
X105000Y263000D02*
X163000Y205000D01*
X101000Y263000D02*
X105000D01*
X92000Y272000D02*
X101000Y263000D01*
X92000Y272000D02*
Y297000D01*
D60*
X76700Y15698D02*
Y8700D01*
X81365D01*
X83698Y14531D02*
X84864Y15698D01*
X87197D01*
X88363Y14531D01*
Y13365D01*
X87197Y12199D01*
X86030D01*
X87197D01*
X88363Y11033D01*
Y9866D01*
X87197Y8700D01*
X84864D01*
X83698Y9866D01*
D64*
X0Y0D02*
Y450000D01*
X315000D01*
Y0D02*
Y450000D01*
X0Y0D02*
X315000D01*
D66*
Y292400D02*
D03*
Y267000D02*
D03*
X141000Y0D02*
D03*
X166400D02*
D03*
X0Y129000D02*
D03*
Y103600D02*
D03*
Y52800D02*
D03*
Y27400D02*
D03*
Y78200D02*
D03*
Y267022D02*
D03*
Y292422D02*
D03*
X315000Y129000D02*
D03*
X314000Y103600D02*
D03*
X315000Y78200D02*
D03*
Y52800D02*
D03*
Y27400D02*
D03*
D67*
X96257Y78000D02*
D03*
X13250Y156000D02*
D03*
X156750Y339000D02*
D03*
X297000Y244250D02*
D03*
X254500Y276750D02*
D03*
X197000Y306250D02*
D03*
X237500Y87000D02*
D03*
X289000Y38250D02*
D03*
X282750Y304250D02*
D03*
X25750Y221500D02*
D03*
X50250Y17750D02*
D03*
X211750Y17500D02*
D03*
X300000Y180500D02*
D03*
X263250Y216000D02*
D03*
X173250Y151500D02*
D03*
X163750Y211500D02*
D03*
X61500Y169500D02*
D03*
X113750Y170500D02*
D03*
X44250Y251750D02*
D03*
X304000Y65750D02*
D03*
X304750Y90500D02*
D03*
Y116125D02*
D03*
X13250Y117250D02*
D03*
X12250Y90000D02*
D03*
X14750Y39500D02*
D03*
X13500Y65250D02*
D03*
X153120Y320966D02*
D03*
X107000Y318000D02*
D03*
X115272Y320529D02*
D03*
X123812D02*
D03*
X132352D02*
D03*
X148621Y328225D02*
D03*
X141329Y332670D02*
D03*
X132827Y333471D02*
D03*
X124287D02*
D03*
X115747D02*
D03*
X64000Y321000D02*
D03*
X30250Y341750D02*
D03*
X36052Y334110D02*
D03*
X40001Y326539D02*
D03*
X47051Y321719D02*
D03*
X55508Y320529D02*
D03*
X72588D02*
D03*
X81128D02*
D03*
X89668D02*
D03*
X98150Y319538D02*
D03*
X102212Y333316D02*
D03*
X93731Y334322D02*
D03*
X85233Y333471D02*
D03*
X76693D02*
D03*
X68154D02*
D03*
X59613D02*
D03*
X51094Y334055D02*
D03*
X56000Y341500D02*
D03*
X201925Y333471D02*
D03*
X193385D02*
D03*
X184845D02*
D03*
X176309Y333209D02*
D03*
X168415Y329951D02*
D03*
X162901Y323430D02*
D03*
X180650Y320529D02*
D03*
X189190D02*
D03*
X197730D02*
D03*
X206270D02*
D03*
X260000Y343000D02*
D03*
X264393Y334358D02*
D03*
X255899Y333471D02*
D03*
X247359D02*
D03*
X238819D02*
D03*
X230279D02*
D03*
X221772Y334222D02*
D03*
X213253Y333626D02*
D03*
X216404Y319538D02*
D03*
X224886Y320529D02*
D03*
X233426D02*
D03*
X241966D02*
D03*
X250506D02*
D03*
X259046D02*
D03*
X267525Y321544D02*
D03*
X274696Y326181D02*
D03*
X278804Y333669D02*
D03*
X287000Y342000D02*
D03*
X148000Y234638D02*
D03*
X139201Y246635D02*
D03*
X280000Y248000D02*
D03*
X165000Y245000D02*
D03*
X268000Y248000D02*
D03*
X259000Y195000D02*
D03*
X252000Y201000D02*
D03*
X91000Y53000D02*
D03*
X155000Y124000D02*
D03*
X216000Y167000D02*
D03*
X147000Y180000D02*
D03*
X71256Y82500D02*
D03*
X50257Y92000D02*
D03*
D68*
X177250Y194250D02*
D03*
X196000Y37250D02*
D03*
X220500D02*
D03*
X101000Y255500D02*
D03*
X118500Y227500D02*
D03*
X128313Y226828D02*
D03*
X69500Y21250D02*
D03*
X125000Y290650D02*
D03*
X95500Y220250D02*
D03*
X95000Y311000D02*
D03*
X31000Y318000D02*
D03*
X52000Y289000D02*
D03*
X69000Y281000D02*
D03*
X192687Y244688D02*
D03*
X69000Y267000D02*
D03*
X100000Y278000D02*
D03*
X133000Y262999D02*
D03*
X167000Y295000D02*
D03*
X150000D02*
D03*
X156000Y277000D02*
D03*
X226000Y254000D02*
D03*
X57837Y121163D02*
D03*
X79000Y38000D02*
D03*
X49000Y40000D02*
D03*
X178000Y177000D02*
D03*
X204000Y165000D02*
D03*
X223000Y156500D02*
D03*
X221000Y127000D02*
D03*
X191000Y144000D02*
D03*
X232000Y150000D02*
D03*
D69*
X157000Y398000D02*
D03*
M02*
