G04*
G04 #@! TF.GenerationSoftware,Altium Limited,Altium NEXUS,5.8.2 (18)*
G04*
G04 Layer_Physical_Order=2*
G04 Layer_Color=32768*
%FSLAX44Y44*%
%MOMM*%
G71*
G04*
G04 #@! TF.SameCoordinates,3A1DB9EE-8D2C-4681-89B5-BFB965533D06*
G04*
G04*
G04 #@! TF.FilePolarity,Negative*
G04*
G01*
G75*
%ADD60C,0.1700*%
%ADD64C,1.0160*%
%ADD65R,31.5000X10.2000*%
%ADD66C,1.5000*%
%ADD67C,0.8000*%
%ADD68C,0.9000*%
D60*
X51700Y15698D02*
Y8700D01*
X56365D01*
X63363D02*
X58698D01*
X63363Y13365D01*
Y14531D01*
X62197Y15698D01*
X59864D01*
X58698Y14531D01*
D64*
X0Y0D02*
Y450000D01*
X315000D01*
Y0D02*
Y450000D01*
X0Y0D02*
X315000D01*
D65*
X157500Y399000D02*
D03*
D66*
X315000Y292400D02*
D03*
Y267000D02*
D03*
X141000Y0D02*
D03*
X166400D02*
D03*
X0Y129000D02*
D03*
Y103600D02*
D03*
Y52800D02*
D03*
Y27400D02*
D03*
Y78200D02*
D03*
Y267022D02*
D03*
Y292422D02*
D03*
X315000Y129000D02*
D03*
X314000Y103600D02*
D03*
X315000Y78200D02*
D03*
Y52800D02*
D03*
Y27400D02*
D03*
D67*
X96257Y78000D02*
D03*
X148000Y234638D02*
D03*
X139201Y246635D02*
D03*
X280000Y248000D02*
D03*
X165000Y245000D02*
D03*
X268000Y248000D02*
D03*
X259000Y195000D02*
D03*
X252000Y201000D02*
D03*
X91000Y53000D02*
D03*
X155000Y124000D02*
D03*
X216000Y167000D02*
D03*
X193000Y125000D02*
D03*
X147000Y180000D02*
D03*
X71256Y82500D02*
D03*
X50257Y92000D02*
D03*
D68*
X118500Y227500D02*
D03*
X99238Y290000D02*
D03*
X91000Y250000D02*
D03*
X78000Y251000D02*
D03*
X235000Y198000D02*
D03*
X102000Y138000D02*
D03*
X113000D02*
D03*
X232000Y150000D02*
D03*
M02*
