M48
;Layer_Color=9474304
;FILE_FORMAT=2:5
INCH,LZ
;TYPE=PLATED
T1F00S00C0.00591
T2F00S00C0.01181
T3F00S00C0.01968
;TYPE=NON_PLATED
%
T01
X-0017987Y0008088
X-0017374Y0014487
X-0016789Y002515
X-0016409Y0028172
X-0016932Y0034814
X-00143Y0034341
X-0012368Y00357
X-0012022Y0040295
X-0006299Y0042126
X-0004663Y0045422
X-0002968Y0043777
X-0000596Y0043689
X0001776Y00435
X0001969Y0038571
X0001431Y0035827
X0006313Y0036389
X0006467Y0033679
X0005764Y0038803
X001565Y0039803
Y0037184
Y0034796
Y0031946
Y0029327
X0017256Y0020456
X0017775Y001211
X0019291Y0005601
X-0008268Y0006693
X-0011495Y0006486
X-000706Y0018209
X-0003749Y0025383
X0001184Y0023799
X0002203Y0026297
X0006173Y0026591
X-000936Y0029682
X-0011788Y0025383
X-0022126Y002515
X-0019488Y0039246
X-0006299Y0035118
X-0007856Y0051726
X-0010407Y0052771
X-0012957Y0053816
X-0015507Y0054861
X-0018057Y0055906
X-0020756Y0056586
X-0023306Y0057631
X-0025707Y005904
X-0028108Y0060449
X-0029118Y0062139
X-0030127Y0063829
X-0031501Y0065669
X-0024561Y0064953
X-0024215Y0062683
X-0021515Y0062003
X-0018965Y0060958
X-0016564Y0059549
X-0014014Y0058504
X-0011464Y0057459
X-0008914Y0056414
X-0006364Y0055369
X-0003937Y0054331
X-0002362Y0051968
X0002362
X0003937Y0054331
X0006364Y0055369
X0008914Y0056414
X0011464Y0057459
X0014014Y0058504
X0016564Y0059549
X0018965Y0060958
X0021515Y0062003
X0024215Y0062683
X0022937Y006684
X0017356Y0066846
X0011811Y0066929
Y0061417
X0005939Y0061335
Y0066846
X0Y0066929
Y0061417
Y0056693
X-0005872Y0061335
Y0066846
X-0011811Y0066929
Y0061417
X-0017289Y0066846
X-0022937Y006684
X-003937Y0066142
X-0038583Y0061417
X-0033858Y0059055
X0007856Y0051726
X0010407Y0052771
X0012957Y0053816
X0015507Y0054861
X0018057Y0055906
X0020756Y0056586
X0023306Y0057631
X0019685Y0050787
X0013386Y0049606
X0025707Y005904
X0028108Y0060449
X0029118Y0062139
X0030127Y0063829
X0031501Y0065669
X0024561Y0064953
X0033858Y0059055
X0038583Y0061417
X003937Y0066142
X0033024Y0067144
X-0033024
T02
X-0005906Y001063
X-0006299Y001378
X0005118Y0017729
T03
X-0019291Y0
X-001378
X-0008268
X-0002756
X0002756
X0008268
X001378
X0019291
X-0025591Y0009843
Y0015354
Y0020866
Y0026378
Y003189
Y0037402
Y0042913
Y0048425
X0025591Y0048425
Y0042913
Y0037402
Y003189
Y0026378
Y0020866
Y0015354
Y0009843
M30
