M48
;Layer_Color=9474304
;FILE_FORMAT=2:5
INCH,LZ
T4F00S00C0.09449
%
G90
G05
T04
G00X0026947Y-0004525
M15
G01X0028189Y-0003945
G01X0029213Y-0003033
G01X0029931Y-0001865
G01X0030315Y0
G01X0030315Y0050426
G01X0043295Y0050394
G01X0044652Y0050589
G01X0045896Y0051166
G01X0046922Y0052076
G01X0047643Y0053242
G01X0048031Y0055118
G01X0048031Y0110236
G01X0047833Y0111593
G01X0047252Y0112835
G01X004634Y0113858
G01X0045172Y0114577
G01X0043307Y0114961
G01X-0043307Y0114961
G01X-0044664Y0114762
G01X-0045906Y0114182
G01X-0046929Y0113269
G01X-0047648Y0112101
G01X-0048031Y0110236
G01X-0048031Y0055118
G01X-0047833Y0053762
G01X-0047252Y0052519
G01X-004634Y0051496
G01X-0045172Y0050778
G01X-0043307Y0050394
G01X-0030282Y0050394
G01X-0030315Y0000003
G01X-0030117Y-0001354
G01X-0029538Y-0002596
G01X-0028626Y-000362
G01X-0027459Y-0004339
G01X-0025591Y-0004724
G01X0025591Y-0004724
G01X0026947Y-0004525
M16
M17
M30
