G04*
G04 #@! TF.GenerationSoftware,Altium Limited,Altium NEXUS,5.8.2 (18)*
G04*
G04 Layer_Color=7949734*
%FSLAX25Y25*%
%MOIN*%
G70*
G04*
G04 #@! TF.SameCoordinates,96A2D957-15C9-49F1-B6A3-93ECAB74F1FA*
G04*
G04*
G04 #@! TF.FilePolarity,Negative*
G04*
G01*
G75*
%ADD14C,0.00394*%
%ADD38C,0.03740*%
%ADD46R,0.04134X0.03740*%
%ADD47R,0.03740X0.04134*%
D14*
X-25591Y51181D02*
G03*
X-29528Y55118I-3937J0D01*
G01*
X29528D02*
G03*
X25591Y51181I0J-3937D01*
G01*
X6281Y110236D02*
X13171D01*
X-6383D02*
X-872D01*
X-43307Y55118D02*
Y110236D01*
Y55118D02*
X-29528D01*
X-43307Y110236D02*
X43307D01*
Y55118D02*
Y110236D01*
X29528Y55118D02*
X43307D01*
X-25591Y0D02*
Y51181D01*
Y0D02*
X25591D01*
Y51181D01*
D38*
X25591Y15354D02*
D03*
Y20866D02*
D03*
Y26378D02*
D03*
Y31890D02*
D03*
Y37402D02*
D03*
Y42913D02*
D03*
Y48425D02*
D03*
Y9843D02*
D03*
X-19291Y0D02*
D03*
X19291D02*
D03*
X13780D02*
D03*
X8268D02*
D03*
X2756D02*
D03*
X-2756D02*
D03*
X-8268D02*
D03*
X-13780D02*
D03*
X-25591Y42913D02*
D03*
Y37402D02*
D03*
Y31890D02*
D03*
Y26378D02*
D03*
Y20866D02*
D03*
Y15354D02*
D03*
Y48425D02*
D03*
Y9843D02*
D03*
D46*
X23622Y20866D02*
D03*
Y26378D02*
D03*
Y31890D02*
D03*
Y37402D02*
D03*
Y42913D02*
D03*
Y48425D02*
D03*
Y15354D02*
D03*
Y9843D02*
D03*
X-23622Y37402D02*
D03*
Y31890D02*
D03*
Y26378D02*
D03*
Y20866D02*
D03*
Y15354D02*
D03*
Y9843D02*
D03*
Y42913D02*
D03*
Y48425D02*
D03*
D47*
X-19291Y1969D02*
D03*
X-13780D02*
D03*
X19291D02*
D03*
X13780D02*
D03*
X8268D02*
D03*
X2756D02*
D03*
X-2756D02*
D03*
X-8268D02*
D03*
M02*
