G04*
G04 #@! TF.GenerationSoftware,Altium Limited,Altium NEXUS,5.8.2 (18)*
G04*
G04 Layer_Physical_Order=2*
G04 Layer_Color=36540*
%FSLAX25Y25*%
%MOIN*%
G70*
G04*
G04 #@! TF.SameCoordinates,96A2D957-15C9-49F1-B6A3-93ECAB74F1FA*
G04*
G04*
G04 #@! TF.FilePolarity,Positive*
G04*
G01*
G75*
%ADD14C,0.00394*%
%ADD41C,0.03150*%
%ADD42C,0.01772*%
%ADD43C,0.02362*%
G36*
X41701Y56724D02*
X29528D01*
X29488Y56716D01*
X29449Y56722D01*
X29063Y56703D01*
X28947Y56674D01*
X28828D01*
X28071Y56523D01*
X27925Y56463D01*
X27770Y56432D01*
X27057Y56137D01*
X26926Y56049D01*
X26780Y55988D01*
X26138Y55559D01*
X26026Y55448D01*
X25895Y55360D01*
X25823Y55288D01*
X25811Y55280D01*
X25429Y54898D01*
X25420Y54886D01*
X25349Y54814D01*
X25261Y54683D01*
X25149Y54571D01*
X24720Y53929D01*
X24660Y53783D01*
X24572Y53651D01*
X24277Y52938D01*
X24246Y52783D01*
X24185Y52637D01*
X24035Y51880D01*
Y51761D01*
X24006Y51646D01*
X23987Y51260D01*
X23993Y51220D01*
X23985Y51181D01*
Y50461D01*
X23530Y50006D01*
X23191Y49419D01*
X23059Y48925D01*
X25591D01*
Y47925D01*
X23059D01*
X23191Y47431D01*
X23530Y46844D01*
X23985Y46389D01*
Y44949D01*
X23530Y44494D01*
X23191Y43907D01*
X23059Y43413D01*
X25591D01*
Y42413D01*
X23059D01*
X23191Y41919D01*
X23530Y41332D01*
X23985Y40878D01*
Y33926D01*
X23530Y33471D01*
X23191Y32884D01*
X23059Y32390D01*
X25591D01*
Y31390D01*
X23059D01*
X23191Y30896D01*
X23530Y30309D01*
X23985Y29854D01*
Y1606D01*
X21327D01*
X20872Y2060D01*
X20285Y2399D01*
X19791Y2532D01*
Y0D01*
X18791D01*
Y2532D01*
X18297Y2399D01*
X17710Y2060D01*
X17256Y1606D01*
X-23985D01*
Y7807D01*
X-23530Y8262D01*
X-23191Y8849D01*
X-23059Y9342D01*
X-25591D01*
Y10343D01*
X-23059D01*
X-23191Y10836D01*
X-23530Y11423D01*
X-23985Y11878D01*
Y51181D01*
X-23993Y51220D01*
X-23987Y51260D01*
X-24006Y51646D01*
X-24035Y51761D01*
Y51880D01*
X-24185Y52637D01*
X-24246Y52783D01*
X-24277Y52938D01*
X-24572Y53651D01*
X-24660Y53783D01*
X-24720Y53929D01*
X-25149Y54571D01*
X-25261Y54682D01*
X-25349Y54814D01*
X-25895Y55360D01*
X-26026Y55448D01*
X-26138Y55559D01*
X-26780Y55988D01*
X-26926Y56049D01*
X-27057Y56137D01*
X-27770Y56432D01*
X-27925Y56463D01*
X-28071Y56523D01*
X-28828Y56674D01*
X-28947D01*
X-29063Y56703D01*
X-29449Y56722D01*
X-29488Y56716D01*
X-29528Y56724D01*
X-41701D01*
Y68504D01*
X41701D01*
Y56724D01*
D02*
G37*
%LPC*%
G36*
X-4487Y46308D02*
X-4839D01*
X-5165Y46173D01*
X-5414Y45924D01*
X-5549Y45599D01*
Y45246D01*
X-5414Y44921D01*
X-5165Y44671D01*
X-4839Y44537D01*
X-4487D01*
X-4161Y44671D01*
X-3912Y44921D01*
X-3777Y45246D01*
Y45599D01*
X-3912Y45924D01*
X-4161Y46173D01*
X-4487Y46308D01*
D02*
G37*
G36*
X-2792Y44663D02*
X-3144D01*
X-3470Y44528D01*
X-3719Y44279D01*
X-3854Y43953D01*
Y43601D01*
X-3719Y43275D01*
X-3470Y43026D01*
X-3144Y42891D01*
X-2792D01*
X-2466Y43026D01*
X-2217Y43275D01*
X-2082Y43601D01*
Y43953D01*
X-2217Y44279D01*
X-2466Y44528D01*
X-2792Y44663D01*
D02*
G37*
G36*
X-420Y44575D02*
X-773D01*
X-1098Y44440D01*
X-1347Y44191D01*
X-1482Y43865D01*
Y43513D01*
X-1347Y43187D01*
X-1098Y42938D01*
X-773Y42803D01*
X-420D01*
X-95Y42938D01*
X155Y43187D01*
X289Y43513D01*
Y43865D01*
X155Y44191D01*
X-95Y44440D01*
X-420Y44575D01*
D02*
G37*
G36*
X1952Y44386D02*
X1599D01*
X1274Y44251D01*
X1025Y44002D01*
X890Y43676D01*
Y43324D01*
X1025Y42998D01*
X1274Y42749D01*
X1599Y42614D01*
X1952D01*
X2277Y42749D01*
X2527Y42998D01*
X2661Y43324D01*
Y43676D01*
X2527Y44002D01*
X2277Y44251D01*
X1952Y44386D01*
D02*
G37*
G36*
X-6123Y43012D02*
X-6475D01*
X-6801Y42877D01*
X-7050Y42628D01*
X-7185Y42302D01*
Y41950D01*
X-7050Y41624D01*
X-6801Y41375D01*
X-6475Y41240D01*
X-6123D01*
X-5797Y41375D01*
X-5548Y41624D01*
X-5413Y41950D01*
Y42302D01*
X-5548Y42628D01*
X-5797Y42877D01*
X-6123Y43012D01*
D02*
G37*
G36*
X15826Y40689D02*
X15473D01*
X15148Y40554D01*
X14899Y40305D01*
X14764Y39979D01*
Y39627D01*
X14899Y39301D01*
X15148Y39052D01*
X15473Y38917D01*
X15826D01*
X16151Y39052D01*
X16401Y39301D01*
X16535Y39627D01*
Y39979D01*
X16401Y40305D01*
X16151Y40554D01*
X15826Y40689D01*
D02*
G37*
G36*
X5940Y39689D02*
X5588D01*
X5262Y39554D01*
X5013Y39305D01*
X4878Y38979D01*
Y38627D01*
X5013Y38301D01*
X5262Y38052D01*
X5588Y37917D01*
X5940D01*
X6266Y38052D01*
X6515Y38301D01*
X6650Y38627D01*
Y38979D01*
X6515Y39305D01*
X6266Y39554D01*
X5940Y39689D01*
D02*
G37*
G36*
X2145Y39456D02*
X1792D01*
X1467Y39322D01*
X1218Y39072D01*
X1083Y38747D01*
Y38394D01*
X1218Y38069D01*
X1467Y37820D01*
X1792Y37685D01*
X2145D01*
X2470Y37820D01*
X2719Y38069D01*
X2854Y38394D01*
Y38747D01*
X2719Y39072D01*
X2470Y39322D01*
X2145Y39456D01*
D02*
G37*
G36*
X15826Y38070D02*
X15473D01*
X15148Y37935D01*
X14899Y37686D01*
X14764Y37360D01*
Y37008D01*
X14899Y36682D01*
X15148Y36433D01*
X15473Y36298D01*
X15826D01*
X16151Y36433D01*
X16401Y36682D01*
X16535Y37008D01*
Y37360D01*
X16401Y37686D01*
X16151Y37935D01*
X15826Y38070D01*
D02*
G37*
G36*
X6489Y37274D02*
X6137D01*
X5811Y37139D01*
X5562Y36890D01*
X5427Y36565D01*
Y36212D01*
X5562Y35887D01*
X5811Y35638D01*
X6137Y35503D01*
X6489D01*
X6815Y35638D01*
X7064Y35887D01*
X7199Y36212D01*
Y36565D01*
X7064Y36890D01*
X6815Y37139D01*
X6489Y37274D01*
D02*
G37*
G36*
X1607Y36713D02*
X1255D01*
X929Y36578D01*
X680Y36329D01*
X545Y36003D01*
Y35651D01*
X680Y35325D01*
X929Y35076D01*
X1255Y34941D01*
X1607D01*
X1933Y35076D01*
X2182Y35325D01*
X2317Y35651D01*
Y36003D01*
X2182Y36329D01*
X1933Y36578D01*
X1607Y36713D01*
D02*
G37*
G36*
X-12192Y36586D02*
X-12544D01*
X-12870Y36451D01*
X-13119Y36202D01*
X-13254Y35876D01*
Y35524D01*
X-13119Y35198D01*
X-12870Y34949D01*
X-12544Y34814D01*
X-12192D01*
X-11866Y34949D01*
X-11617Y35198D01*
X-11482Y35524D01*
Y35876D01*
X-11617Y36202D01*
X-11866Y36451D01*
X-12192Y36586D01*
D02*
G37*
G36*
X-6123Y36004D02*
X-6476D01*
X-6801Y35869D01*
X-7050Y35620D01*
X-7185Y35294D01*
Y34942D01*
X-7050Y34616D01*
X-6801Y34367D01*
X-6476Y34232D01*
X-6123D01*
X-5798Y34367D01*
X-5548Y34616D01*
X-5414Y34942D01*
Y35294D01*
X-5548Y35620D01*
X-5798Y35869D01*
X-6123Y36004D01*
D02*
G37*
G36*
X-16756Y35700D02*
X-17109D01*
X-17434Y35565D01*
X-17683Y35316D01*
X-17818Y34990D01*
Y34638D01*
X-17683Y34312D01*
X-17434Y34063D01*
X-17109Y33928D01*
X-16756D01*
X-16431Y34063D01*
X-16181Y34312D01*
X-16047Y34638D01*
Y34990D01*
X-16181Y35316D01*
X-16431Y35565D01*
X-16756Y35700D01*
D02*
G37*
G36*
X15826Y35682D02*
X15473D01*
X15148Y35547D01*
X14899Y35297D01*
X14764Y34972D01*
Y34620D01*
X14899Y34294D01*
X15148Y34045D01*
X15473Y33910D01*
X15826D01*
X16151Y34045D01*
X16401Y34294D01*
X16535Y34620D01*
Y34972D01*
X16401Y35297D01*
X16151Y35547D01*
X15826Y35682D01*
D02*
G37*
G36*
X-14124Y35227D02*
X-14477D01*
X-14802Y35092D01*
X-15051Y34843D01*
X-15186Y34517D01*
Y34165D01*
X-15051Y33839D01*
X-14802Y33590D01*
X-14477Y33455D01*
X-14124D01*
X-13799Y33590D01*
X-13550Y33839D01*
X-13415Y34165D01*
Y34517D01*
X-13550Y34843D01*
X-13799Y35092D01*
X-14124Y35227D01*
D02*
G37*
G36*
X6643Y34565D02*
X6291D01*
X5965Y34430D01*
X5716Y34181D01*
X5581Y33855D01*
Y33503D01*
X5716Y33177D01*
X5965Y32928D01*
X6291Y32793D01*
X6643D01*
X6969Y32928D01*
X7218Y33177D01*
X7353Y33503D01*
Y33855D01*
X7218Y34181D01*
X6969Y34430D01*
X6643Y34565D01*
D02*
G37*
G36*
X15826Y32832D02*
X15473D01*
X15148Y32697D01*
X14899Y32448D01*
X14764Y32122D01*
Y31770D01*
X14899Y31444D01*
X15148Y31195D01*
X15473Y31060D01*
X15826D01*
X16151Y31195D01*
X16401Y31444D01*
X16535Y31770D01*
Y32122D01*
X16401Y32448D01*
X16151Y32697D01*
X15826Y32832D01*
D02*
G37*
G36*
Y30213D02*
X15473D01*
X15148Y30078D01*
X14899Y29829D01*
X14764Y29503D01*
Y29151D01*
X14899Y28825D01*
X15148Y28576D01*
X15473Y28441D01*
X15826D01*
X16151Y28576D01*
X16401Y28825D01*
X16535Y29151D01*
Y29503D01*
X16401Y29829D01*
X16151Y30078D01*
X15826Y30213D01*
D02*
G37*
G36*
X2379Y27183D02*
X2027D01*
X1701Y27048D01*
X1452Y26799D01*
X1317Y26474D01*
Y26121D01*
X1452Y25796D01*
X1701Y25546D01*
X2027Y25411D01*
X2379D01*
X2705Y25546D01*
X2954Y25796D01*
X3089Y26121D01*
Y26474D01*
X2954Y26799D01*
X2705Y27048D01*
X2379Y27183D01*
D02*
G37*
G36*
X-3573Y26269D02*
X-3925D01*
X-4250Y26134D01*
X-4500Y25885D01*
X-4634Y25559D01*
Y25207D01*
X-4500Y24881D01*
X-4250Y24632D01*
X-3925Y24497D01*
X-3573D01*
X-3247Y24632D01*
X-2998Y24881D01*
X-2863Y25207D01*
Y25559D01*
X-2998Y25885D01*
X-3247Y26134D01*
X-3573Y26269D01*
D02*
G37*
G36*
X-11612D02*
X-11964D01*
X-12290Y26134D01*
X-12539Y25885D01*
X-12674Y25559D01*
Y25207D01*
X-12539Y24881D01*
X-12290Y24632D01*
X-11964Y24497D01*
X-11612D01*
X-11286Y24632D01*
X-11037Y24881D01*
X-10902Y25207D01*
Y25559D01*
X-11037Y25885D01*
X-11286Y26134D01*
X-11612Y26269D01*
D02*
G37*
G36*
X-16612Y26035D02*
X-16965D01*
X-17290Y25901D01*
X-17540Y25651D01*
X-17674Y25326D01*
Y24973D01*
X-17540Y24648D01*
X-17290Y24399D01*
X-16965Y24264D01*
X-16612D01*
X-16287Y24399D01*
X-16038Y24648D01*
X-15903Y24973D01*
Y25326D01*
X-16038Y25651D01*
X-16287Y25901D01*
X-16612Y26035D01*
D02*
G37*
G36*
X-21950D02*
X-22302D01*
X-22628Y25901D01*
X-22877Y25651D01*
X-23012Y25326D01*
Y24973D01*
X-22877Y24648D01*
X-22628Y24399D01*
X-22302Y24264D01*
X-21950D01*
X-21624Y24399D01*
X-21375Y24648D01*
X-21240Y24973D01*
Y25326D01*
X-21375Y25651D01*
X-21624Y25901D01*
X-21950Y26035D01*
D02*
G37*
G36*
X1361Y24685D02*
X1008D01*
X683Y24550D01*
X433Y24301D01*
X298Y23976D01*
Y23623D01*
X433Y23298D01*
X683Y23048D01*
X1008Y22914D01*
X1361D01*
X1686Y23048D01*
X1935Y23298D01*
X2070Y23623D01*
Y23976D01*
X1935Y24301D01*
X1686Y24550D01*
X1361Y24685D01*
D02*
G37*
G36*
X-6883Y19094D02*
X-7236D01*
X-7561Y18960D01*
X-7811Y18710D01*
X-7945Y18385D01*
Y18033D01*
X-7811Y17707D01*
X-7561Y17458D01*
X-7236Y17323D01*
X-6883D01*
X-6558Y17458D01*
X-6309Y17707D01*
X-6174Y18033D01*
Y18385D01*
X-6309Y18710D01*
X-6558Y18960D01*
X-6883Y19094D01*
D02*
G37*
G36*
X5353Y18910D02*
X4883D01*
X4449Y18730D01*
X4117Y18398D01*
X3937Y17964D01*
Y17494D01*
X4117Y17060D01*
X4449Y16727D01*
X4883Y16548D01*
X5353D01*
X5787Y16727D01*
X6119Y17060D01*
X6299Y17494D01*
Y17964D01*
X6119Y18398D01*
X5787Y18730D01*
X5353Y18910D01*
D02*
G37*
G36*
X-6064Y14961D02*
X-6534D01*
X-6968Y14781D01*
X-7300Y14449D01*
X-7480Y14015D01*
Y13545D01*
X-7300Y13111D01*
X-6968Y12778D01*
X-6534Y12598D01*
X-6064D01*
X-5630Y12778D01*
X-5298Y13111D01*
X-5118Y13545D01*
Y14015D01*
X-5298Y14449D01*
X-5630Y14781D01*
X-6064Y14961D01*
D02*
G37*
G36*
X-11318Y7372D02*
X-11671D01*
X-11996Y7237D01*
X-12246Y6988D01*
X-12380Y6663D01*
Y6310D01*
X-12246Y5985D01*
X-11996Y5736D01*
X-11671Y5601D01*
X-11318D01*
X-10993Y5736D01*
X-10744Y5985D01*
X-10609Y6310D01*
Y6663D01*
X-10744Y6988D01*
X-10993Y7237D01*
X-11318Y7372D01*
D02*
G37*
%LPD*%
D14*
X-25591Y51181D02*
G03*
X-29528Y55118I-3937J0D01*
G01*
X29528D02*
G03*
X25591Y51181I0J-3937D01*
G01*
X6281Y110236D02*
X13171D01*
X-6383D02*
X-872D01*
X-43307Y55118D02*
Y110236D01*
Y55118D02*
X-29528D01*
X-43307Y110236D02*
X43307D01*
Y55118D02*
Y110236D01*
X29528Y55118D02*
X43307D01*
X-25591Y0D02*
Y51181D01*
Y0D02*
X25591D01*
Y51181D01*
D41*
X25591Y31890D02*
D03*
Y42913D02*
D03*
Y48425D02*
D03*
X19291Y0D02*
D03*
X-25591Y9843D02*
D03*
D42*
X19685Y50787D02*
D03*
X13386Y49606D02*
D03*
X-33858Y59055D02*
D03*
X-39370Y66142D02*
D03*
X-38583Y61417D02*
D03*
X38583D02*
D03*
X39370Y66142D02*
D03*
X33858Y59055D02*
D03*
X0Y56693D02*
D03*
X-11811Y61417D02*
D03*
X0D02*
D03*
X11811D02*
D03*
X-5872Y61335D02*
D03*
X5939D02*
D03*
X17356Y66846D02*
D03*
X-17289D02*
D03*
X5939D02*
D03*
X-5872D02*
D03*
X11811Y66929D02*
D03*
X0D02*
D03*
X-11811D02*
D03*
X-7856Y51726D02*
D03*
X-10407Y52771D02*
D03*
X-15507Y54861D02*
D03*
X-12957Y53816D02*
D03*
X-11464Y57459D02*
D03*
X-14014Y58504D02*
D03*
X-8914Y56414D02*
D03*
X-6364Y55369D02*
D03*
X-23306Y57631D02*
D03*
X-25707Y59040D02*
D03*
X-20756Y56586D02*
D03*
X-18057Y55906D02*
D03*
X-21515Y62003D02*
D03*
X-24215Y62683D02*
D03*
X-18965Y60958D02*
D03*
X-16564Y59549D02*
D03*
X-24561Y64953D02*
D03*
X-22937Y66840D02*
D03*
X-28108Y60449D02*
D03*
X-29118Y62139D02*
D03*
X-30127Y63829D02*
D03*
X-31501Y65669D02*
D03*
X-33024Y67144D02*
D03*
X-3937Y54331D02*
D03*
X-2362Y51968D02*
D03*
X2362D02*
D03*
X3937Y54331D02*
D03*
X33024Y67144D02*
D03*
X31501Y65669D02*
D03*
X30127Y63829D02*
D03*
X29118Y62139D02*
D03*
X28108Y60449D02*
D03*
X22937Y66840D02*
D03*
X24561Y64953D02*
D03*
X16564Y59549D02*
D03*
X18965Y60958D02*
D03*
X24215Y62683D02*
D03*
X21515Y62003D02*
D03*
X18057Y55906D02*
D03*
X20756Y56586D02*
D03*
X25707Y59040D02*
D03*
X23306Y57631D02*
D03*
X6364Y55369D02*
D03*
X8914Y56414D02*
D03*
X14014Y58504D02*
D03*
X11464Y57459D02*
D03*
X12957Y53816D02*
D03*
X15507Y54861D02*
D03*
X10407Y52771D02*
D03*
X7856Y51726D02*
D03*
X19291Y5601D02*
D03*
X17256Y20456D02*
D03*
X-16409Y28172D02*
D03*
X6173Y26591D02*
D03*
X-12022Y40295D02*
D03*
X-19488Y39246D02*
D03*
X-8268Y6693D02*
D03*
X-9360Y29682D02*
D03*
X17775Y12110D02*
D03*
X-17987Y8088D02*
D03*
X-17374Y14487D02*
D03*
D43*
X-5906Y10630D02*
D03*
M02*
