G04*
G04 #@! TF.GenerationSoftware,Altium Limited,Altium NEXUS,5.8.2 (18)*
G04*
G04 Layer_Physical_Order=1*
G04 Layer_Color=255*
%FSLAX25Y25*%
%MOIN*%
G70*
G04*
G04 #@! TF.SameCoordinates,96A2D957-15C9-49F1-B6A3-93ECAB74F1FA*
G04*
G04*
G04 #@! TF.FilePolarity,Positive*
G04*
G01*
G75*
%ADD10C,0.00984*%
%ADD11C,0.00591*%
%ADD12C,0.00787*%
%ADD14C,0.00394*%
%ADD15O,0.00787X0.03347*%
%ADD16O,0.03347X0.00787*%
%ADD17R,0.03150X0.03543*%
%ADD18R,0.01428X0.01428*%
%ADD19R,0.02473X0.02387*%
%ADD20R,0.02780X0.02867*%
%ADD21R,0.01588X0.01877*%
%ADD22R,0.01822X0.02182*%
G04:AMPARAMS|DCode=23|XSize=17.88mil|YSize=14.28mil|CornerRadius=0mil|HoleSize=0mil|Usage=FLASHONLY|Rotation=22.280|XOffset=0mil|YOffset=0mil|HoleType=Round|Shape=Rectangle|*
%AMROTATEDRECTD23*
4,1,4,-0.00556,-0.01000,-0.01098,0.00322,0.00556,0.01000,0.01098,-0.00322,-0.00556,-0.01000,0.0*
%
%ADD23ROTATEDRECTD23*%

%ADD24R,0.06717X0.04545*%
%ADD25R,0.01788X0.01428*%
%ADD26R,0.04331X0.04331*%
%ADD27R,0.02362X0.03150*%
G04:AMPARAMS|DCode=28|XSize=17.88mil|YSize=14.28mil|CornerRadius=0mil|HoleSize=0mil|Usage=FLASHONLY|Rotation=157.720|XOffset=0mil|YOffset=0mil|HoleType=Round|Shape=Rectangle|*
%AMROTATEDRECTD28*
4,1,4,0.01098,0.00322,0.00556,-0.01000,-0.01098,-0.00322,-0.00556,0.01000,0.01098,0.00322,0.0*
%
%ADD28ROTATEDRECTD28*%

%ADD29R,0.01428X0.01788*%
%ADD30R,0.02182X0.01822*%
%ADD31R,0.03150X0.02362*%
%ADD34C,0.00906*%
%ADD39C,0.00606*%
%ADD40C,0.01181*%
%ADD41C,0.03150*%
%ADD42C,0.01772*%
%ADD43C,0.02362*%
G36*
X29724Y72835D02*
X27559Y64567D01*
X25394Y72835D01*
Y73228D01*
X29724D01*
Y72835D01*
D02*
G37*
G36*
X-25394D02*
X-27559Y64567D01*
X-29724Y72835D01*
Y73228D01*
X-25394D01*
Y72835D01*
D02*
G37*
G36*
X41701Y56724D02*
X29528D01*
X29488Y56716D01*
X29449Y56722D01*
X29063Y56703D01*
X28947Y56674D01*
X28828D01*
X28071Y56523D01*
X27925Y56463D01*
X27770Y56432D01*
X27057Y56137D01*
X26926Y56049D01*
X26780Y55988D01*
X26138Y55559D01*
X26026Y55448D01*
X25895Y55360D01*
X25823Y55288D01*
X25811Y55280D01*
X25429Y54898D01*
X25420Y54886D01*
X25349Y54814D01*
X25261Y54683D01*
X25149Y54571D01*
X24720Y53929D01*
X24660Y53783D01*
X24572Y53651D01*
X24277Y52938D01*
X24246Y52783D01*
X24185Y52637D01*
X24035Y51880D01*
Y51761D01*
X24006Y51646D01*
X23987Y51260D01*
X23993Y51220D01*
X23985Y51181D01*
Y50461D01*
X23530Y50006D01*
X23191Y49419D01*
X23059Y48925D01*
X25591D01*
Y47925D01*
X23059D01*
X23191Y47431D01*
X23530Y46844D01*
X23985Y46389D01*
Y44949D01*
X23530Y44494D01*
X23191Y43907D01*
X23059Y43413D01*
X25591D01*
Y42413D01*
X23059D01*
X23191Y41919D01*
X23530Y41332D01*
X23985Y40878D01*
Y39567D01*
X22638D01*
Y38305D01*
X20472D01*
X20127Y38236D01*
X19834Y38040D01*
X17719Y35925D01*
X17523Y35632D01*
X17497Y35501D01*
X16977Y35449D01*
X16901Y35632D01*
X16543Y35990D01*
X16901Y36348D01*
X17126Y36890D01*
Y37478D01*
X16901Y38020D01*
X16755Y38167D01*
X16526Y38493D01*
X16755Y38820D01*
X16901Y38967D01*
X17126Y39509D01*
Y40097D01*
X16901Y40639D01*
X16486Y41055D01*
X15943Y41279D01*
X15450D01*
X13178Y43552D01*
X12885Y43748D01*
X12539Y43817D01*
X12019D01*
X11698Y44317D01*
X11732Y44488D01*
X11655Y44872D01*
X11438Y45198D01*
X11112Y45415D01*
X10728Y45492D01*
X8169D01*
X7785Y45415D01*
X7749Y45391D01*
X5509D01*
X5163Y45323D01*
X4870Y45127D01*
X4146Y44403D01*
X2960D01*
X2612Y44752D01*
X2069Y44976D01*
X1482D01*
X939Y44752D01*
X846Y44658D01*
X655Y44525D01*
X240Y44941D01*
X-303Y45166D01*
X-890D01*
X-1433Y44941D01*
X-1738Y44635D01*
X-2132Y45028D01*
X-2675Y45253D01*
X-3187D01*
Y45716D01*
X-3412Y46259D01*
X-3406Y46317D01*
X-3227Y46436D01*
X-3010Y46762D01*
X-2933Y47146D01*
Y49705D01*
X-3010Y50089D01*
X-3079Y50192D01*
X-3168Y50867D01*
X-3654Y52043D01*
X-4429Y53052D01*
X-5438Y53826D01*
X-5960Y54042D01*
X-6036Y54093D01*
X-17763Y58897D01*
X-17614Y59261D01*
X-20361Y60387D01*
Y60387D01*
X-22578Y61295D01*
X-22593Y61258D01*
X-23055Y61064D01*
X-24769Y61767D01*
X-24769Y61767D01*
X-24757Y61797D01*
X-25132Y61952D01*
X-25757Y62432D01*
X-26237Y63057D01*
X-26538Y63785D01*
X-26641Y64567D01*
X-26415Y64973D01*
X-23031Y68504D01*
X23031D01*
X26415Y64973D01*
X26641Y64567D01*
X26538Y63785D01*
X26237Y63057D01*
X25757Y62432D01*
X25132Y61952D01*
X24757Y61797D01*
X24769Y61767D01*
X24769Y61767D01*
X23054Y61064D01*
X22592Y61257D01*
X22577Y61295D01*
X19830Y60169D01*
X19830Y60169D01*
X17613Y59261D01*
X17762Y58897D01*
X6036Y54093D01*
X5960Y54042D01*
X5438Y53826D01*
X4429Y53052D01*
X3654Y52043D01*
X3168Y50867D01*
X3079Y50192D01*
X3010Y50089D01*
X2933Y49705D01*
Y47146D01*
X3010Y46762D01*
X3227Y46436D01*
X3553Y46218D01*
X3937Y46142D01*
X4321Y46218D01*
X4647Y46436D01*
X4864Y46762D01*
X4941Y47146D01*
Y49705D01*
X4897Y49925D01*
X4958Y50388D01*
X5259Y51116D01*
X5739Y51741D01*
X6364Y52221D01*
X6739Y52376D01*
X6727Y52406D01*
X6727Y52406D01*
X18125Y57077D01*
X18587Y56883D01*
X18602Y56846D01*
X21349Y57972D01*
X21349Y57972D01*
X23566Y58881D01*
X23417Y59244D01*
X25460Y60081D01*
X25536Y60131D01*
X26058Y60347D01*
X27067Y61122D01*
X27842Y62131D01*
X28328Y63306D01*
X28494Y64567D01*
X28495D01*
X28708Y64978D01*
X32087Y68504D01*
X41701D01*
Y56724D01*
D02*
G37*
G36*
X-28708Y64978D02*
X-28495Y64567D01*
X-28494D01*
X-28328Y63306D01*
X-27842Y62131D01*
X-27067Y61122D01*
X-26058Y60347D01*
X-25536Y60131D01*
X-25460Y60081D01*
X-23418Y59244D01*
X-23567Y58881D01*
X-20820Y57755D01*
Y57755D01*
X-18603Y56847D01*
X-18588Y56884D01*
X-18126Y57077D01*
X-6727Y52406D01*
X-6739Y52376D01*
X-6364Y52221D01*
X-5739Y51741D01*
X-5259Y51116D01*
X-4958Y50388D01*
X-4897Y49925D01*
X-4941Y49705D01*
Y47146D01*
X-4904Y46963D01*
X-4957Y46899D01*
X-5499Y46674D01*
X-5915Y46259D01*
X-6140Y45716D01*
Y45129D01*
X-5915Y44586D01*
X-5644Y44315D01*
X-5671Y43826D01*
X-6006Y43602D01*
X-6568D01*
X-6869Y43803D01*
X-6896Y43825D01*
X-7191Y44363D01*
X-7166Y44488D01*
X-7242Y44872D01*
X-7460Y45198D01*
Y45353D01*
X-7242Y45679D01*
X-7166Y46063D01*
X-7242Y46447D01*
X-7460Y46773D01*
X-7785Y46990D01*
X-8169Y47067D01*
X-10668D01*
X-11119Y47517D01*
Y49101D01*
X-11187Y49447D01*
X-11383Y49740D01*
X-12577Y50934D01*
X-12870Y51130D01*
X-13216Y51199D01*
X-15571D01*
X-15821Y51449D01*
Y53076D01*
X-19184D01*
Y50073D01*
X-19654Y50000D01*
X-21654D01*
Y45276D01*
X-17323D01*
Y48744D01*
X-16980Y49087D01*
X-16878Y49240D01*
X-16725Y49392D01*
X-13590D01*
X-12925Y48727D01*
Y47143D01*
X-12856Y46797D01*
X-12661Y46504D01*
X-12048Y45891D01*
X-12255Y45391D01*
X-12992D01*
X-13338Y45323D01*
X-13631Y45127D01*
X-14269Y44488D01*
X-17323D01*
Y41041D01*
X-17427Y40937D01*
X-17623Y40644D01*
X-17692Y40298D01*
Y38703D01*
X-18470D01*
Y35700D01*
X-18470Y35700D01*
X-18470D01*
X-18371Y35200D01*
X-18409Y35108D01*
Y34520D01*
X-18264Y34171D01*
X-18514Y33748D01*
X-20708D01*
Y29700D01*
X-16746D01*
Y32045D01*
X-16271Y32520D01*
X-15967Y32454D01*
X-15771Y32330D01*
Y29742D01*
X-13309D01*
Y26013D01*
X-13249Y25714D01*
X-13264Y25677D01*
Y25089D01*
X-13040Y24547D01*
X-12625Y24131D01*
X-12342Y24014D01*
X-12197Y23549D01*
X-12197Y23549D01*
X-12197Y23549D01*
Y20580D01*
X-9774D01*
Y17896D01*
X-12158Y15511D01*
X-12354Y15218D01*
X-12422Y14873D01*
Y12326D01*
X-12354Y11981D01*
X-12158Y11688D01*
X-11369Y10899D01*
X-11076Y10703D01*
X-10978Y10684D01*
X-10732Y10438D01*
X-10349Y10279D01*
X-10017D01*
X-9790Y10099D01*
X-9610Y9872D01*
Y9623D01*
X-9790Y9397D01*
X-10017Y9216D01*
X-10349D01*
X-10732Y9057D01*
X-11026Y8764D01*
X-11185Y8380D01*
Y8321D01*
X-11543Y7963D01*
X-11788D01*
X-12331Y7738D01*
X-12746Y7323D01*
X-12971Y6780D01*
Y6193D01*
X-12746Y5650D01*
X-12331Y5235D01*
X-11788Y5010D01*
X-11201D01*
X-10658Y5235D01*
X-10243Y5650D01*
X-10018Y6193D01*
Y6780D01*
X-10053Y6866D01*
X-9734Y7212D01*
X-9550Y7288D01*
X-9257Y7582D01*
X-9098Y7965D01*
Y8297D01*
X-8918Y8524D01*
X-8691Y8704D01*
X-8485D01*
X-8021Y8240D01*
X-7968Y7977D01*
X-7729Y7619D01*
X-7729Y7619D01*
X-6023Y5912D01*
X-5665Y5673D01*
X-5242Y5589D01*
X-1492D01*
Y5500D01*
X6406D01*
Y8211D01*
X6906Y8418D01*
X7717Y7608D01*
Y5601D01*
X11371D01*
Y9169D01*
X9278D01*
X8405Y10043D01*
X8564Y10282D01*
X8648Y10704D01*
Y10805D01*
X10634D01*
Y13414D01*
X9227D01*
X9115Y13526D01*
Y13642D01*
X9031Y14064D01*
X8792Y14423D01*
X8101Y15114D01*
Y16446D01*
X8017Y16869D01*
X7778Y17227D01*
X7086Y17919D01*
X6890Y18050D01*
Y18081D01*
X6620Y18732D01*
X6122Y19231D01*
X5471Y19500D01*
X4766D01*
X4115Y19231D01*
X3616Y18732D01*
X3347Y18081D01*
Y17376D01*
X3483Y17048D01*
X3148Y16548D01*
X211D01*
X-235Y16993D01*
X-625Y17254D01*
X-1086Y17346D01*
X-1086Y17346D01*
X-5188D01*
X-5467Y17768D01*
X-5286Y18184D01*
X-4601D01*
Y20793D01*
X-4601D01*
Y20940D01*
X-4601D01*
Y22594D01*
X-4073Y23122D01*
X-3011Y22060D01*
Y20580D01*
X-8D01*
Y22250D01*
X492Y22488D01*
X891Y22323D01*
X1478D01*
X1668Y22196D01*
Y21045D01*
X4277D01*
Y23677D01*
X4777Y23884D01*
X5782Y22879D01*
Y21367D01*
X8391D01*
Y24336D01*
X6879D01*
X4878Y26338D01*
Y27933D01*
X4941Y28248D01*
Y30807D01*
X4864Y31191D01*
X4647Y31517D01*
X4605Y32146D01*
X4905Y32446D01*
X5563Y32495D01*
X5631Y32427D01*
X6173Y32203D01*
X6718D01*
X6790Y32180D01*
X7095Y31944D01*
X7177Y31834D01*
X7242Y31506D01*
X7460Y31180D01*
X7785Y30963D01*
X8169Y30886D01*
X10175D01*
X10534Y30527D01*
X10827Y30332D01*
X11173Y30263D01*
X11766D01*
X12522Y29507D01*
Y27913D01*
X12591Y27568D01*
X12787Y27275D01*
X13379Y26683D01*
X13672Y26487D01*
X14017Y26418D01*
X17775D01*
X18121Y26487D01*
X18414Y26683D01*
X18996Y27265D01*
X19192Y27558D01*
X19261Y27903D01*
Y34912D01*
X20846Y36498D01*
X22638D01*
Y35236D01*
X23985D01*
Y33926D01*
X23530Y33471D01*
X23191Y32884D01*
X23059Y32390D01*
X25591D01*
Y31390D01*
X23059D01*
X23191Y30896D01*
X23530Y30309D01*
X23985Y29854D01*
Y28543D01*
X22638D01*
Y24213D01*
X23985D01*
Y23031D01*
X22638D01*
Y18701D01*
X23985D01*
Y17520D01*
X22638D01*
Y13189D01*
X23985D01*
Y12008D01*
X22638D01*
Y7677D01*
X23985D01*
Y1606D01*
X21327D01*
X20872Y2060D01*
X20285Y2399D01*
X19791Y2532D01*
Y0D01*
X18791D01*
Y2532D01*
X18297Y2399D01*
X17710Y2060D01*
X17256Y1606D01*
X15945D01*
Y2953D01*
X11614D01*
Y1606D01*
X10433D01*
Y2953D01*
X6102D01*
Y1606D01*
X4921D01*
Y2953D01*
X591D01*
Y1606D01*
X-591D01*
Y2953D01*
X-4921D01*
Y1606D01*
X-6102D01*
Y2953D01*
X-10433D01*
Y1606D01*
X-11614D01*
Y2953D01*
X-15945D01*
Y1606D01*
X-17126D01*
Y2953D01*
X-21457D01*
Y1606D01*
X-23985D01*
Y7807D01*
X-23530Y8262D01*
X-23191Y8849D01*
X-23059Y9342D01*
X-25591D01*
Y10343D01*
X-23059D01*
X-23191Y10836D01*
X-23530Y11423D01*
X-23985Y11878D01*
Y13189D01*
X-22638D01*
Y17520D01*
X-23985D01*
Y18701D01*
X-22638D01*
Y20073D01*
X-22351Y20130D01*
X-21961Y20391D01*
X-21672Y20680D01*
X-19809D01*
X-19808Y20680D01*
X-19692Y20703D01*
X-17987D01*
Y21190D01*
X-16462D01*
Y20580D01*
X-13853D01*
Y23549D01*
X-15131D01*
X-15379Y23598D01*
X-15471D01*
Y24472D01*
X-15312Y24856D01*
Y25443D01*
X-15537Y25986D01*
X-15952Y26401D01*
X-16495Y26626D01*
X-17082D01*
X-17625Y26401D01*
X-18040Y25986D01*
X-18265Y25443D01*
Y24856D01*
X-18145Y24566D01*
X-18446Y24066D01*
X-20468D01*
X-20770Y24566D01*
X-20650Y24856D01*
Y25443D01*
X-20874Y25986D01*
X-21290Y26401D01*
X-21832Y26626D01*
X-22420D01*
X-22638Y26772D01*
Y28543D01*
X-23985D01*
Y29724D01*
X-22638D01*
Y34055D01*
X-23985D01*
Y35236D01*
X-22638D01*
Y39567D01*
X-23985D01*
Y40748D01*
X-22638D01*
Y45079D01*
X-23985D01*
Y46260D01*
X-22638D01*
Y50591D01*
X-23985D01*
Y51181D01*
X-23993Y51220D01*
X-23987Y51260D01*
X-24006Y51646D01*
X-24035Y51761D01*
Y51880D01*
X-24185Y52637D01*
X-24246Y52783D01*
X-24277Y52938D01*
X-24572Y53651D01*
X-24660Y53783D01*
X-24720Y53929D01*
X-25149Y54571D01*
X-25261Y54682D01*
X-25349Y54814D01*
X-25895Y55360D01*
X-26026Y55448D01*
X-26138Y55559D01*
X-26780Y55988D01*
X-26926Y56049D01*
X-27057Y56137D01*
X-27770Y56432D01*
X-27925Y56463D01*
X-28071Y56523D01*
X-28828Y56674D01*
X-28947D01*
X-29063Y56703D01*
X-29449Y56722D01*
X-29488Y56716D01*
X-29528Y56724D01*
X-41701D01*
Y68504D01*
X-32087D01*
X-28708Y64978D01*
D02*
G37*
G36*
X-11698Y43085D02*
X-11732Y42913D01*
X-11655Y42529D01*
X-11438Y42204D01*
X-11112Y41986D01*
X-10728Y41910D01*
X-8321D01*
X-8132Y41872D01*
X-7776D01*
Y41832D01*
X-7551Y41290D01*
X-7136Y40874D01*
X-6593Y40650D01*
X-6006D01*
X-5463Y40874D01*
X-5048Y41290D01*
X-5032Y41328D01*
X-4547Y41433D01*
X-4208Y41132D01*
Y36154D01*
X-4545Y35865D01*
X-5048Y35954D01*
X-5463Y36370D01*
X-6006Y36595D01*
X-6498D01*
X-7157Y37253D01*
X-7242Y37805D01*
X-7166Y38189D01*
X-7242Y38573D01*
X-7460Y38899D01*
X-7785Y39116D01*
X-8169Y39193D01*
X-8825D01*
X-8988Y39301D01*
X-9449Y39393D01*
X-9449Y39393D01*
X-12680D01*
X-12933Y39693D01*
X-12992Y39871D01*
Y43211D01*
X-12618Y43585D01*
X-12019D01*
X-11698Y43085D01*
D02*
G37*
D10*
X-11788Y25170D02*
X-11053Y24434D01*
Y22257D02*
Y24434D01*
X-12205Y26013D02*
Y32501D01*
X-11053Y22257D02*
X-11026Y22230D01*
X-11788Y25170D02*
Y25596D01*
X-12205Y26013D02*
X-11788Y25596D01*
X-12205Y32501D02*
X-11340Y33366D01*
X5438Y17729D02*
X6028Y17138D01*
X6305D01*
X5118Y17729D02*
X5438D01*
X-11340Y33366D02*
X-9547D01*
X2457Y8363D02*
X3842Y9748D01*
X787Y6693D02*
X2457Y8363D01*
X7544Y14109D02*
X8011Y13642D01*
Y13069D02*
X8970Y12110D01*
X6997Y14657D02*
Y16446D01*
Y14657D02*
X7544Y14109D01*
X8970Y12110D02*
X9150D01*
X7544Y10704D02*
Y14109D01*
X6305Y17138D02*
X6997Y16446D01*
X8011Y13069D02*
Y13642D01*
X6598Y9758D02*
X7544Y10704D01*
X6598Y9748D02*
Y9758D01*
X-6919Y13554D02*
X-6525D01*
X-5498Y13298D02*
X-3652D01*
X-6299Y14099D02*
Y14173D01*
X-7892Y13540D02*
X-6933D01*
X-6525Y13554D02*
X-6299Y13780D01*
X-6933Y13540D02*
X-6919Y13554D01*
X-6299Y14099D02*
X-5498Y13298D01*
X-6948Y8399D02*
X-5242Y6693D01*
X-6948Y8399D02*
X-6948D01*
X-5242Y6693D02*
X787D01*
X-8535Y12897D02*
X-7892Y13540D01*
X-3652Y13298D02*
X-3448Y13094D01*
X-10119Y12920D02*
Y13897D01*
X-3448Y12950D02*
Y13094D01*
X3842Y9748D02*
X6598D01*
X7182Y9704D02*
X9501Y7385D01*
X9544D01*
D11*
X-16142Y50295D02*
X-13216D01*
X-17099D02*
X-16142D01*
X-17503Y51575D02*
X-16887Y50959D01*
X-16609D02*
X-16142Y50492D01*
X-16887Y50959D02*
X-16609D01*
X9449Y31890D02*
X10675D01*
X10766Y31799D01*
Y31573D02*
Y31799D01*
Y31573D02*
X11173Y31166D01*
X12140D01*
X13425Y29881D01*
Y27913D02*
Y29881D01*
Y27913D02*
X14017Y27321D01*
X17775D02*
X18357Y27903D01*
X14017Y27321D02*
X17775D01*
X18357Y27903D02*
Y35287D01*
X-765Y27321D02*
X33Y26523D01*
X1977D01*
X-787Y29528D02*
X-765Y29505D01*
Y27321D02*
Y29505D01*
X3975Y25964D02*
X6488Y23450D01*
X6668D02*
X7087Y23031D01*
X1977Y26523D02*
X2203Y26297D01*
X6488Y23450D02*
X6668D01*
X7087Y22852D02*
Y23031D01*
X3975Y25964D02*
Y29490D01*
X3937Y29528D02*
X3975Y29490D01*
X18357Y35287D02*
X20472Y37402D01*
X9487Y39726D02*
X11001D01*
X13239Y37488D01*
X9449Y39764D02*
X9487Y39726D01*
Y35002D02*
X11296D01*
X15646Y32437D02*
X15650Y32441D01*
X13878Y34062D02*
X14502Y33437D01*
X9487Y36577D02*
X11391D01*
X13878Y34062D02*
Y34090D01*
X14502Y33304D02*
Y33437D01*
X15369Y32437D02*
X15646D01*
X12309Y33961D02*
X13321Y32948D01*
X13239Y37089D02*
X15532Y34796D01*
X14502Y33304D02*
X15369Y32437D01*
X9449Y35039D02*
X9487Y35002D01*
X11296D02*
X12309Y33989D01*
X11391Y36577D02*
X13878Y34090D01*
X13321Y31655D02*
Y32948D01*
X12309Y33961D02*
Y33989D01*
X15532Y34796D02*
X15650D01*
X13239Y37089D02*
Y37488D01*
X11453Y41301D02*
X13425Y39329D01*
X9449Y41339D02*
X9487Y41301D01*
X11453D01*
X13425Y39306D02*
Y39329D01*
X9449Y36614D02*
X9487Y36577D01*
X13321Y31655D02*
X15650Y29327D01*
X-8871Y23590D02*
X-7087Y25374D01*
X-11116Y11923D02*
Y11923D01*
X-11519Y14873D02*
X-8871Y17522D01*
Y23590D01*
X-11495Y6734D02*
X-10141Y8088D01*
Y8173D01*
X-11495Y6486D02*
Y6734D01*
X-7167Y10894D02*
X-6169D01*
X-5906Y10630D01*
X-10730Y11537D02*
X-10246D01*
X-11116Y11923D02*
X-10730Y11537D01*
X-11519Y12326D02*
X-11116Y11923D01*
X-7087Y29528D02*
Y30860D01*
Y25374D02*
Y29528D01*
X-9449Y29771D02*
Y31890D01*
Y29771D02*
X-9360Y29682D01*
X-2968Y43457D02*
X-2045Y42534D01*
Y35162D02*
Y42534D01*
X-4740Y45346D02*
X-4663Y45422D01*
X-4740Y42979D02*
Y45346D01*
Y42979D02*
X-3305Y41544D01*
X-2968Y43457D02*
Y43777D01*
X-3305Y35572D02*
Y41544D01*
X-596Y34940D02*
Y43689D01*
X1776Y43500D02*
X4521D01*
X-10980Y46101D02*
X-9487D01*
X-12022Y47143D02*
Y49101D01*
Y47143D02*
X-10980Y46101D01*
X-9487D02*
X-9449Y46063D01*
X-18293Y49380D02*
X-17964D01*
X-17618Y49726D01*
Y49776D01*
X-13216Y50295D02*
X-12022Y49101D01*
X-17618Y49776D02*
X-17099Y50295D01*
X-17757Y49916D02*
X-17181Y50492D01*
X-18406Y49267D02*
X-17757Y49916D01*
X-5474Y29565D02*
Y31733D01*
X-5512Y29528D02*
X-5474Y29565D01*
X-3899Y29609D02*
Y31637D01*
X-5474Y31733D02*
X-2045Y35162D01*
X-3937Y29571D02*
X-3899Y29609D01*
X-2340Y31527D02*
X970Y34836D01*
Y35046D01*
X-6791Y31156D02*
Y32086D01*
X1431Y35507D02*
Y35827D01*
X-2340Y29550D02*
Y31527D01*
X970Y35046D02*
X1431Y35507D01*
X-3899Y31637D02*
X-596Y34940D01*
X-6791Y32086D02*
X-3305Y35572D01*
X-7087Y30860D02*
X-6791Y31156D01*
X-9449Y36614D02*
X-7795D01*
X-6299Y35118D01*
X13425Y39306D02*
X15330Y37402D01*
X9449Y42913D02*
X12539D01*
X15650Y39803D01*
X-5832Y10556D02*
X-3522D01*
X-5906Y10630D02*
X-5832Y10556D01*
X-3522D02*
X-3448Y10482D01*
X-7596Y11322D02*
X-7167Y10894D01*
X-8567Y11322D02*
X-7596D01*
X2838Y22529D02*
Y22844D01*
X-7060Y18209D02*
Y18334D01*
X-5906Y19488D01*
X1184Y23799D02*
X1373Y23611D01*
X2071D01*
X2838Y22844D01*
X-11519Y12326D02*
Y14873D01*
X5764Y38655D02*
Y38803D01*
X6467Y33679D02*
X6733D01*
X2362Y31181D02*
X4502Y33321D01*
Y37393D02*
X5764Y38655D01*
X1969Y38445D02*
X3242Y37172D01*
X6948Y33465D02*
X9449D01*
X787Y31968D02*
X3242Y34423D01*
X1969Y38445D02*
Y38571D01*
X3242Y34423D02*
Y37172D01*
X4502Y33321D02*
Y37393D01*
X6733Y33679D02*
X6948Y33465D01*
X787Y29528D02*
Y31968D01*
X4521Y43500D02*
X5509Y44488D01*
X-15157Y42126D02*
Y42323D01*
X-12992Y44488D02*
X-9449D01*
X-15157Y42323D02*
X-12992Y44488D01*
X-15157Y41929D02*
Y42126D01*
X6821Y37195D02*
Y37214D01*
X6313Y36687D02*
X6821Y37195D01*
X6313Y36389D02*
Y36687D01*
X6821Y37214D02*
X7795Y38189D01*
X2362Y29528D02*
Y31181D01*
X20472Y37402D02*
X24409D01*
X25591D01*
X7795Y38189D02*
X9449D01*
X5509Y44488D02*
X9449D01*
X-16789Y37402D02*
Y40298D01*
X-15157Y41929D01*
X-17181Y50492D02*
X-16142D01*
X-18406Y48720D02*
Y49267D01*
X-19488Y47638D02*
X-18406Y48720D01*
D12*
X-8169Y42913D02*
X-8132Y42876D01*
X-6503Y42126D02*
X-6299D01*
X-9449Y42913D02*
X-8169D01*
X-8132Y42876D02*
X-7253D01*
X-6503Y42126D01*
X-12368Y35700D02*
X-12205D01*
X-11545Y35039D01*
X-9449D01*
X-8087Y9725D02*
X-6948Y8587D01*
X-8544Y9725D02*
X-8087D01*
D14*
X-25591Y51181D02*
G03*
X-29528Y55118I-3937J0D01*
G01*
X29528D02*
G03*
X25591Y51181I0J-3937D01*
G01*
X6281Y110236D02*
X13171D01*
X-6383D02*
X-872D01*
X-43307Y55118D02*
Y110236D01*
Y55118D02*
X-29528D01*
X-43307Y110236D02*
X43307D01*
Y55118D02*
Y110236D01*
X29528Y55118D02*
X43307D01*
X-25591Y0D02*
Y51181D01*
Y0D02*
X25591D01*
Y51181D01*
D15*
X7087Y29528D02*
D03*
X5512D02*
D03*
X3937D02*
D03*
X2362D02*
D03*
X787D02*
D03*
X-787D02*
D03*
X-2362D02*
D03*
X-3937D02*
D03*
X-5512D02*
D03*
X-7087D02*
D03*
Y48425D02*
D03*
X-5512D02*
D03*
X-3937D02*
D03*
X-2362D02*
D03*
X-787D02*
D03*
X787D02*
D03*
X2362D02*
D03*
X3937D02*
D03*
X5512D02*
D03*
X7087D02*
D03*
D16*
X-9449Y31890D02*
D03*
Y33465D02*
D03*
Y35039D02*
D03*
Y36614D02*
D03*
Y38189D02*
D03*
Y39764D02*
D03*
Y41339D02*
D03*
Y42913D02*
D03*
Y44488D02*
D03*
Y46063D02*
D03*
X9449D02*
D03*
Y44488D02*
D03*
Y42913D02*
D03*
Y41339D02*
D03*
Y39764D02*
D03*
Y38189D02*
D03*
Y36614D02*
D03*
Y35039D02*
D03*
Y33465D02*
D03*
Y31890D02*
D03*
D17*
X-19488Y47638D02*
D03*
X-15157D02*
D03*
Y42126D02*
D03*
X-19488D02*
D03*
D18*
X-5906Y22244D02*
D03*
Y19488D02*
D03*
D19*
X12607Y7385D02*
D03*
X9544D02*
D03*
D20*
X-18727Y28267D02*
D03*
Y31724D02*
D03*
D21*
X-3448Y10482D02*
D03*
Y12950D02*
D03*
D22*
X-14269Y28634D02*
D03*
Y31424D02*
D03*
X-19488Y19595D02*
D03*
Y22385D02*
D03*
X-1509Y19471D02*
D03*
Y22261D02*
D03*
D23*
X19481Y58617D02*
D03*
X21698Y59525D02*
D03*
D24*
X2457Y13685D02*
D03*
Y8363D02*
D03*
D25*
X9150Y12110D02*
D03*
X11546D02*
D03*
D26*
X20472Y75000D02*
D03*
X27559D02*
D03*
X34646D02*
D03*
Y106102D02*
D03*
X27559D02*
D03*
X20472D02*
D03*
X-34646Y75000D02*
D03*
X-27559D02*
D03*
X-20472D02*
D03*
Y106102D02*
D03*
X-27559D02*
D03*
X-34646D02*
D03*
D27*
X24409Y48425D02*
D03*
Y42913D02*
D03*
Y37402D02*
D03*
Y31890D02*
D03*
Y26378D02*
D03*
Y20866D02*
D03*
Y15354D02*
D03*
Y9843D02*
D03*
X-24409Y9843D02*
D03*
Y15354D02*
D03*
Y20866D02*
D03*
Y26378D02*
D03*
Y31890D02*
D03*
Y37402D02*
D03*
Y42913D02*
D03*
Y48425D02*
D03*
D28*
X-19482Y58617D02*
D03*
X-21699Y59525D02*
D03*
D29*
X2973Y20133D02*
D03*
Y22529D02*
D03*
X7087Y22852D02*
D03*
Y20456D02*
D03*
X-15157Y22064D02*
D03*
Y19668D02*
D03*
X-10892D02*
D03*
Y22064D02*
D03*
D30*
X-16789Y37201D02*
D03*
X-19579D02*
D03*
X-20293Y51575D02*
D03*
X-17503D02*
D03*
D31*
X-19291Y1181D02*
D03*
X-13780D02*
D03*
X-8268D02*
D03*
X-2756D02*
D03*
X2756D02*
D03*
X8268D02*
D03*
X13780D02*
D03*
X19291D02*
D03*
D34*
X-10141Y12897D02*
D03*
X-8567D02*
D03*
X-10141Y11322D02*
D03*
X-8567D02*
D03*
X-10141Y9748D02*
D03*
X-8567D02*
D03*
X-10141Y8173D02*
D03*
X-8567D02*
D03*
D39*
X-27559Y64567D02*
G03*
X-25115Y60924I3937J0D01*
G01*
X-3937Y49606D02*
G03*
X-6381Y53249I-3937J0D01*
G01*
X6381D02*
G03*
X3937Y49606I1493J-3643D01*
G01*
X25115Y60924D02*
G03*
X27559Y64567I-1493J3643D01*
G01*
X-27559D02*
Y75000D01*
X-25115Y60924D02*
X-21698Y59524D01*
X-19481Y58617D02*
X-6381Y53249D01*
X-19496Y58623D02*
X-19481Y58617D01*
X19481D02*
X19496Y58623D01*
X6381Y53249D02*
X19481Y58617D01*
X21698Y59524D02*
X25115Y60924D01*
X27559Y64567D02*
Y75000D01*
D40*
X-19479Y22214D02*
Y22394D01*
X-22171Y21884D02*
X-19808D01*
X-25214Y21243D02*
X-22812D01*
X-19808Y21884D02*
X-19479Y22214D01*
X-22812Y21243D02*
X-22171Y21884D01*
X-25591Y20866D02*
X-25214Y21243D01*
X19291Y0D02*
Y1181D01*
X-25591Y9843D02*
X-24409D01*
X-16676Y22394D02*
X-15379D01*
X-16676D02*
Y25036D01*
X-19479Y22394D02*
X-16676D01*
X-1830Y22761D02*
X-1509Y22441D01*
X-3636Y24388D02*
X-2009Y22761D01*
X-3648Y25383D02*
X-3636Y25370D01*
X-1509Y22261D02*
Y22441D01*
X-2009Y22761D02*
X-1830D01*
X-3636Y24388D02*
Y25370D01*
X-5935Y22963D02*
X-3749Y25150D01*
Y25383D01*
X-5906Y22244D02*
Y22933D01*
X-14300Y34341D02*
X-14285Y34326D01*
Y31439D02*
X-14269Y31424D01*
X-14285Y31439D02*
Y34326D01*
X-17045Y33449D02*
Y34701D01*
X-16932Y34814D01*
X-18727Y31724D02*
Y31767D01*
X-17045Y33449D01*
X-16789Y25150D02*
X-16676Y25036D01*
X-14454Y36567D02*
X-12832Y38189D01*
X-9449D01*
X-14454Y34759D02*
Y36567D01*
X-14567Y34646D02*
X-14454Y34759D01*
X-9449Y38189D02*
X-9449Y38189D01*
X-7874Y16142D02*
X-1086D01*
X1371Y13685D01*
X2457D01*
X-9843Y14173D02*
X-7874Y16142D01*
D41*
X25591Y15354D02*
D03*
Y20866D02*
D03*
Y26378D02*
D03*
Y31890D02*
D03*
Y37402D02*
D03*
Y42913D02*
D03*
Y48425D02*
D03*
Y9843D02*
D03*
X-19291Y0D02*
D03*
X19291D02*
D03*
X13780D02*
D03*
X8268D02*
D03*
X2756D02*
D03*
X-2756D02*
D03*
X-8268D02*
D03*
X-13780D02*
D03*
X-25591Y42913D02*
D03*
Y37402D02*
D03*
Y31890D02*
D03*
Y26378D02*
D03*
Y20866D02*
D03*
Y15354D02*
D03*
Y48425D02*
D03*
Y9843D02*
D03*
D42*
X19685Y50787D02*
D03*
X13386Y49606D02*
D03*
X-33858Y59055D02*
D03*
X-39370Y66142D02*
D03*
X-38583Y61417D02*
D03*
X38583D02*
D03*
X39370Y66142D02*
D03*
X33858Y59055D02*
D03*
X0Y56693D02*
D03*
X-11811Y61417D02*
D03*
X0D02*
D03*
X11811D02*
D03*
X-5872Y61335D02*
D03*
X5939D02*
D03*
X17356Y66846D02*
D03*
X-17289D02*
D03*
X5939D02*
D03*
X-5872D02*
D03*
X11811Y66929D02*
D03*
X0D02*
D03*
X-11811D02*
D03*
X-7856Y51726D02*
D03*
X-10407Y52771D02*
D03*
X-15507Y54861D02*
D03*
X-12957Y53816D02*
D03*
X-11464Y57459D02*
D03*
X-14014Y58504D02*
D03*
X-8914Y56414D02*
D03*
X-6364Y55369D02*
D03*
X-23306Y57631D02*
D03*
X-25707Y59040D02*
D03*
X-20756Y56586D02*
D03*
X-18057Y55906D02*
D03*
X-21515Y62003D02*
D03*
X-24215Y62683D02*
D03*
X-18965Y60958D02*
D03*
X-16564Y59549D02*
D03*
X-24561Y64953D02*
D03*
X-22937Y66840D02*
D03*
X-28108Y60449D02*
D03*
X-29118Y62139D02*
D03*
X-30127Y63829D02*
D03*
X-31501Y65669D02*
D03*
X-33024Y67144D02*
D03*
X-3937Y54331D02*
D03*
X-2362Y51968D02*
D03*
X2362D02*
D03*
X3937Y54331D02*
D03*
X33024Y67144D02*
D03*
X31501Y65669D02*
D03*
X30127Y63829D02*
D03*
X29118Y62139D02*
D03*
X28108Y60449D02*
D03*
X22937Y66840D02*
D03*
X24561Y64953D02*
D03*
X16564Y59549D02*
D03*
X18965Y60958D02*
D03*
X24215Y62683D02*
D03*
X21515Y62003D02*
D03*
X18057Y55906D02*
D03*
X20756Y56586D02*
D03*
X25707Y59040D02*
D03*
X23306Y57631D02*
D03*
X6364Y55369D02*
D03*
X8914Y56414D02*
D03*
X14014Y58504D02*
D03*
X11464Y57459D02*
D03*
X12957Y53816D02*
D03*
X15507Y54861D02*
D03*
X10407Y52771D02*
D03*
X7856Y51726D02*
D03*
X1776Y43500D02*
D03*
X19291Y5601D02*
D03*
X17256Y20456D02*
D03*
X-16409Y28172D02*
D03*
X2203Y26297D02*
D03*
X6173Y26591D02*
D03*
X-12022Y40295D02*
D03*
X15650Y34796D02*
D03*
Y31946D02*
D03*
Y29327D02*
D03*
X-11788Y25383D02*
D03*
X-19488Y39246D02*
D03*
X-11495Y6486D02*
D03*
X-8268Y6693D02*
D03*
X-12368Y35700D02*
D03*
X-14300Y34341D02*
D03*
X-9360Y29682D02*
D03*
X-16932Y34814D02*
D03*
X-4663Y45422D02*
D03*
X-6299Y42126D02*
D03*
X-2968Y43777D02*
D03*
X-596Y43689D02*
D03*
X-6299Y35118D02*
D03*
X15650Y39803D02*
D03*
X17775Y12110D02*
D03*
X-17987Y8088D02*
D03*
X-17374Y14487D02*
D03*
X-7060Y18209D02*
D03*
X1184Y23799D02*
D03*
X1431Y35827D02*
D03*
X1969Y38571D02*
D03*
X-22126Y25150D02*
D03*
X-16789D02*
D03*
X-3749Y25383D02*
D03*
X6467Y33679D02*
D03*
X6313Y36389D02*
D03*
X5764Y38803D02*
D03*
X15650Y37184D02*
D03*
D43*
X5118Y17729D02*
D03*
X-5906Y10630D02*
D03*
X-6299Y13780D02*
D03*
M02*
