G04*
G04 #@! TF.GenerationSoftware,Altium Limited,Altium NEXUS,5.8.2 (18)*
G04*
G04 Layer_Physical_Order=4*
G04 Layer_Color=16711680*
%FSLAX25Y25*%
%MOIN*%
G70*
G04*
G04 #@! TF.SameCoordinates,96A2D957-15C9-49F1-B6A3-93ECAB74F1FA*
G04*
G04*
G04 #@! TF.FilePolarity,Positive*
G04*
G01*
G75*
%ADD11C,0.00591*%
%ADD14C,0.00394*%
%ADD40C,0.01181*%
%ADD41C,0.03150*%
%ADD42C,0.01772*%
%ADD43C,0.02362*%
%ADD44R,0.03543X0.03150*%
%ADD45R,0.03150X0.03543*%
G36*
X41701Y56724D02*
X29528D01*
X29488Y56716D01*
X29449Y56722D01*
X29063Y56703D01*
X28947Y56674D01*
X28828D01*
X28071Y56523D01*
X27925Y56463D01*
X27770Y56432D01*
X27057Y56137D01*
X26926Y56049D01*
X26780Y55988D01*
X26138Y55559D01*
X26026Y55448D01*
X25895Y55360D01*
X25823Y55288D01*
X25811Y55280D01*
X25429Y54898D01*
X25420Y54886D01*
X25349Y54814D01*
X25261Y54683D01*
X25149Y54571D01*
X24720Y53929D01*
X24660Y53783D01*
X24572Y53651D01*
X24277Y52938D01*
X24246Y52783D01*
X24185Y52637D01*
X24035Y51880D01*
Y51761D01*
X24006Y51646D01*
X23987Y51260D01*
X23993Y51220D01*
X23985Y51181D01*
Y50461D01*
X23530Y50006D01*
X23191Y49419D01*
X23059Y48925D01*
X25591D01*
Y47925D01*
X23059D01*
X23191Y47431D01*
X23530Y46844D01*
X23985Y46389D01*
Y44949D01*
X23530Y44494D01*
X23191Y43907D01*
X23059Y43413D01*
X25591D01*
Y42413D01*
X23059D01*
X23191Y41919D01*
X23530Y41332D01*
X23985Y40878D01*
Y39567D01*
X21868D01*
Y43996D01*
X21799Y44342D01*
X21603Y44635D01*
X20059Y46179D01*
X19766Y46374D01*
X19421Y46443D01*
X10439D01*
X10093Y46374D01*
X9800Y46179D01*
X8422Y44801D01*
X4734D01*
X4389Y44732D01*
X4096Y44536D01*
X4096Y44536D01*
X3664Y44105D01*
X3074Y44222D01*
X3027Y44336D01*
X2612Y44752D01*
X2069Y44976D01*
X1482D01*
X939Y44752D01*
X846Y44658D01*
X655Y44525D01*
X240Y44941D01*
X-303Y45166D01*
X-890D01*
X-1433Y44941D01*
X-1738Y44635D01*
X-2132Y45028D01*
X-2675Y45253D01*
X-3187D01*
Y45716D01*
X-3412Y46259D01*
X-3827Y46674D01*
X-4369Y46899D01*
X-4957D01*
X-5499Y46674D01*
X-5848Y46325D01*
X-8364D01*
X-8524Y46485D01*
X-8817Y46681D01*
X-9162Y46750D01*
X-20472D01*
X-21260Y47537D01*
Y50591D01*
X-23985D01*
Y51181D01*
X-23993Y51220D01*
X-23987Y51260D01*
X-24006Y51646D01*
X-24035Y51761D01*
Y51880D01*
X-24185Y52637D01*
X-24246Y52783D01*
X-24277Y52938D01*
X-24572Y53651D01*
X-24660Y53783D01*
X-24720Y53929D01*
X-25149Y54571D01*
X-25261Y54682D01*
X-25349Y54814D01*
X-25895Y55360D01*
X-26026Y55448D01*
X-26138Y55559D01*
X-26780Y55988D01*
X-26926Y56049D01*
X-27057Y56137D01*
X-27770Y56432D01*
X-27925Y56463D01*
X-28071Y56523D01*
X-28828Y56674D01*
X-28947D01*
X-29063Y56703D01*
X-29449Y56722D01*
X-29488Y56716D01*
X-29528Y56724D01*
X-41701D01*
Y68504D01*
X41701D01*
Y56724D01*
D02*
G37*
G36*
X-8473Y38535D02*
X-8473Y38535D01*
X-8180Y38339D01*
X-7834Y38270D01*
X-7834Y38270D01*
X-2551D01*
X-2206Y38339D01*
X-1912Y38535D01*
X-1321Y39126D01*
X-821Y38919D01*
Y37224D01*
X-752Y36878D01*
X-556Y36585D01*
X-45Y36074D01*
Y35533D01*
X179Y34991D01*
X595Y34575D01*
X1137Y34350D01*
X1725D01*
X2267Y34575D01*
X2376Y34684D01*
X2876Y34477D01*
Y28103D01*
X2497Y27774D01*
X1909D01*
X1367Y27549D01*
X951Y27134D01*
X727Y26591D01*
Y26241D01*
X227Y26034D01*
X-1443Y27704D01*
Y31165D01*
X-1512Y31511D01*
X-1708Y31804D01*
X-4823Y34919D01*
Y35412D01*
X-5048Y35954D01*
X-5463Y36370D01*
X-6006Y36595D01*
X-6593D01*
X-7136Y36370D01*
X-7551Y35954D01*
X-7776Y35412D01*
Y34824D01*
X-7551Y34282D01*
X-7136Y33867D01*
X-6593Y33642D01*
X-6100D01*
X-3250Y30791D01*
Y28938D01*
X-3712Y28746D01*
X-10892Y35927D01*
Y35994D01*
X-11117Y36536D01*
X-11532Y36952D01*
X-12074Y37176D01*
X-12662D01*
X-13204Y36952D01*
X-13620Y36536D01*
X-13845Y35994D01*
Y35926D01*
X-14007Y35818D01*
X-14594D01*
X-15137Y35593D01*
X-15186Y35543D01*
X-15677Y35641D01*
X-15681Y35650D01*
X-16096Y36066D01*
X-16639Y36290D01*
X-17084D01*
X-17321Y36716D01*
X-17329Y36752D01*
X-12918Y41164D01*
X-11102D01*
X-8473Y38535D01*
D02*
G37*
G36*
X-18834Y35203D02*
X-18409Y34966D01*
Y34520D01*
X-18184Y33978D01*
X-17769Y33562D01*
X-17226Y33338D01*
X-16639D01*
X-16096Y33562D01*
X-16046Y33612D01*
X-15556Y33515D01*
X-15552Y33505D01*
X-15489Y33442D01*
Y31684D01*
X-15489Y31684D01*
X-15397Y31223D01*
X-15136Y30832D01*
X-11663Y27359D01*
X-11870Y26859D01*
X-12082D01*
X-12625Y26635D01*
X-13040Y26219D01*
X-13264Y25677D01*
Y25089D01*
X-13040Y24547D01*
X-12691Y24198D01*
Y23871D01*
X-13171Y23391D01*
X-15869D01*
X-15969Y23891D01*
X-15952Y23898D01*
X-15537Y24313D01*
X-15312Y24856D01*
Y25443D01*
X-15537Y25986D01*
X-15952Y26401D01*
X-16495Y26626D01*
X-17082D01*
X-17625Y26401D01*
X-18040Y25986D01*
X-18153Y25714D01*
X-18727Y25581D01*
X-18934Y25788D01*
X-19227Y25984D01*
X-19573Y26053D01*
X-20941D01*
X-21260Y26371D01*
Y28543D01*
X-23985D01*
Y29724D01*
X-21260D01*
Y32822D01*
X-18871Y35211D01*
X-18834Y35203D01*
D02*
G37*
G36*
X5215Y32843D02*
X5631Y32427D01*
X6173Y32203D01*
X6666D01*
X7069Y31799D01*
Y18936D01*
X6807Y18817D01*
X6569Y18783D01*
X6122Y19231D01*
X5471Y19500D01*
X5049D01*
X3423Y21127D01*
X3032Y21388D01*
X2571Y21480D01*
X2571Y21480D01*
X-2378D01*
X-4420Y23522D01*
X-4136Y23945D01*
X-4042Y23907D01*
X-3455D01*
X-2912Y24131D01*
X-2497Y24547D01*
X-2272Y25089D01*
Y25272D01*
X-1772Y25479D01*
X-292Y23999D01*
Y23506D01*
X-67Y22963D01*
X348Y22548D01*
X891Y22323D01*
X1478D01*
X2021Y22548D01*
X2436Y22963D01*
X2661Y23506D01*
Y24093D01*
X2556Y24345D01*
X2512Y24700D01*
X2806Y24949D01*
X3039Y25046D01*
X3455Y25461D01*
X3679Y26004D01*
Y26267D01*
X4418Y27005D01*
X4614Y27298D01*
X4683Y27644D01*
Y32822D01*
X5183Y32921D01*
X5215Y32843D01*
D02*
G37*
G36*
X-3728Y19424D02*
X-3728Y19424D01*
X-3337Y19163D01*
X-2877Y19071D01*
X2072D01*
X3347Y17797D01*
Y17376D01*
X3616Y16725D01*
X4115Y16227D01*
X4766Y15957D01*
X5471D01*
X6122Y16227D01*
X6569Y16674D01*
X6807Y16640D01*
X7069Y16521D01*
Y11564D01*
X6645Y11139D01*
X4002D01*
X4002Y11139D01*
X3657Y11071D01*
X3364Y10875D01*
X3364Y10875D01*
X2250Y9761D01*
X-939D01*
X-939Y9761D01*
X-1285Y9693D01*
X-1578Y9497D01*
X-1578Y9497D01*
X-1707Y9368D01*
X-12022D01*
X-12368Y9299D01*
X-12661Y9103D01*
X-17317Y4447D01*
X-17913D01*
X-18259Y4378D01*
X-18329Y4331D01*
X-21457D01*
Y1606D01*
X-23985D01*
Y7807D01*
X-23530Y8262D01*
X-23191Y8849D01*
X-23059Y9342D01*
X-25591D01*
Y10343D01*
X-23059D01*
X-23191Y10836D01*
X-23530Y11423D01*
X-23985Y11878D01*
Y13189D01*
X-21260D01*
Y17520D01*
X-23985D01*
Y18701D01*
X-21260D01*
Y23031D01*
X-23985D01*
Y24213D01*
X-23277D01*
X-22962Y23898D01*
X-22420Y23673D01*
X-21832D01*
X-21290Y23898D01*
X-20941Y24246D01*
X-19947D01*
X-17550Y21849D01*
X-17257Y21654D01*
X-16911Y21585D01*
X-12797D01*
X-12451Y21654D01*
X-12158Y21849D01*
X-11150Y22858D01*
X-10954Y23151D01*
X-10885Y23497D01*
X-10885Y23497D01*
Y24198D01*
X-10537Y24547D01*
X-10312Y25089D01*
Y25301D01*
X-9812Y25508D01*
X-3728Y19424D01*
D02*
G37*
G36*
X16783Y27842D02*
X17240Y27385D01*
Y23494D01*
X17308Y23148D01*
X17504Y22855D01*
X17668Y22691D01*
X17713Y22465D01*
X17909Y22172D01*
X18880Y21201D01*
Y18435D01*
X18949Y18090D01*
X19145Y17797D01*
X20061Y16880D01*
Y13413D01*
X20130Y13067D01*
X20326Y12774D01*
X20482Y12618D01*
X20493Y12565D01*
X20688Y12272D01*
X21260Y11701D01*
Y7677D01*
X23985D01*
Y1606D01*
X21327D01*
X20872Y2060D01*
X20285Y2399D01*
X19791Y2532D01*
Y0D01*
X18791D01*
Y2532D01*
X18297Y2399D01*
X17710Y2060D01*
X17256Y1606D01*
X15945D01*
Y3358D01*
X15962Y3445D01*
Y27858D01*
X16486Y28075D01*
X16783Y27842D01*
D02*
G37*
%LPC*%
G36*
X-6766Y19685D02*
X-7353D01*
X-7896Y19460D01*
X-8311Y19045D01*
X-8536Y18502D01*
Y17915D01*
X-8311Y17372D01*
X-7896Y16957D01*
X-7353Y16732D01*
X-6766D01*
X-6223Y16957D01*
X-5808Y17372D01*
X-5583Y17915D01*
Y18502D01*
X-5808Y19045D01*
X-6223Y19460D01*
X-6766Y19685D01*
D02*
G37*
G36*
X-5947Y15551D02*
X-6652D01*
X-7303Y15281D01*
X-7801Y14783D01*
X-8071Y14132D01*
Y13427D01*
X-7801Y12776D01*
X-7303Y12278D01*
X-6652Y12008D01*
X-5947D01*
X-5296Y12278D01*
X-4797Y12776D01*
X-4528Y13427D01*
Y14132D01*
X-4797Y14783D01*
X-5296Y15281D01*
X-5947Y15551D01*
D02*
G37*
%LPD*%
D11*
X-1333Y8465D02*
X-939Y8858D01*
X-12022Y8465D02*
X-1333D01*
X-16943Y3543D02*
X-12022Y8465D01*
X-939Y8858D02*
X2624D01*
X-19291Y1969D02*
X-18406D01*
Y886D02*
Y1969D01*
X-19291Y0D02*
X-18406Y886D01*
X7019Y10236D02*
X7972Y11190D01*
X-19291Y2165D02*
X-17913Y3543D01*
X-16943D01*
X7972Y11190D02*
Y32173D01*
X2624Y8858D02*
X4002Y10236D01*
X6467Y33679D02*
X7972Y32173D01*
X-19291Y1969D02*
Y2165D01*
X4002Y10236D02*
X7019D01*
X-2346Y27330D02*
Y31165D01*
X3779Y27644D02*
Y39379D01*
X2203Y26297D02*
X2433D01*
X3779Y27644D01*
X-2346Y27330D02*
X1184Y23799D01*
X-6299Y35118D02*
X-2346Y31165D01*
X15330Y39803D02*
X15650D01*
X10335Y9108D02*
Y34808D01*
X14828Y39301D02*
X14828D01*
X15330Y39803D01*
X10335Y34808D02*
X14828Y39301D01*
X15482Y34796D02*
X15650D01*
X12697Y32010D02*
X15482Y34796D01*
X13878Y30670D02*
X15650Y32441D01*
X11516Y8341D02*
Y33583D01*
X8707Y7480D02*
X10335Y9108D01*
X8136Y8858D02*
X9154Y9876D01*
X11516Y33583D02*
X15335Y37402D01*
X15059Y3445D02*
Y28417D01*
X9154Y9876D02*
Y33637D01*
X13341Y4724D02*
X13878Y5261D01*
Y30670D01*
X12697Y6639D02*
Y32010D01*
X15650Y29007D02*
Y29327D01*
X6402Y36389D02*
X9154Y33637D01*
X15059Y28417D02*
X15650Y29007D01*
X12160Y6102D02*
X12697Y6639D01*
X9278Y6102D02*
X11516Y8341D01*
X-12797Y22488D02*
X-11788Y23497D01*
Y25383D01*
X-16911Y22488D02*
X-12797D01*
X-23425Y37402D02*
X-22146Y38681D01*
X-22089Y39151D02*
X-19743Y41496D01*
X-22146Y38681D02*
Y38970D01*
X-22089Y39027D01*
Y39151D01*
X-23386Y42677D02*
X-20232D01*
X-19743Y41496D02*
X-17912Y43327D01*
X-19743Y41496D02*
X-19743D01*
X-17912Y43327D02*
X-10206D01*
X-20232Y42677D02*
X-18323Y44587D01*
X-9684D01*
X13780Y2165D02*
X15059Y3445D01*
X11797Y4724D02*
X13341D01*
X11226Y6102D02*
X12160D01*
X-19573Y25150D02*
X-16911Y22488D01*
X22300Y11122D02*
Y11938D01*
X21327Y12911D02*
X22300Y11938D01*
Y11122D02*
X23579Y9843D01*
X25591D01*
X24705Y10728D02*
X25591Y9843D01*
X19324Y23983D02*
X20965Y22343D01*
Y18924D02*
Y22343D01*
X19783Y18435D02*
X20965Y17254D01*
X22146Y16634D02*
X23425Y15354D01*
X19783Y18435D02*
Y21575D01*
X18548Y22811D02*
X19783Y21575D01*
X20965Y13413D02*
Y17254D01*
X22146Y16634D02*
Y17743D01*
X20965Y18924D02*
X22146Y17743D01*
X21327Y12911D02*
Y13050D01*
X20965Y13413D02*
X21327Y13050D01*
X-22146Y33169D02*
Y33213D01*
X-23425Y31890D02*
X-22146Y33169D01*
Y33213D02*
X-13292Y42067D01*
X-25591Y31890D02*
X-23425D01*
X-13292Y42067D02*
X-10728D01*
X-5565Y43898D02*
X-5318Y43651D01*
X-7233Y40354D02*
X-3885D01*
X-596Y43643D02*
Y43689D01*
X-5318Y43651D02*
X-3094D01*
X-9162Y45846D02*
X-8738Y45422D01*
X-10206Y43327D02*
X-7233Y40354D01*
X-3094Y43651D02*
X-2968Y43777D01*
X-8995Y43898D02*
X-5565D01*
X-9684Y44587D02*
X-8995Y43898D01*
X-3885Y40354D02*
X-596Y43643D01*
X-10728Y42067D02*
X-7834Y39173D01*
X-2551D01*
X-8738Y45422D02*
X-4663D01*
X-2551Y39173D02*
X1776Y43500D01*
X82Y37224D02*
Y39246D01*
X2180Y38781D02*
Y39561D01*
X4734Y43898D02*
X8796D01*
X2180Y39561D02*
X5138Y42520D01*
X82Y39246D02*
X4734Y43898D01*
X5138Y42520D02*
X9367D01*
X1969Y38571D02*
X2180Y38781D01*
X18143Y23494D02*
X18548Y23089D01*
Y22811D02*
Y23089D01*
X18143Y23494D02*
Y27759D01*
X18602Y28970D02*
X19324Y28248D01*
X17421Y28480D02*
X18143Y27759D01*
X19324Y23983D02*
Y28248D01*
X20965Y24297D02*
X22244Y23018D01*
X20965Y24297D02*
Y28278D01*
X22244Y22047D02*
X22539Y21752D01*
X22244Y22047D02*
Y23018D01*
X19783Y29459D02*
X20965Y28278D01*
X17402Y42835D02*
X18602Y41634D01*
X18043Y44162D02*
X19783Y42421D01*
X19421Y45540D02*
X20965Y43996D01*
Y29948D02*
Y43996D01*
X16585Y41575D02*
X17421Y40738D01*
X18602Y28970D02*
Y41634D01*
X20965Y29948D02*
X22146Y28767D01*
Y27657D02*
X22539Y27264D01*
X17421Y28480D02*
Y40738D01*
X19783Y29459D02*
Y42421D01*
X22146Y27657D02*
Y28767D01*
X1431Y35827D02*
Y35875D01*
X3779Y39379D02*
X5247Y40846D01*
X82Y37224D02*
X1431Y35875D01*
X-22126Y25150D02*
X-19573D01*
X6313Y36389D02*
X6402D01*
X-20846Y45846D02*
X-9162D01*
X-23425Y48425D02*
X-20846Y45846D01*
X-23622Y42913D02*
X-23386Y42677D01*
X-25591Y37402D02*
X-23425D01*
X-25591Y42913D02*
X-23622D01*
Y48425D02*
X-23425D01*
X-25591D02*
X-23622D01*
X6062Y38803D02*
X6666Y38200D01*
X5764Y38803D02*
X6062D01*
X6666Y38200D02*
X7063D01*
X7763Y37500D01*
X5247Y40846D02*
X9643D01*
X-8268Y0D02*
Y2122D01*
X-7087Y3303D02*
X-6160D01*
X-8268Y2122D02*
X-7087Y3303D01*
X-6160D02*
X-4738Y4724D01*
X-10250D02*
X-6687D01*
X-5309Y6102D01*
X-11628Y3347D02*
X-10250Y4724D01*
X-2756Y0D02*
Y2165D01*
X197Y3808D02*
Y4148D01*
X-264Y3347D02*
X197Y3808D01*
X-2756Y2165D02*
X-1575Y3347D01*
X-264D01*
X197Y4148D02*
X773Y4724D01*
X6285D02*
X9848D01*
X5144Y7480D02*
X8707D01*
X3195D02*
X4573Y8858D01*
X3766Y6102D02*
X5144Y7480D01*
X4573Y8858D02*
X8136D01*
X5714Y6102D02*
X9278D01*
X4337Y4724D02*
X5714Y6102D01*
X4907Y3347D02*
X6285Y4724D01*
X773D02*
X4337D01*
X-1175D02*
X203Y6102D01*
X-1746D02*
X-368Y7480D01*
X203Y6102D02*
X3766D01*
X-368Y7480D02*
X3195D01*
X-5309Y6102D02*
X-1746D01*
X-4738Y4724D02*
X-1175D01*
X-13780Y2165D02*
X-12598Y3347D01*
X-11628D01*
X-13780Y0D02*
Y2165D01*
X9848Y4724D02*
X11226Y6102D01*
X9449Y3347D02*
X10419D01*
X11797Y4724D01*
X8268Y2165D02*
X9449Y3347D01*
X3937D02*
X4907D01*
X2756Y2165D02*
X3937Y3347D01*
X7763Y37500D02*
X8366D01*
X2756Y0D02*
Y2165D01*
X8268Y0D02*
Y2165D01*
X13780Y0D02*
Y2165D01*
X11631Y42835D02*
X17402D01*
X8366Y37500D02*
X12441Y41575D01*
X16585D01*
X9643Y40846D02*
X11631Y42835D01*
X11010Y44162D02*
X18043D01*
X10439Y45540D02*
X19421D01*
X8796Y43898D02*
X10439Y45540D01*
X9367Y42520D02*
X11010Y44162D01*
X22539Y21752D02*
X24705D01*
Y27264D02*
X25591Y26378D01*
X22539Y27264D02*
X24705D01*
Y21752D02*
X25591Y20866D01*
X23425Y15354D02*
X25591D01*
D14*
X-25591Y51181D02*
G03*
X-29528Y55118I-3937J0D01*
G01*
X29528D02*
G03*
X25591Y51181I0J-3937D01*
G01*
X6281Y110236D02*
X13171D01*
X-6383D02*
X-872D01*
X-43307Y55118D02*
Y110236D01*
Y55118D02*
X-29528D01*
X-43307Y110236D02*
X43307D01*
Y55118D02*
Y110236D01*
X29528Y55118D02*
X43307D01*
X-25591Y0D02*
Y51181D01*
Y0D02*
X25591D01*
Y51181D01*
D40*
X-2877Y20276D02*
X2571D01*
X-14285Y31684D02*
X-2877Y20276D01*
X-14285Y31684D02*
Y34326D01*
X-14300Y34341D02*
X-14285Y34326D01*
X2571Y20276D02*
X5118Y17729D01*
X-12368Y35700D02*
X-3823Y27155D01*
Y25457D02*
Y27155D01*
Y25457D02*
X-3749Y25383D01*
D41*
X25591Y15354D02*
D03*
Y20866D02*
D03*
Y26378D02*
D03*
Y31890D02*
D03*
Y37402D02*
D03*
Y42913D02*
D03*
Y48425D02*
D03*
Y9843D02*
D03*
X-19291Y0D02*
D03*
X19291D02*
D03*
X13780D02*
D03*
X8268D02*
D03*
X2756D02*
D03*
X-2756D02*
D03*
X-8268D02*
D03*
X-13780D02*
D03*
X-25591Y42913D02*
D03*
Y37402D02*
D03*
Y31890D02*
D03*
Y26378D02*
D03*
Y20866D02*
D03*
Y15354D02*
D03*
Y48425D02*
D03*
Y9843D02*
D03*
D42*
X19685Y50787D02*
D03*
X13386Y49606D02*
D03*
X-33858Y59055D02*
D03*
X-39370Y66142D02*
D03*
X-38583Y61417D02*
D03*
X38583D02*
D03*
X39370Y66142D02*
D03*
X33858Y59055D02*
D03*
X0Y56693D02*
D03*
X-11811Y61417D02*
D03*
X0D02*
D03*
X11811D02*
D03*
X-5872Y61335D02*
D03*
X5939D02*
D03*
X17356Y66846D02*
D03*
X-17289D02*
D03*
X5939D02*
D03*
X-5872D02*
D03*
X11811Y66929D02*
D03*
X0D02*
D03*
X-11811D02*
D03*
X-7856Y51726D02*
D03*
X-10407Y52771D02*
D03*
X-15507Y54861D02*
D03*
X-12957Y53816D02*
D03*
X-11464Y57459D02*
D03*
X-14014Y58504D02*
D03*
X-8914Y56414D02*
D03*
X-6364Y55369D02*
D03*
X-23306Y57631D02*
D03*
X-25707Y59040D02*
D03*
X-20756Y56586D02*
D03*
X-18057Y55906D02*
D03*
X-21515Y62003D02*
D03*
X-24215Y62683D02*
D03*
X-18965Y60958D02*
D03*
X-16564Y59549D02*
D03*
X-24561Y64953D02*
D03*
X-22937Y66840D02*
D03*
X-28108Y60449D02*
D03*
X-29118Y62139D02*
D03*
X-30127Y63829D02*
D03*
X-31501Y65669D02*
D03*
X-33024Y67144D02*
D03*
X-3937Y54331D02*
D03*
X-2362Y51968D02*
D03*
X2362D02*
D03*
X3937Y54331D02*
D03*
X33024Y67144D02*
D03*
X31501Y65669D02*
D03*
X30127Y63829D02*
D03*
X29118Y62139D02*
D03*
X28108Y60449D02*
D03*
X22937Y66840D02*
D03*
X24561Y64953D02*
D03*
X16564Y59549D02*
D03*
X18965Y60958D02*
D03*
X24215Y62683D02*
D03*
X21515Y62003D02*
D03*
X18057Y55906D02*
D03*
X20756Y56586D02*
D03*
X25707Y59040D02*
D03*
X23306Y57631D02*
D03*
X6364Y55369D02*
D03*
X8914Y56414D02*
D03*
X14014Y58504D02*
D03*
X11464Y57459D02*
D03*
X12957Y53816D02*
D03*
X15507Y54861D02*
D03*
X10407Y52771D02*
D03*
X7856Y51726D02*
D03*
X1776Y43500D02*
D03*
X19291Y5601D02*
D03*
X17256Y20456D02*
D03*
X-16409Y28172D02*
D03*
X2203Y26297D02*
D03*
X6173Y26591D02*
D03*
X-12022Y40295D02*
D03*
X15650Y34796D02*
D03*
Y31946D02*
D03*
Y29327D02*
D03*
X-11788Y25383D02*
D03*
X-19488Y39246D02*
D03*
X-11495Y6486D02*
D03*
X-8268Y6693D02*
D03*
X-12368Y35700D02*
D03*
X-14300Y34341D02*
D03*
X-9360Y29682D02*
D03*
X-16932Y34814D02*
D03*
X-4663Y45422D02*
D03*
X-6299Y42126D02*
D03*
X-2968Y43777D02*
D03*
X-596Y43689D02*
D03*
X-6299Y35118D02*
D03*
X15650Y39803D02*
D03*
X17775Y12110D02*
D03*
X-17987Y8088D02*
D03*
X-17374Y14487D02*
D03*
X-7060Y18209D02*
D03*
X1184Y23799D02*
D03*
X1431Y35827D02*
D03*
X1969Y38571D02*
D03*
X-22126Y25150D02*
D03*
X-16789D02*
D03*
X-3749Y25383D02*
D03*
X6467Y33679D02*
D03*
X6313Y36389D02*
D03*
X5764Y38803D02*
D03*
X15650Y37184D02*
D03*
D43*
X5118Y17729D02*
D03*
X-5906Y10630D02*
D03*
X-6299Y13780D02*
D03*
D44*
X23622Y20866D02*
D03*
Y26378D02*
D03*
Y31890D02*
D03*
Y37402D02*
D03*
Y42913D02*
D03*
Y48425D02*
D03*
Y15354D02*
D03*
Y9843D02*
D03*
X-23622Y37402D02*
D03*
Y31890D02*
D03*
Y26378D02*
D03*
Y20866D02*
D03*
Y15354D02*
D03*
Y9843D02*
D03*
Y42913D02*
D03*
Y48425D02*
D03*
D45*
X-19291Y1969D02*
D03*
X-13780D02*
D03*
X19291D02*
D03*
X13780D02*
D03*
X8268D02*
D03*
X2756D02*
D03*
X-2756D02*
D03*
X-8268D02*
D03*
M02*
