G04*
G04 #@! TF.GenerationSoftware,Altium Limited,Altium NEXUS,5.8.2 (18)*
G04*
G04 Layer_Color=8421504*
%FSLAX25Y25*%
%MOIN*%
G70*
G04*
G04 #@! TF.SameCoordinates,96A2D957-15C9-49F1-B6A3-93ECAB74F1FA*
G04*
G04*
G04 #@! TF.FilePolarity,Positive*
G04*
G01*
G75*
%ADD14C,0.00394*%
%ADD15O,0.00787X0.03347*%
%ADD16O,0.03347X0.00787*%
%ADD17R,0.03150X0.03543*%
%ADD18R,0.01428X0.01428*%
%ADD19R,0.02473X0.02387*%
%ADD20R,0.02780X0.02867*%
%ADD21R,0.01588X0.01877*%
%ADD22R,0.01822X0.02182*%
G04:AMPARAMS|DCode=23|XSize=17.88mil|YSize=14.28mil|CornerRadius=0mil|HoleSize=0mil|Usage=FLASHONLY|Rotation=22.280|XOffset=0mil|YOffset=0mil|HoleType=Round|Shape=Rectangle|*
%AMROTATEDRECTD23*
4,1,4,-0.00556,-0.01000,-0.01098,0.00322,0.00556,0.01000,0.01098,-0.00322,-0.00556,-0.01000,0.0*
%
%ADD23ROTATEDRECTD23*%

%ADD24R,0.06717X0.04545*%
%ADD25R,0.01788X0.01428*%
%ADD26R,0.04331X0.04331*%
%ADD27R,0.02362X0.03150*%
G04:AMPARAMS|DCode=28|XSize=17.88mil|YSize=14.28mil|CornerRadius=0mil|HoleSize=0mil|Usage=FLASHONLY|Rotation=157.720|XOffset=0mil|YOffset=0mil|HoleType=Round|Shape=Rectangle|*
%AMROTATEDRECTD28*
4,1,4,0.01098,0.00322,0.00556,-0.01000,-0.01098,-0.00322,-0.00556,0.01000,0.01098,0.00322,0.0*
%
%ADD28ROTATEDRECTD28*%

%ADD29R,0.01428X0.01788*%
%ADD30R,0.02182X0.01822*%
%ADD31R,0.03150X0.02362*%
G36*
X-9846Y7681D02*
X-10437D01*
X-10476D01*
X-10548Y7711D01*
X-10603Y7766D01*
X-10633Y7838D01*
Y7878D01*
D01*
Y8468D01*
Y8507D01*
X-10603Y8580D01*
X-10548Y8635D01*
X-10476Y8665D01*
X-10437D01*
D01*
X-9846D01*
X-9807D01*
X-9735Y8635D01*
X-9679Y8580D01*
X-9649Y8507D01*
Y8468D01*
D01*
Y7878D01*
Y7838D01*
X-9679Y7766D01*
X-9735Y7711D01*
X-9807Y7681D01*
X-9846D01*
D01*
D02*
G37*
G36*
X-10437Y10240D02*
X-9846D01*
X-9807D01*
X-9735Y10210D01*
X-9679Y10154D01*
X-9649Y10082D01*
Y10043D01*
D01*
Y9452D01*
Y9413D01*
X-9679Y9341D01*
X-9735Y9285D01*
X-9807Y9256D01*
X-9846D01*
D01*
X-10437D01*
X-10476D01*
X-10548Y9285D01*
X-10603Y9341D01*
X-10633Y9413D01*
Y9452D01*
D01*
Y10043D01*
Y10082D01*
X-10603Y10154D01*
X-10548Y10210D01*
X-10476Y10240D01*
X-10437D01*
D01*
D02*
G37*
G36*
X-9059Y8468D02*
Y8507D01*
X-9029Y8580D01*
X-8973Y8635D01*
X-8901Y8665D01*
X-8862D01*
D01*
X-8271D01*
X-8232D01*
X-8160Y8635D01*
X-8104Y8580D01*
X-8074Y8507D01*
Y8468D01*
D01*
Y7878D01*
Y7838D01*
X-8104Y7766D01*
X-8160Y7711D01*
X-8232Y7681D01*
X-8271D01*
D01*
X-8862D01*
X-8901D01*
X-8973Y7711D01*
X-9029Y7766D01*
X-9059Y7838D01*
Y7878D01*
D01*
Y8468D01*
D02*
G37*
G36*
X-8271Y9256D02*
X-8862D01*
X-8901D01*
X-8973Y9285D01*
X-9029Y9341D01*
X-9059Y9413D01*
Y9452D01*
D01*
Y10043D01*
Y10082D01*
X-9029Y10154D01*
X-8973Y10210D01*
X-8901Y10240D01*
X-8862D01*
D01*
X-8271D01*
X-8232D01*
X-8160Y10210D01*
X-8104Y10154D01*
X-8074Y10082D01*
Y10043D01*
D01*
Y9452D01*
Y9413D01*
X-8104Y9341D01*
X-8160Y9285D01*
X-8232Y9256D01*
X-8271D01*
D01*
D02*
G37*
G36*
X-9846Y11814D02*
X-9807D01*
X-9735Y11785D01*
X-9679Y11729D01*
X-9649Y11657D01*
Y11618D01*
D01*
Y11027D01*
Y10988D01*
X-9679Y10916D01*
X-9735Y10860D01*
X-9807Y10830D01*
X-9846D01*
D01*
X-10437D01*
X-10476D01*
X-10548Y10860D01*
X-10603Y10916D01*
X-10633Y10988D01*
Y11027D01*
D01*
Y11618D01*
Y11657D01*
X-10603Y11729D01*
X-10548Y11785D01*
X-10476Y11814D01*
X-10437D01*
D01*
X-9846D01*
D02*
G37*
G36*
X-9649Y13193D02*
Y12602D01*
Y12563D01*
X-9679Y12490D01*
X-9735Y12435D01*
X-9807Y12405D01*
X-9846D01*
D01*
X-10437D01*
X-10476D01*
X-10548Y12435D01*
X-10603Y12490D01*
X-10633Y12563D01*
Y12602D01*
D01*
Y13193D01*
Y13232D01*
X-10603Y13304D01*
X-10548Y13359D01*
X-10476Y13389D01*
X-10437D01*
D01*
X-9846D01*
X-9807D01*
X-9735Y13359D01*
X-9679Y13304D01*
X-9649Y13232D01*
Y13193D01*
D01*
D02*
G37*
G36*
X-8862Y11814D02*
X-8271D01*
X-8232D01*
X-8160Y11785D01*
X-8104Y11729D01*
X-8074Y11657D01*
Y11618D01*
D01*
Y11027D01*
Y10988D01*
X-8104Y10916D01*
X-8160Y10860D01*
X-8232Y10830D01*
X-8271D01*
D01*
X-8862D01*
X-8901D01*
X-8973Y10860D01*
X-9029Y10916D01*
X-9059Y10988D01*
Y11027D01*
D01*
Y11618D01*
Y11657D01*
X-9029Y11729D01*
X-8973Y11785D01*
X-8901Y11814D01*
X-8862D01*
D01*
D02*
G37*
G36*
X-8074Y13193D02*
Y12602D01*
Y12563D01*
X-8104Y12490D01*
X-8160Y12435D01*
X-8232Y12405D01*
X-8271D01*
D01*
X-8862D01*
X-8901D01*
X-8973Y12435D01*
X-9029Y12490D01*
X-9059Y12563D01*
Y12602D01*
D01*
Y13193D01*
Y13232D01*
X-9029Y13304D01*
X-8973Y13359D01*
X-8901Y13389D01*
X-8862D01*
D01*
X-8271D01*
X-8232D01*
X-8160Y13359D01*
X-8104Y13304D01*
X-8074Y13232D01*
Y13193D01*
D01*
D02*
G37*
D14*
X-25591Y51181D02*
G03*
X-29528Y55118I-3937J0D01*
G01*
X29528D02*
G03*
X25591Y51181I0J-3937D01*
G01*
X6281Y110236D02*
X13171D01*
X-6383D02*
X-872D01*
X-43307Y55118D02*
Y110236D01*
Y55118D02*
X-29528D01*
X-43307Y110236D02*
X43307D01*
Y55118D02*
Y110236D01*
X29528Y55118D02*
X43307D01*
X-25591Y0D02*
Y51181D01*
Y0D02*
X25591D01*
Y51181D01*
D15*
X7087Y29528D02*
D03*
X5512D02*
D03*
X3937D02*
D03*
X2362D02*
D03*
X787D02*
D03*
X-787D02*
D03*
X-2362D02*
D03*
X-3937D02*
D03*
X-5512D02*
D03*
X-7087D02*
D03*
Y48425D02*
D03*
X-5512D02*
D03*
X-3937D02*
D03*
X-2362D02*
D03*
X-787D02*
D03*
X787D02*
D03*
X2362D02*
D03*
X3937D02*
D03*
X5512D02*
D03*
X7087D02*
D03*
D16*
X-9449Y31890D02*
D03*
Y33465D02*
D03*
Y35039D02*
D03*
Y36614D02*
D03*
Y38189D02*
D03*
Y39764D02*
D03*
Y41339D02*
D03*
Y42913D02*
D03*
Y44488D02*
D03*
Y46063D02*
D03*
X9449D02*
D03*
Y44488D02*
D03*
Y42913D02*
D03*
Y41339D02*
D03*
Y39764D02*
D03*
Y38189D02*
D03*
Y36614D02*
D03*
Y35039D02*
D03*
Y33465D02*
D03*
Y31890D02*
D03*
D17*
X-19488Y47638D02*
D03*
X-15157D02*
D03*
Y42126D02*
D03*
X-19488D02*
D03*
D18*
X-5906Y22244D02*
D03*
Y19488D02*
D03*
D19*
X12607Y7385D02*
D03*
X9544D02*
D03*
D20*
X-18727Y28267D02*
D03*
Y31724D02*
D03*
D21*
X-3448Y10482D02*
D03*
Y12950D02*
D03*
D22*
X-14269Y28634D02*
D03*
Y31424D02*
D03*
X-19488Y19595D02*
D03*
Y22385D02*
D03*
X-1509Y19471D02*
D03*
Y22261D02*
D03*
D23*
X19481Y58617D02*
D03*
X21698Y59525D02*
D03*
D24*
X2457Y13685D02*
D03*
Y8363D02*
D03*
D25*
X9150Y12110D02*
D03*
X11546D02*
D03*
D26*
X20472Y75000D02*
D03*
X27559D02*
D03*
X34646D02*
D03*
Y106102D02*
D03*
X27559D02*
D03*
X20472D02*
D03*
X-34646Y75000D02*
D03*
X-27559D02*
D03*
X-20472D02*
D03*
Y106102D02*
D03*
X-27559D02*
D03*
X-34646D02*
D03*
D27*
X24409Y48425D02*
D03*
Y42913D02*
D03*
Y37402D02*
D03*
Y31890D02*
D03*
Y26378D02*
D03*
Y20866D02*
D03*
Y15354D02*
D03*
Y9843D02*
D03*
X-24409Y9843D02*
D03*
Y15354D02*
D03*
Y20866D02*
D03*
Y26378D02*
D03*
Y31890D02*
D03*
Y37402D02*
D03*
Y42913D02*
D03*
Y48425D02*
D03*
D28*
X-19482Y58617D02*
D03*
X-21699Y59525D02*
D03*
D29*
X2973Y20133D02*
D03*
Y22529D02*
D03*
X7087Y22852D02*
D03*
Y20456D02*
D03*
X-15157Y22064D02*
D03*
Y19668D02*
D03*
X-10892D02*
D03*
Y22064D02*
D03*
D30*
X-16789Y37201D02*
D03*
X-19579D02*
D03*
X-20293Y51575D02*
D03*
X-17503D02*
D03*
D31*
X-19291Y1181D02*
D03*
X-13780D02*
D03*
X-8268D02*
D03*
X-2756D02*
D03*
X2756D02*
D03*
X8268D02*
D03*
X13780D02*
D03*
X19291D02*
D03*
M02*
