G04*
G04 #@! TF.GenerationSoftware,Altium Limited,Altium NEXUS,5.8.2 (18)*
G04*
G04 Layer_Color=8388736*
%FSLAX25Y25*%
%MOIN*%
G70*
G04*
G04 #@! TF.SameCoordinates,96A2D957-15C9-49F1-B6A3-93ECAB74F1FA*
G04*
G04*
G04 #@! TF.FilePolarity,Negative*
G04*
G01*
G75*
%ADD14C,0.00394*%
%ADD17R,0.03150X0.03543*%
%ADD18R,0.01428X0.01428*%
%ADD19R,0.02473X0.02387*%
%ADD20R,0.02780X0.02867*%
%ADD21R,0.01588X0.01877*%
%ADD22R,0.01822X0.02182*%
G04:AMPARAMS|DCode=23|XSize=17.88mil|YSize=14.28mil|CornerRadius=0mil|HoleSize=0mil|Usage=FLASHONLY|Rotation=22.280|XOffset=0mil|YOffset=0mil|HoleType=Round|Shape=Rectangle|*
%AMROTATEDRECTD23*
4,1,4,-0.00556,-0.01000,-0.01098,0.00322,0.00556,0.01000,0.01098,-0.00322,-0.00556,-0.01000,0.0*
%
%ADD23ROTATEDRECTD23*%

%ADD24R,0.06717X0.04545*%
%ADD25R,0.01788X0.01428*%
G04:AMPARAMS|DCode=28|XSize=17.88mil|YSize=14.28mil|CornerRadius=0mil|HoleSize=0mil|Usage=FLASHONLY|Rotation=157.720|XOffset=0mil|YOffset=0mil|HoleType=Round|Shape=Rectangle|*
%AMROTATEDRECTD28*
4,1,4,0.01098,0.00322,0.00556,-0.01000,-0.01098,-0.00322,-0.00556,0.01000,0.01098,0.00322,0.0*
%
%ADD28ROTATEDRECTD28*%

%ADD29R,0.01428X0.01788*%
%ADD30R,0.02182X0.01822*%
%ADD32O,0.01378X0.03937*%
%ADD33O,0.03937X0.01378*%
%ADD34C,0.00906*%
%ADD35R,0.04921X0.04921*%
%ADD36R,0.02953X0.03740*%
%ADD37R,0.03740X0.02953*%
%ADD38C,0.03740*%
G36*
X-25354Y72847D02*
X-25093Y72575D01*
X-24958Y72048D01*
X-24632Y71614D01*
X-24165Y71337D01*
X-23900Y71272D01*
X-23408D01*
X-22829Y71157D01*
X-22283Y70931D01*
X-21792Y70603D01*
X-21375Y70186D01*
X-21047Y69695D01*
X-20821Y69149D01*
X-20706Y68570D01*
Y68275D01*
X-20866Y62222D01*
Y61700D01*
X-20854Y61572D01*
X-20755Y61334D01*
X-20573Y61152D01*
X-20336Y61054D01*
X-20207Y61041D01*
X-16564Y59549D01*
X-5273Y54922D01*
X-4717Y54371D01*
X-4414Y53649D01*
X-4411Y52865D01*
X-4708Y52141D01*
X-5260Y51585D01*
X-5982Y51282D01*
X-6765Y51279D01*
X-7128Y51428D01*
X-21700Y57398D01*
X-22429Y57697D01*
X-24073Y58371D01*
X-24099Y58477D01*
X-24099Y58477D01*
X-29805D01*
X-30280Y58477D01*
X-31212Y58662D01*
X-32090Y59026D01*
X-32880Y59554D01*
X-33551Y60225D01*
X-34079Y61015D01*
X-34443Y61893D01*
X-34628Y62825D01*
X-34628Y63300D01*
X-34628Y63300D01*
X-34628Y69009D01*
X-34628Y69401D01*
X-34328Y70124D01*
X-33775Y70678D01*
X-33051Y70977D01*
X-32660Y70977D01*
X-32660Y70977D01*
X-31674Y70977D01*
X-31329Y71029D01*
X-30701Y71328D01*
X-30236Y71844D01*
X-30003Y72499D01*
X-29987Y72847D01*
X-29987Y72847D01*
X-25354Y72847D01*
D02*
G37*
G36*
X30003Y72499D02*
X30236Y71844D01*
X30701Y71328D01*
X31329Y71029D01*
X31674Y70977D01*
X32179Y70977D01*
X32660Y70977D01*
D01*
X33151Y70936D01*
X33775Y70678D01*
X34328Y70124D01*
X34628Y69401D01*
X34628Y69009D01*
X34628Y63300D01*
X34628Y63300D01*
X34628Y62825D01*
X34443Y61893D01*
X34079Y61015D01*
X33551Y60225D01*
X32880Y59554D01*
X32090Y59026D01*
X31212Y58662D01*
X30280Y58477D01*
X29805Y58477D01*
X24099D01*
X24099Y58477D01*
X24073Y58371D01*
X22429Y57697D01*
X21700Y57398D01*
X7128Y51428D01*
X6765Y51279D01*
X5982Y51282D01*
X5260Y51585D01*
X4708Y52141D01*
X4411Y52865D01*
X4414Y53649D01*
X4717Y54371D01*
X5273Y54922D01*
X16564Y59549D01*
X20207Y61041D01*
X20336Y61054D01*
X20573Y61152D01*
X20755Y61334D01*
X20854Y61572D01*
X20866Y61700D01*
Y62222D01*
X20706Y68275D01*
Y68570D01*
X20821Y69149D01*
X21047Y69695D01*
X21375Y70186D01*
X21792Y70603D01*
X22283Y70931D01*
X22829Y71157D01*
X23408Y71272D01*
X23900D01*
X24165Y71337D01*
X24632Y71614D01*
X24958Y72048D01*
X25093Y72575D01*
X25354Y72847D01*
X29987Y72847D01*
X30003Y72499D01*
D02*
G37*
D14*
X-25591Y51181D02*
G03*
X-29528Y55118I-3937J0D01*
G01*
X29528D02*
G03*
X25591Y51181I0J-3937D01*
G01*
X6281Y110236D02*
X13171D01*
X-6383D02*
X-872D01*
X-43307Y55118D02*
Y110236D01*
Y55118D02*
X-29528D01*
X-43307Y110236D02*
X43307D01*
Y55118D02*
Y110236D01*
X29528Y55118D02*
X43307D01*
X-25591Y0D02*
Y51181D01*
Y0D02*
X25591D01*
Y51181D01*
D17*
X-19488Y47638D02*
D03*
X-15157D02*
D03*
Y42126D02*
D03*
X-19488D02*
D03*
D18*
X-5906Y22244D02*
D03*
Y19488D02*
D03*
D19*
X12607Y7385D02*
D03*
X9544D02*
D03*
D20*
X-18727Y28267D02*
D03*
Y31724D02*
D03*
D21*
X-3448Y10482D02*
D03*
Y12950D02*
D03*
D22*
X-14269Y28634D02*
D03*
Y31424D02*
D03*
X-19488Y19595D02*
D03*
Y22385D02*
D03*
X-1509Y19471D02*
D03*
Y22261D02*
D03*
D23*
X19481Y58617D02*
D03*
X21698Y59525D02*
D03*
D24*
X2457Y13685D02*
D03*
Y8363D02*
D03*
D25*
X9150Y12110D02*
D03*
X11546D02*
D03*
D28*
X-19482Y58617D02*
D03*
X-21699Y59525D02*
D03*
D29*
X2973Y20133D02*
D03*
Y22529D02*
D03*
X7087Y22852D02*
D03*
Y20456D02*
D03*
X-15157Y22064D02*
D03*
Y19668D02*
D03*
X-10892D02*
D03*
Y22064D02*
D03*
D30*
X-16789Y37201D02*
D03*
X-19579D02*
D03*
X-20293Y51575D02*
D03*
X-17503D02*
D03*
D32*
X7087Y29528D02*
D03*
X5512D02*
D03*
X3937D02*
D03*
X2362D02*
D03*
X787D02*
D03*
X-787D02*
D03*
X-2362D02*
D03*
X-3937D02*
D03*
X-5512D02*
D03*
X-7087D02*
D03*
Y48425D02*
D03*
X-5512D02*
D03*
X-3937D02*
D03*
X-2362D02*
D03*
X-787D02*
D03*
X787D02*
D03*
X2362D02*
D03*
X3937D02*
D03*
X5512D02*
D03*
X7087D02*
D03*
D33*
X-9449Y31890D02*
D03*
Y33465D02*
D03*
Y35039D02*
D03*
Y36614D02*
D03*
Y38189D02*
D03*
Y39764D02*
D03*
Y41339D02*
D03*
Y42913D02*
D03*
Y44488D02*
D03*
Y46063D02*
D03*
X9449D02*
D03*
Y44488D02*
D03*
Y42913D02*
D03*
Y41339D02*
D03*
Y39764D02*
D03*
Y38189D02*
D03*
Y36614D02*
D03*
Y35039D02*
D03*
Y33465D02*
D03*
Y31890D02*
D03*
D34*
X-10141Y12897D02*
D03*
X-8567D02*
D03*
X-10141Y11322D02*
D03*
X-8567D02*
D03*
X-10141Y9748D02*
D03*
X-8567D02*
D03*
X-10141Y8173D02*
D03*
X-8567D02*
D03*
D35*
X20472Y75000D02*
D03*
X27559D02*
D03*
X34646D02*
D03*
Y106102D02*
D03*
X27559D02*
D03*
X20472D02*
D03*
X-34646Y75000D02*
D03*
X-27559D02*
D03*
X-20472D02*
D03*
Y106102D02*
D03*
X-27559D02*
D03*
X-34646D02*
D03*
D36*
X24409Y48425D02*
D03*
Y42913D02*
D03*
Y37402D02*
D03*
Y31890D02*
D03*
Y26378D02*
D03*
Y20866D02*
D03*
Y15354D02*
D03*
Y9843D02*
D03*
X-24409Y9843D02*
D03*
Y15354D02*
D03*
Y20866D02*
D03*
Y26378D02*
D03*
Y31890D02*
D03*
Y37402D02*
D03*
Y42913D02*
D03*
Y48425D02*
D03*
D37*
X-19291Y1181D02*
D03*
X-13780D02*
D03*
X-8268D02*
D03*
X-2756D02*
D03*
X2756D02*
D03*
X8268D02*
D03*
X13780D02*
D03*
X19291D02*
D03*
D38*
X25591Y15354D02*
D03*
Y20866D02*
D03*
Y26378D02*
D03*
Y31890D02*
D03*
Y37402D02*
D03*
Y42913D02*
D03*
Y48425D02*
D03*
Y9843D02*
D03*
X-19291Y0D02*
D03*
X19291D02*
D03*
X13780D02*
D03*
X8268D02*
D03*
X2756D02*
D03*
X-2756D02*
D03*
X-8268D02*
D03*
X-13780D02*
D03*
X-25591Y42913D02*
D03*
Y37402D02*
D03*
Y31890D02*
D03*
Y26378D02*
D03*
Y20866D02*
D03*
Y15354D02*
D03*
Y48425D02*
D03*
Y9843D02*
D03*
M02*
